<svg height="500" style="background-color: #000;" viewBox="0 0 500 500" width="500" xmlns="http://www.w3.org/2000/svg">
<text fill="#fff" font-size="20" text-anchor="middle" x="75" y="465">
a
</text>
<text fill="#fff" font-size="20" text-anchor="middle" x="125" y="465">
b
</text>
<text fill="#fff" font-size="20" text-anchor="middle" x="175" y="465">
c
</text>
<text fill="#fff" font-size="20" text-anchor="middle" x="225" y="465">
d
</text>
<text fill="#fff" font-size="20" text-anchor="middle" x="275" y="465">
e
</text>
<text fill="#fff" font-size="20" text-anchor="middle" x="325" y="465">
f
</text>
<text fill="#fff" font-size="20" text-anchor="middle" x="375" y="465">
g
</text>
<text fill="#fff" font-size="20" text-anchor="middle" x="425" y="465">
h
</text>
<text fill="#fff" font-size="20" text-anchor="middle" x="25" y="85">
8
</text>
<text fill="#fff" font-size="20" text-anchor="middle" x="25" y="135">
7
</text>
<text fill="#fff" font-size="20" text-anchor="middle" x="25" y="185">
6
</text>
<text fill="#fff" font-size="20" text-anchor="middle" x="25" y="235">
5
</text>
<text fill="#fff" font-size="20" text-anchor="middle" x="25" y="285">
4
</text>
<text fill="#fff" font-size="20" text-anchor="middle" x="25" y="335">
3
</text>
<text fill="#fff" font-size="20" text-anchor="middle" x="25" y="385">
2
</text>
<text fill="#fff" font-size="20" text-anchor="middle" x="25" y="435">
1
</text>
<rect fill="#ccc" height="50" width="50" x="50" y="50"/>
<text fill="#cc0000" font-size="30" text-anchor="middle" x="75" y="85">
r
</text>
<rect fill="#666" height="50" width="50" x="100" y="50"/>
<text fill="#cc0000" font-size="30" text-anchor="middle" x="125" y="85">
n
</text>
<rect fill="#ccc" height="50" width="50" x="150" y="50"/>
<text fill="#cc0000" font-size="30" text-anchor="middle" x="175" y="85">
b
</text>
<rect fill="#666" height="50" width="50" x="200" y="50"/>
<text fill="#cc0000" font-size="30" text-anchor="middle" x="225" y="85">
q
</text>
<rect fill="#ccc" height="50" width="50" x="250" y="50"/>
<rect fill="#666" height="50" width="50" x="300" y="50"/>
<text fill="#cc0000" font-size="30" text-anchor="middle" x="325" y="85">
b
</text>
<rect fill="#ccc" height="50" width="50" x="350" y="50"/>
<text fill="#cc0000" font-size="30" text-anchor="middle" x="375" y="85">
n
</text>
<rect fill="#666" height="50" width="50" x="400" y="50"/>
<text fill="#cc0000" font-size="30" text-anchor="middle" x="425" y="85">
r
</text>
<rect fill="#666" height="50" width="50" x="50" y="100"/>
<text fill="#cc0000" font-size="30" text-anchor="middle" x="75" y="135">
p
</text>
<rect fill="#ccc" height="50" width="50" x="100" y="100"/>
<text fill="#cc0000" font-size="30" text-anchor="middle" x="125" y="135">
p
</text>
<rect fill="#666" height="50" width="50" x="150" y="100"/>
<text fill="#cc0000" font-size="30" text-anchor="middle" x="175" y="135">
p
</text>
<rect fill="#ccc" height="50" width="50" x="200" y="100"/>
<text fill="#cc0000" font-size="30" text-anchor="middle" x="225" y="135">
p
</text>
<rect fill="#666" height="50" width="50" x="250" y="100"/>
<text fill="#cc0000" font-size="30" text-anchor="middle" x="275" y="135">
p
</text>
<rect fill="#ccc" height="50" width="50" x="300" y="100"/>
<rect fill="#666" height="50" width="50" x="350" y="100"/>
<text fill="#cc0000" font-size="30" text-anchor="middle" x="375" y="135">
p
</text>
<rect fill="#ccc" height="50" width="50" x="400" y="100"/>
<text fill="#cc0000" font-size="30" text-anchor="middle" x="425" y="135">
p
</text>
<rect fill="#ccc" height="50" width="50" x="50" y="150"/>
<rect fill="#666" height="50" width="50" x="100" y="150"/>
<rect fill="#ccc" height="50" width="50" x="150" y="150"/>
<rect fill="#666" height="50" width="50" x="200" y="150"/>
<rect fill="#ccc" height="50" width="50" x="250" y="150"/>
<rect fill="#666" height="50" width="50" x="300" y="150"/>
<text fill="#ff9999" font-size="30" text-anchor="middle" x="325" y="185">
K
</text>
<rect fill="#ccc" height="50" width="50" x="350" y="150"/>
<rect fill="#666" height="50" width="50" x="400" y="150"/>
<rect fill="#666" height="50" width="50" x="50" y="200"/>
<rect fill="#ccc" height="50" width="50" x="100" y="200"/>
<rect fill="#666" height="50" width="50" x="150" y="200"/>
<rect fill="#ccc" height="50" width="50" x="200" y="200"/>
<rect fill="#666" height="50" width="50" x="250" y="200"/>
<rect fill="#ccc" height="50" width="50" x="300" y="200"/>
<text fill="#cc0000" font-size="30" text-anchor="middle" x="325" y="235">
p
</text>
<rect fill="#666" height="50" width="50" x="350" y="200"/>
<rect fill="#ccc" height="50" width="50" x="400" y="200"/>
<rect fill="#ccc" height="50" width="50" x="50" y="250"/>
<rect fill="#666" height="50" width="50" x="100" y="250"/>
<rect fill="#ccc" height="50" width="50" x="150" y="250"/>
<text fill="#ff9999" font-size="30" text-anchor="middle" x="175" y="285">
P
</text>
<rect fill="#666" height="50" width="50" x="200" y="250"/>
<rect fill="#ccc" height="50" width="50" x="250" y="250"/>
<rect fill="#666" height="50" width="50" x="300" y="250"/>
<rect fill="#ccc" height="50" width="50" x="350" y="250"/>
<rect fill="#666" height="50" width="50" x="400" y="250"/>
<rect fill="#666" height="50" width="50" x="50" y="300"/>
<rect fill="#ccc" height="50" width="50" x="100" y="300"/>
<rect fill="#666" height="50" width="50" x="150" y="300"/>
<rect fill="#ccc" height="50" width="50" x="200" y="300"/>
<rect fill="#666" height="50" width="50" x="250" y="300"/>
<rect fill="#ccc" height="50" width="50" x="300" y="300"/>
<rect fill="#666" height="50" width="50" x="350" y="300"/>
<text fill="#ff9999" font-size="30" text-anchor="middle" x="375" y="335">
P
</text>
<rect fill="#ccc" height="50" width="50" x="400" y="300"/>
<text fill="#ff9999" font-size="30" text-anchor="middle" x="425" y="335">
N
</text>
<rect fill="#ccc" height="50" width="50" x="50" y="350"/>
<text fill="#ff9999" font-size="30" text-anchor="middle" x="75" y="385">
P
</text>
<rect fill="#666" height="50" width="50" x="100" y="350"/>
<text fill="#ff9999" font-size="30" text-anchor="middle" x="125" y="385">
P
</text>
<rect fill="#ccc" height="50" width="50" x="150" y="350"/>
<text fill="#ff9999" font-size="30" text-anchor="middle" x="175" y="385">
P
</text>
<rect fill="#666" height="50" width="50" x="200" y="350"/>
<text fill="#ff9999" font-size="30" text-anchor="middle" x="225" y="385">
P
</text>
<rect fill="#ccc" height="50" width="50" x="250" y="350"/>
<text fill="#ff9999" font-size="30" text-anchor="middle" x="275" y="385">
P
</text>
<rect fill="#666" height="50" width="50" x="300" y="350"/>
<text fill="#ff9999" font-size="30" text-anchor="middle" x="325" y="385">
P
</text>
<rect fill="#ccc" height="50" width="50" x="350" y="350"/>
<rect fill="#666" height="50" width="50" x="400" y="350"/>
<text fill="#ff9999" font-size="30" text-anchor="middle" x="425" y="385">
P
</text>
<rect fill="#666" height="50" width="50" x="50" y="400"/>
<text fill="#ff9999" font-size="30" text-anchor="middle" x="75" y="435">
R
</text>
<rect fill="#ccc" height="50" width="50" x="100" y="400"/>
<text fill="#ff9999" font-size="30" text-anchor="middle" x="125" y="435">
N
</text>
<rect fill="#666" height="50" width="50" x="150" y="400"/>
<text fill="#ff9999" font-size="30" text-anchor="middle" x="175" y="435">
B
</text>
<rect fill="#ccc" height="50" width="50" x="200" y="400"/>
<text fill="#ff9999" font-size="30" text-anchor="middle" x="225" y="435">
Q
</text>
<rect fill="#666" height="50" width="50" x="250" y="400"/>
<text fill="#ff9999" font-size="30" text-anchor="middle" x="275" y="435">
K
</text>
<rect fill="#ccc" height="50" width="50" x="300" y="400"/>
<text fill="#ff9999" font-size="30" text-anchor="middle" x="325" y="435">
B
</text>
<rect fill="#666" height="50" width="50" x="350" y="400"/>
<rect fill="#ccc" height="50" width="50" x="400" y="400"/>
<text fill="#ff9999" font-size="30" text-anchor="middle" x="425" y="435">
R
</text>
</svg>