<svg height="400" width="400" xmlns="http://www.w3.org/2000/svg">
<rect fill="#ccc" height="50" width="50" x="0" y="0"/>
<text fill="#cc0000" font-size="30" text-anchor="middle" x="25" y="35">
r
</text>
<rect fill="#666" height="50" width="50" x="50" y="0"/>
<text fill="#cc0000" font-size="30" text-anchor="middle" x="75" y="35">
n
</text>
<rect fill="#ccc" height="50" width="50" x="100" y="0"/>
<text fill="#cc0000" font-size="30" text-anchor="middle" x="125" y="35">
b
</text>
<rect fill="#666" height="50" width="50" x="150" y="0"/>
<text fill="#cc0000" font-size="30" text-anchor="middle" x="175" y="35">
q
</text>
<rect fill="#ccc" height="50" width="50" x="200" y="0"/>
<rect fill="#666" height="50" width="50" x="250" y="0"/>
<text fill="#cc0000" font-size="30" text-anchor="middle" x="275" y="35">
b
</text>
<rect fill="#ccc" height="50" width="50" x="300" y="0"/>
<text fill="#cc0000" font-size="30" text-anchor="middle" x="325" y="35">
n
</text>
<rect fill="#666" height="50" width="50" x="350" y="0"/>
<text fill="#cc0000" font-size="30" text-anchor="middle" x="375" y="35">
r
</text>
<rect fill="#666" height="50" width="50" x="0" y="50"/>
<text fill="#cc0000" font-size="30" text-anchor="middle" x="25" y="85">
p
</text>
<rect fill="#ccc" height="50" width="50" x="50" y="50"/>
<text fill="#cc0000" font-size="30" text-anchor="middle" x="75" y="85">
p
</text>
<rect fill="#666" height="50" width="50" x="100" y="50"/>
<text fill="#cc0000" font-size="30" text-anchor="middle" x="125" y="85">
p
</text>
<rect fill="#ccc" height="50" width="50" x="150" y="50"/>
<text fill="#cc0000" font-size="30" text-anchor="middle" x="175" y="85">
p
</text>
<rect fill="#666" height="50" width="50" x="200" y="50"/>
<text fill="#cc0000" font-size="30" text-anchor="middle" x="225" y="85">
p
</text>
<rect fill="#ccc" height="50" width="50" x="250" y="50"/>
<rect fill="#666" height="50" width="50" x="300" y="50"/>
<text fill="#cc0000" font-size="30" text-anchor="middle" x="325" y="85">
p
</text>
<rect fill="#ccc" height="50" width="50" x="350" y="50"/>
<text fill="#cc0000" font-size="30" text-anchor="middle" x="375" y="85">
p
</text>
<rect fill="#ccc" height="50" width="50" x="0" y="100"/>
<rect fill="#666" height="50" width="50" x="50" y="100"/>
<rect fill="#ccc" height="50" width="50" x="100" y="100"/>
<rect fill="#666" height="50" width="50" x="150" y="100"/>
<rect fill="#ccc" height="50" width="50" x="200" y="100"/>
<rect fill="#666" height="50" width="50" x="250" y="100"/>
<text fill="#ff9999" font-size="30" text-anchor="middle" x="275" y="135">
K
</text>
<rect fill="#ccc" height="50" width="50" x="300" y="100"/>
<rect fill="#666" height="50" width="50" x="350" y="100"/>
<rect fill="#666" height="50" width="50" x="0" y="150"/>
<rect fill="#ccc" height="50" width="50" x="50" y="150"/>
<rect fill="#666" height="50" width="50" x="100" y="150"/>
<rect fill="#ccc" height="50" width="50" x="150" y="150"/>
<rect fill="#666" height="50" width="50" x="200" y="150"/>
<rect fill="#ccc" height="50" width="50" x="250" y="150"/>
<text fill="#cc0000" font-size="30" text-anchor="middle" x="275" y="185">
p
</text>
<rect fill="#666" height="50" width="50" x="300" y="150"/>
<rect fill="#ccc" height="50" width="50" x="350" y="150"/>
<rect fill="#ccc" height="50" width="50" x="0" y="200"/>
<rect fill="#666" height="50" width="50" x="50" y="200"/>
<rect fill="#ccc" height="50" width="50" x="100" y="200"/>
<text fill="#ff9999" font-size="30" text-anchor="middle" x="125" y="235">
P
</text>
<rect fill="#666" height="50" width="50" x="150" y="200"/>
<rect fill="#ccc" height="50" width="50" x="200" y="200"/>
<rect fill="#666" height="50" width="50" x="250" y="200"/>
<rect fill="#ccc" height="50" width="50" x="300" y="200"/>
<rect fill="#666" height="50" width="50" x="350" y="200"/>
<rect fill="#666" height="50" width="50" x="0" y="250"/>
<rect fill="#ccc" height="50" width="50" x="50" y="250"/>
<rect fill="#666" height="50" width="50" x="100" y="250"/>
<rect fill="#ccc" height="50" width="50" x="150" y="250"/>
<rect fill="#666" height="50" width="50" x="200" y="250"/>
<rect fill="#ccc" height="50" width="50" x="250" y="250"/>
<rect fill="#666" height="50" width="50" x="300" y="250"/>
<text fill="#ff9999" font-size="30" text-anchor="middle" x="325" y="285">
P
</text>
<rect fill="#ccc" height="50" width="50" x="350" y="250"/>
<text fill="#ff9999" font-size="30" text-anchor="middle" x="375" y="285">
N
</text>
<rect fill="#ccc" height="50" width="50" x="0" y="300"/>
<text fill="#ff9999" font-size="30" text-anchor="middle" x="25" y="335">
P
</text>
<rect fill="#666" height="50" width="50" x="50" y="300"/>
<text fill="#ff9999" font-size="30" text-anchor="middle" x="75" y="335">
P
</text>
<rect fill="#ccc" height="50" width="50" x="100" y="300"/>
<text fill="#ff9999" font-size="30" text-anchor="middle" x="125" y="335">
P
</text>
<rect fill="#666" height="50" width="50" x="150" y="300"/>
<text fill="#ff9999" font-size="30" text-anchor="middle" x="175" y="335">
P
</text>
<rect fill="#ccc" height="50" width="50" x="200" y="300"/>
<text fill="#ff9999" font-size="30" text-anchor="middle" x="225" y="335">
P
</text>
<rect fill="#666" height="50" width="50" x="250" y="300"/>
<text fill="#ff9999" font-size="30" text-anchor="middle" x="275" y="335">
P
</text>
<rect fill="#ccc" height="50" width="50" x="300" y="300"/>
<rect fill="#666" height="50" width="50" x="350" y="300"/>
<text fill="#ff9999" font-size="30" text-anchor="middle" x="375" y="335">
P
</text>
<rect fill="#666" height="50" width="50" x="0" y="350"/>
<text fill="#ff9999" font-size="30" text-anchor="middle" x="25" y="385">
R
</text>
<rect fill="#ccc" height="50" width="50" x="50" y="350"/>
<text fill="#ff9999" font-size="30" text-anchor="middle" x="75" y="385">
N
</text>
<rect fill="#666" height="50" width="50" x="100" y="350"/>
<text fill="#ff9999" font-size="30" text-anchor="middle" x="125" y="385">
B
</text>
<rect fill="#ccc" height="50" width="50" x="150" y="350"/>
<text fill="#ff9999" font-size="30" text-anchor="middle" x="175" y="385">
Q
</text>
<rect fill="#666" height="50" width="50" x="200" y="350"/>
<text fill="#ff9999" font-size="30" text-anchor="middle" x="225" y="385">
K
</text>
<rect fill="#ccc" height="50" width="50" x="250" y="350"/>
<text fill="#ff9999" font-size="30" text-anchor="middle" x="275" y="385">
B
</text>
<rect fill="#666" height="50" width="50" x="300" y="350"/>
<rect fill="#ccc" height="50" width="50" x="350" y="350"/>
<text fill="#ff9999" font-size="30" text-anchor="middle" x="375" y="385">
R
</text>
</svg>
