<svg version="1.1" viewBox="0.0 0.0 38.3989501312336 38.3989501312336" fill="none" stroke="none" stroke-linecap="square" stroke-miterlimit="10" xmlns:xlink="http://www.w3.org/1999/xlink" xmlns="http://www.w3.org/2000/svg"><clipPath id="p.0"><path d="m0 0l38.39895 0l0 38.39895l-38.39895 0l0 -38.39895z" clip-rule="nonzero"/></clipPath><g clip-path="url(#p.0)"><path fill="#000000" fill-opacity="0.0" d="m0 0l38.39895 0l0 38.39895l-38.39895 0z" fill-rule="evenodd"/><path fill="#000000" d="m-6.485166 17.565039l0 0c2.335505 -3.0845652 2.7957728 -7.408658 1.1718893 -11.009589c-1.6238832 -3.6009305 -5.022613 -5.79282 -8.653517 -5.5807776c-3.6309032 0.21204239 -6.802395 2.7876287 -8.074944 6.557709l7.2290564 2.989644l0 0c0.12425518 -0.88392544 0.5356159 -1.5645494 1.0550966 -1.7457275c0.51947975 -0.18117905 1.0531425 0.16985035 1.3687868 0.9003525c0.31564426 0.7305021 0.3561926 1.7083807 0.104002 2.508153z" fill-rule="evenodd"/><path fill="#000000" d="m7.882108 85.89764l0 -5.795273l0 0c0 -3.2006454 5.069406 -5.7952805 11.322834 -5.7952805c6.2534294 0 11.322836 2.594635 11.322836 5.7952805l0 5.795273z" fill-rule="evenodd"/><path fill="#000000" d="m-20.950167 11.049662l5.984251 -1.5748024l4.4724407 17.700787l-5.984251 1.5748043z" fill-rule="evenodd"/><path fill="#000000" d="m-14.186875 12.570703l0 0c-1.7592545 0.8277464 -3.9847631 0.68852043 -5.6739397 -0.35495758c-1.6891766 -1.043477 -2.5232449 -2.7942858 -2.126461 -4.463689c0.39678383 -1.6694031 1.949543 -2.9423585 3.9587612 -3.2454019l0.9627514 3.6021276l0 0c-0.5764103 -0.031198502 -1.064209 0.08425331 -1.2577744 0.29768753c-0.19356728 0.21343517 -0.059223175 0.48772144 0.3463974 0.70723915c0.40562248 0.21951675 1.0119572 0.34607506 1.5634117 0.32632542z" fill-rule="evenodd"/><path fill="#000000" d="m42.9856 55.436497l0 0c3.0786018 -4.1538467 8.3999405 -5.8908157 12.822193 -4.1853676c4.4222565 1.705452 6.769394 6.399784 5.6556206 11.311371c-1.1137733 4.9115906 -5.392269 8.734268 -10.309376 9.21106l0.016105652 -3.6120453l0 0c3.2060165 -0.47966003 6.002922 -3.103897 6.7611847 -6.3437843c0.75826263 -3.2398872 -0.72029114 -6.248657 -3.574234 -7.273346c-2.853939 -1.0246887 -6.337372 0.20251083 -8.420784 2.96661z" fill-rule="evenodd"/><path fill="#000000" d="m29.56615 51.82677l0.12598419 8.09449l-20.88189 0l-0.12598419 -8.09449z" fill-rule="evenodd"/><path fill="#000000" d="m8.086634 77.59318l0 -3.464569l0 0c0 -1.9134293 4.9706964 -3.464569 11.102362 -3.464569c6.131666 0 11.102362 1.5511398 11.102362 3.464569l0 3.464569z" fill-rule="evenodd"/><path fill="#000000" d="m43.769028 70.39895l0 -5.795273l0 0c0 -3.2006454 3.3279 -5.7952766 7.433071 -5.7952766c4.105171 0 7.433071 2.5946312 7.433071 5.7952766l0 5.795273z" fill-rule="evenodd"/><path fill="#000000" d="m88.759476 38.307823l0 0c2.69796 -4.9908295 8.716713 -7.2067413 14.205917 -5.2301636c5.489197 1.9765778 8.82589 7.561241 7.8755035 13.181347c-0.9503784 5.6201057 -5.906845 9.613987 -11.698616 9.426662l0.020843506 -4.141819l0 0c3.7557678 0.17958069 6.9664993 -2.3606796 7.5688705 -5.988331c0.6023712 -3.6276512 -1.5827942 -7.2636147 -5.1512375 -8.571308c-3.568451 -1.3076935 -7.4587097 0.101867676 -9.170784 3.322857z" fill-rule="evenodd"/><path fill="#000000" d="m46.63149 38.755486l3.6535416 5.0393715l-8.818897 6.1102333l-3.6535416 -5.0393677z" fill-rule="evenodd"/><path fill="#000000" d="m43.706036 59.93176l0 -3.464569l0 0c0 -1.9134254 3.356102 -3.4645653 7.496063 -3.4645653c4.1399612 0 7.496063 1.5511398 7.496063 3.4645653l0 3.464569z" fill-rule="evenodd"/><path fill="#000000" d="m-20.23097 70.39895l0 -5.795273l0 0c0 -3.2006454 3.327898 -5.7952766 7.43307 -5.7952766c4.105171 0 7.4330707 2.5946312 7.4330707 5.7952766l0 5.795273z" fill-rule="evenodd"/><path fill="#000000" d="m-22.086842 39.816185c2.745327 -4.527153 8.114007 -6.770298 12.7967 -5.3467255c4.6826916 1.4235725 7.3615017 6.1132126 6.385167 11.178146c-0.97633433 5.0649376 -5.3330345 9.0797 -10.384559 9.569519l0.016105652 -3.6120415l0 0c3.2898722 -0.49220657 6.1362166 -3.2381172 6.810611 -6.5702934c0.67439413 -3.33218 -1.0092444 -6.331196 -4.0285378 -7.175915c-3.0192938 -0.84471893 -6.5411425 0.6979332 -8.42693 3.6911964z" fill-rule="evenodd"/><path fill="#000000" d="m-18.844015 41.475296l4.8503933 3.1496086l-3.9055119 5.795273l-4.8503933 -3.1496048z" fill-rule="evenodd"/><path fill="#000000" d="m-20.293962 59.93176l0 -3.464569l0 0c0 -1.9134254 3.3561 -3.4645653 7.4960623 -3.4645653c4.1399612 0 7.4960628 1.5511398 7.4960628 3.4645653l0 3.464569z" fill-rule="evenodd"/><path fill="#000000" d="m44.967457 8.2651005c2.3372345 -2.969057 6.2498055 -4.1172733 9.491241 -2.7853813c3.241436 1.331892 4.980526 4.80235 4.2187424 8.418754c-0.7617836 3.6164045 -3.829094 6.4513845 -7.4407806 6.8771925l-0.0897522 -2.7198505l0 0c2.345089 -0.38108635 4.34074 -2.309472 4.852566 -4.689005c0.51182175 -2.3795319 -0.5897293 -4.607915 -2.6785011 -5.4184694c-2.0887756 -0.8105545 -4.6360703 0.0018830299 -6.193928 1.9754992z" fill-rule="evenodd"/><path fill="#000000" d="m16.291338 46.879265l5.7952766 -0.09448624l0 25.574802l-5.7952766 0.09449005z" fill-rule="evenodd"/><path fill="#000000" d="m12.049869 66.17585l0 -1.7795258l0 0c0 -0.98280334 3.2503424 -1.7795258 7.259843 -1.7795258c4.0095005 0 7.259842 0.7967224 7.259842 1.7795258l0 1.7795258z" fill-rule="evenodd"/><path fill="#000000" d="m13.918635 62.90814l0 -1.2913399l0 0c0 -0.7131882 2.4113169 -1.2913399 5.385827 -1.2913399c2.9745102 0 5.385826 0.5781517 5.385826 1.2913399l0 1.2913399z" fill-rule="evenodd"/><path fill="#000000" d="m79.125984 21.480314l0 0c0 -1.9134274 1.6287003 -3.4645653 3.6377945 -3.4645653l0 0c0.9648056 0 1.890091 0.36501503 2.5723114 1.0147476c0.68222046 0.6497326 1.0654831 1.5309582 1.0654831 2.4498177l0 0c0 1.9134274 -1.6286926 3.4645672 -3.6377945 3.4645672l0 0c-2.0090942 0 -3.6377945 -1.5511398 -3.6377945 -3.4645672z" fill-rule="evenodd"/><path fill="#000000" d="m71.0 54.39895l11.763779 -14.110233l11.763779 14.110233z" fill-rule="evenodd"/><path fill="#000000" d="m72.58924 47.85302l10.173225 -11.590553l10.173225 11.590553z" fill-rule="evenodd"/><path fill="#000000" d="m92.937004 24.944881l-10.173225 11.590553l-10.173225 -11.590553z" fill-rule="evenodd"/><path fill="#000000" d="m88.874016 23.942257l-6.110237 4.9448814l-6.110237 -4.9448814z" fill-rule="evenodd"/><path fill="#000000" d="m56.9147 11.015748l10.173229 -11.590551l10.173225 11.590551z" fill-rule="evenodd"/><path fill="#000000" d="m67.391075 27.164042l-10.173229 11.590551l-10.173225 -11.590551z" fill-rule="evenodd"/><path fill="#000000" d="m31.125984 93.480316l0 0c0 -1.9134293 1.6286964 -3.464569 3.6377945 -3.464569l0 0c0.9648056 0 1.890091 0.36501312 2.5723114 1.0147476c0.68221664 0.6497345 1.0654831 1.5309601 1.0654831 2.4498215l0 0c0 1.9134293 -1.6286964 3.464569 -3.6377945 3.464569l0 0c-2.009098 0 -3.6377945 -1.5511398 -3.6377945 -3.464569z" fill-rule="evenodd"/><path fill="#000000" d="m23.0 126.39895l11.763779 -14.110237l11.763779 14.110237z" fill-rule="evenodd"/><path fill="#000000" d="m24.58924 119.85302l10.173227 -11.590553l10.173229 11.590553z" fill-rule="evenodd"/><path fill="#000000" d="m44.937008 96.944885l-10.173229 11.590546l-10.173227 -11.590546z" fill-rule="evenodd"/><path fill="#000000" d="m40.874016 95.94226l-6.110237 4.9448776l-6.110235 -4.9448776z" fill-rule="evenodd"/><path fill="#000000" d="m24.316273 105.42519l10.173229 -11.590546l10.173229 11.590546z" fill-rule="evenodd"/><path fill="#665628" d="m-24.847769 4.6062994l0 0c0 -2.861444 2.2491512 -5.1811028 5.0236225 -5.1811028l0 0c1.332346 0 2.6101246 0.5458646 3.5522366 1.5175097c0.94211197 0.97164524 1.471385 2.2894788 1.471385 3.6635928l0 0c0 2.8614435 -2.2491522 5.181102 -5.0236216 5.181102l0 0c-2.7744713 0 -5.0236225 -2.3196583 -5.0236225 -5.181102z" fill-rule="evenodd"/><path fill="#665628" d="m-31.396326 29.776903l11.637796 -14.110236l11.6377945 14.110236z" fill-rule="evenodd"/><path fill="#665628" d="m-33.963303 35.649605l14.330711 -11.590549l14.330708 11.590549z" fill-rule="evenodd"/><path fill="#665628" d="m-9.569553 8.317585l-10.062992 11.590551l-10.062992 -11.590551z" fill-rule="evenodd"/><path fill="#665628" d="m-13.713911 6.9947505l-6.110235 4.944882l-6.110237 -4.944882z" fill-rule="evenodd"/><path fill="#665628" d="m-29.616798 16.850393l0 -1.338582l0 0c0 -0.7392788 4.4701023 -1.338583 9.984253 -1.338583c5.5141497 0 9.984252 0.5993042 9.984252 1.338583l0 1.338582z" fill-rule="evenodd"/><path fill="#665628" d="m-33.963253 35.649605l0 -2.661415l0 0c0 -1.4698601 6.4160748 -2.661419 14.330708 -2.661419c7.914632 0 14.330708 1.1915588 14.330708 2.661419l0 2.661415z" fill-rule="evenodd"/><path fill="#665628" d="m-31.540682 31.51181l0 -2.661417l0 0c0 -1.4698601 5.2456703 -2.661417 11.716536 -2.661417c6.4708633 0 11.716535 1.1915569 11.716535 2.661417l0 2.661417z" fill-rule="evenodd"/><path fill="#665628" d="m-29.616798 19.343832l0 -1.5590553l0 0c0 -0.861042 4.4701023 -1.5590553 9.984253 -1.5590553c5.5141497 0 9.984252 0.6980133 9.984252 1.5590553l0 1.5590553z" fill-rule="evenodd"/><path fill="#ff8e8e" d="m-24.847769 4.6062994l0 0c0 -2.861444 2.2491512 -5.1811028 5.0236225 -5.1811028l0 0c1.332346 0 2.6101246 0.5458646 3.5522366 1.5175097c0.94211197 0.97164524 1.471385 2.2894788 1.471385 3.6635928l0 0c0 2.8614435 -2.2491522 5.181102 -5.0236216 5.181102l0 0c-2.7744713 0 -5.0236225 -2.3196583 -5.0236225 -5.181102z" fill-rule="evenodd"/><path fill="#ff8e8e" d="m-31.396326 29.776903l11.637796 -14.110236l11.6377945 14.110236z" fill-rule="evenodd"/><path fill="#ff8e8e" d="m-33.963303 35.649605l14.330711 -11.590549l14.330708 11.590549z" fill-rule="evenodd"/><path fill="#ff8e8e" d="m-9.569553 8.317585l-10.062992 11.590551l-10.062992 -11.590551z" fill-rule="evenodd"/><path fill="#ff8e8e" d="m-13.713911 6.9947505l-6.110235 4.944882l-6.110237 -4.944882z" fill-rule="evenodd"/><path fill="#ff8e8e" d="m-29.616798 16.850393l0 -1.338582l0 0c0 -0.7392788 4.4701023 -1.338583 9.984253 -1.338583c5.5141497 0 9.984252 0.5993042 9.984252 1.338583l0 1.338582z" fill-rule="evenodd"/><path fill="#ff8e8e" d="m-33.963253 35.649605l0 -2.661415l0 0c0 -1.4698601 6.4160748 -2.661419 14.330708 -2.661419c7.914632 0 14.330708 1.1915588 14.330708 2.661419l0 2.661415z" fill-rule="evenodd"/><path fill="#ff8e8e" d="m-31.540682 31.51181l0 -2.661417l0 0c0 -1.4698601 5.2456703 -2.661417 11.716536 -2.661417c6.4708633 0 11.716535 1.1915569 11.716535 2.661417l0 2.661417z" fill-rule="evenodd"/><path fill="#ff8e8e" d="m-29.616798 19.343832l0 -1.5590553l0 0c0 -0.861042 4.4701023 -1.5590553 9.984253 -1.5590553c5.5141497 0 9.984252 0.6980133 9.984252 1.5590553l0 1.5590553z" fill-rule="evenodd"/><path fill="#9e0b00" d="m-19.110237 19.304462l-3.3674526 1.2099724l-3.0183735 1.9842529l2.6745415 -3.1942253z" fill-rule="evenodd"/><path fill="#9e0b00" d="m-31.36483 29.228346l-0.25984192 2.417324l5.0918636 0.0866127l-4.141733 -0.51968384z" fill-rule="evenodd"/><path fill="#9e0b00" d="m-33.695538 33.199474l0.86351776 1.5511818l6.041994 1.036747l-7.249346 -0.17322922z" fill-rule="evenodd"/><path fill="#9e0b00" d="m-27.309711 16.976377l1.0367451 0.86351776l5.349081 -0.08661461l2.5879269 -0.69028854z" fill-rule="evenodd"/><path fill="#9e0b00" d="m-29.20735 27.38845l5.952757 0l-5.089239 -1.1207333z" fill-rule="evenodd"/><path fill="#ffffe1" d="m-11.811024 33.127296l2.391076 -0.77427673l2.2493439 0.7034111l-1.4068241 0.2125969z" fill-rule="evenodd"/><path fill="#ffffe1" d="m-12.895013 28.358267l1.2632055 -0.77427673l1.1883278 0.7034111l-0.7432251 0.2125988z" fill-rule="evenodd"/><path fill="#ffffe1" d="m-19.094488 2.853391l1.2632046 -2.2629056l1.1883297 2.055792l-0.7432251 0.6213403z" fill-rule="evenodd"/><path fill="#ffffe1" d="m-14.800525 15.826772l1.2632055 -0.77427864l1.1883278 0.70341206l-0.7432251 0.2125988z" fill-rule="evenodd"/><path fill="#ffffe1" d="m-10.481859 18.222345l-1.4793053 -0.083805084l-0.57549477 -1.2552013l0.73188305 0.24892426z" fill-rule="evenodd"/><path fill="#ffffe1" d="m-13.420861 26.762802l-2.760888 -3.0311203l-1.3275204 -3.616026l1.4089527 1.9131432z" fill-rule="evenodd"/><path fill="#9e0b00" d="m-25.055458 12.946382l5.8360825 1.1738834l-5.210499 0.09517002z" fill-rule="evenodd"/><path fill="#9e0b00" d="m-24.63517 3.312336l0.86351585 2.4173226l1.4671917 0.8635173l2.417324 0.6036744l-4.401575 -0.17322826l-0.60367584 -1.1207347l-0.17322731 -1.2099738z" fill-rule="evenodd"/><path fill="#ff8e8e" d="m13.448819 7.304462l0 0c0 -2.861444 2.2491522 -5.1811023 5.0236216 -5.1811023l0 0c1.3323479 0 2.6101265 0.5458646 3.5522366 1.5175097c0.94211197 0.9716451 1.471386 2.289479 1.471386 3.6635926l0 0c0 2.861444 -2.2491531 5.1811023 -5.0236225 5.1811023l0 0c-2.7744694 0 -5.0236216 -2.3196583 -5.0236216 -5.1811023z" fill-rule="evenodd"/><path fill="#9e0b00" d="m14.05693 6.327252l0.38218212 2.5740314l2.1710663 1.2837391l2.4930954 0.16076374l-2.2883568 0.8561468l-1.4177914 -0.24547958l-1.5415611 -0.87953854l-0.62372875 -1.7270889z" fill-rule="evenodd"/><path fill="#ff8e8e" d="m7.35958 32.946194l10.834645 -14.110235l10.834646 14.110235z" fill-rule="evenodd"/><path fill="#ff8e8e" d="m28.727034 11.015748l-10.062992 11.59055l-10.062992 -11.59055z" fill-rule="evenodd"/><path fill="#ff8e8e" d="m4.626506 38.818882l0 -2.661415l0 0c0 -1.4698601 6.127001 -2.661419 13.68504 -2.661419c7.558037 0 13.685038 1.1915588 13.685038 2.661419l0 2.661415z" fill-rule="evenodd"/><path fill="#ff8e8e" d="m6.9414997 34.68156l0 -2.661415l0 0c0 -1.469862 5.0130005 -2.661419 11.19685 -2.661419c6.1838493 0 11.19685 1.1915569 11.19685 2.661419l0 2.661415z" fill-rule="evenodd"/><path fill="#ff8e8e" d="m11.963255 19.614174l0 -1.354332l0 0c0 -0.7479763 2.883709 -1.3543301 6.4409447 -1.3543301c3.5572357 0 6.4409447 0.60635376 6.4409447 1.3543301l0 1.354332z" fill-rule="evenodd"/><path fill="#ff8e8e" d="m9.87664 22.309711l0 -1.5590553l0 0c0 -0.861042 3.772089 -1.5590553 8.425198 -1.5590553c4.6531067 0 8.425196 0.6980133 8.425196 1.5590553l0 1.5590553z" fill-rule="evenodd"/><path fill="#ff8e8e" d="m8.231235 10.635756l0 0c0 -0.71318626 0.54994965 -1.291338 1.2283468 -1.291338l0 0c0.325778 0 0.6382122 0.13605118 0.86857224 0.37822437c0.23035908 0.24217224 0.3597746 0.5706301 0.3597746 0.9131136l0 0c0 0.7131872 -0.54994965 1.2913389 -1.2283468 1.2913389l0 0c-0.6783972 0 -1.2283468 -0.5781517 -1.2283468 -1.2913389z" fill-rule="evenodd"/><path fill="#ff8e8e" d="m10.840158 11.183l0 0c0 -0.71318626 0.54994965 -1.291338 1.2283468 -1.291338l0 0c0.325778 0 0.6382122 0.13605118 0.86857224 0.37822437c0.23035908 0.24217224 0.3597746 0.5706301 0.3597746 0.9131136l0 0c0 0.7131872 -0.54994965 1.2913389 -1.2283468 1.2913389l0 0c-0.6783972 0 -1.2283468 -0.5781517 -1.2283468 -1.2913389z" fill-rule="evenodd"/><path fill="#ff8e8e" d="m26.727299 10.634443l0 0c0 -0.71318626 0.54994774 -1.291338 1.2283459 -1.291338l0 0c0.32577705 0 0.6382122 0.13605118 0.86857224 0.37822437c0.23036003 0.24217224 0.35977364 0.5706291 0.35977364 0.9131136l0 0c0 0.7131872 -0.54994965 1.2913389 -1.2283459 1.2913389l0 0c-0.67839813 0 -1.2283459 -0.5781517 -1.2283459 -1.2913389z" fill-rule="evenodd"/><path fill="#ff8e8e" d="m24.044884 10.915283l0 0c0 -0.71318626 0.54994965 -1.291338 1.2283459 -1.291338l0 0c0.32577705 0 0.6382122 0.13605118 0.86857224 0.37822437c0.23036003 0.24217224 0.35977364 0.5706291 0.35977364 0.9131136l0 0c0 0.7131872 -0.54994965 1.2913389 -1.2283459 1.2913389l0 0c-0.6783962 0 -1.2283459 -0.5781517 -1.2283459 -1.2913389z" fill-rule="evenodd"/><path fill="#ff8e8e" d="m21.362469 11.434969l0 0c0 -0.7131872 0.54994965 -1.2913389 1.2283459 -1.2913389l0 0c0.32577896 0 0.6382122 0.13605118 0.86857224 0.37822437c0.23036003 0.2421732 0.35977554 0.5706301 0.35977554 0.91311455l0 0c0 0.71318626 -0.54994965 1.291338 -1.2283478 1.291338l0 0c-0.6783962 0 -1.2283459 -0.5781517 -1.2283459 -1.291338z" fill-rule="evenodd"/><path fill="#ff8e8e" d="m13.489765 11.434969l0 0c0 -0.7131872 0.54994965 -1.2913389 1.2283468 -1.2913389l0 0c0.32577705 0 0.6382122 0.13605118 0.8685713 0.37822437c0.23036003 0.2421732 0.3597746 0.5706301 0.3597746 0.91311455l0 0c0 0.71318626 -0.54994965 1.291338 -1.2283459 1.291338l0 0c-0.6783972 0 -1.2283468 -0.5781517 -1.2283468 -1.291338z" fill-rule="evenodd"/><path fill="#ff8e8e" d="m16.102627 11.434969l0 0c0 -0.7131872 0.54994774 -1.2913389 1.2283459 -1.2913389l0 0c0.32577705 0 0.6382122 0.13605118 0.86857224 0.37822437c0.23036003 0.2421732 0.35977364 0.5706301 0.35977364 0.91311455l0 0c0 0.71318626 -0.54994965 1.291338 -1.2283459 1.291338l0 0c-0.67839813 0 -1.2283459 -0.5781517 -1.2283459 -1.291338z" fill-rule="evenodd"/><path fill="#ff8e8e" d="m18.749607 11.434969l0 0c0 -0.7131872 0.54994965 -1.2913389 1.2283478 -1.2913389l0 0c0.32577705 0 0.6382122 0.13605118 0.86857224 0.37822437c0.23035812 0.2421732 0.35977364 0.5706301 0.35977364 0.91311455l0 0c0 0.71318626 -0.54994965 1.291338 -1.2283459 1.291338l0 0c-0.67839813 0 -1.2283478 -0.5781517 -1.2283478 -1.291338z" fill-rule="evenodd"/><path fill="#9e0b00" d="m11.506561 14.322835l6.0393696 3.020997l-3.4514427 -0.17322922z" fill-rule="evenodd"/><path fill="#9e0b00" d="m19.316921 22.002625l-3.1340904 1.2099743l-2.8091993 1.984251l2.4891949 -3.1942253z" fill-rule="evenodd"/><path fill="#9e0b00" d="m7.109545 32.398357l-0.24830532 2.41708l4.865785 0.08660889l-3.95784 -0.51963425z" fill-rule="evenodd"/><path fill="#9e0b00" d="m4.882337 36.369892l0.8250909 1.288414l5.7731256 0.8611183l-6.926748 -0.14388275z" fill-rule="evenodd"/><path fill="#9e0b00" d="m12.30207 19.739218l0.8436003 0.86377525l4.3525467 -0.086639404l2.1057968 -0.69049644z" fill-rule="evenodd"/><path fill="#9e0b00" d="m9.3969965 30.557743l5.54023 0l-4.736554 -1.1207352z" fill-rule="evenodd"/><path fill="#9e0b00" d="m8.520178 10.427364l0.09319019 0.64145184l0.529686 0.31993866l0.608284 0.04009819l-0.5583525 0.21331787l-0.3459196 -0.061193466l-0.3761034 -0.219203l-0.15214348 -0.430398z" fill-rule="evenodd"/><path fill="#9e0b00" d="m11.129102 10.974608l0.09319019 0.64145184l0.529686 0.31993866l0.608284 0.04009819l-0.5583525 0.21331787l-0.3459196 -0.061193466l-0.3761034 -0.219203l-0.15214348 -0.430398z" fill-rule="evenodd"/><path fill="#9e0b00" d="m27.016241 10.426052l0.09318924 0.64145184l0.5296879 0.31993866l0.6082821 0.04009819l-0.5583515 0.21331787l-0.34592056 -0.061193466l-0.37610245 -0.219203l-0.15214348 -0.430398z" fill-rule="evenodd"/><path fill="#9e0b00" d="m24.333826 10.706892l0.09319115 0.64145184l0.529686 0.31993866l0.608284 0.04009819l-0.5583534 0.21331787l-0.34591866 -0.061193466l-0.37610435 -0.219203l-0.15214348 -0.430398z" fill-rule="evenodd"/><path fill="#9e0b00" d="m21.651411 11.226577l0.09319115 0.6414528l0.529686 0.3199377l0.608284 0.04009819l-0.5583534 0.21331787l-0.34591866 -0.061193466l-0.37610435 -0.219203l-0.15214348 -0.430398z" fill-rule="evenodd"/><path fill="#9e0b00" d="m13.778708 11.226577l0.09318924 0.6414528l0.5296869 0.3199377l0.608284 0.04009819l-0.5583534 0.21331787l-0.3459196 -0.061193466l-0.3761034 -0.219203l-0.15214348 -0.430398z" fill-rule="evenodd"/><path fill="#9e0b00" d="m16.39157 11.226577l0.09318924 0.6414528l0.5296879 0.3199377l0.6082821 0.04009819l-0.5583515 0.21331787l-0.34592056 -0.061193466l-0.37610245 -0.219203l-0.15214348 -0.430398z" fill-rule="evenodd"/><path fill="#9e0b00" d="m19.038551 11.226577l0.09318924 0.6414528l0.529686 0.3199377l0.608284 0.04009819l-0.5583534 0.21331787l-0.34591866 -0.061193466l-0.37610435 -0.219203l-0.15214348 -0.430398z" fill-rule="evenodd"/><path fill="#ffffe1" d="m25.795027 36.29687l2.284912 -0.77420044l2.1494732 0.70334244l-1.3443604 0.21257782z" fill-rule="evenodd"/><path fill="#ffffe1" d="m24.473106 31.52839l1.1235676 -0.77420044l1.0569668 0.70334053l-0.66106796 0.21257782z" fill-rule="evenodd"/><path fill="#ffffe1" d="m19.202099 5.5515537l1.2632065 -2.2629056l1.1883278 2.0557919l-0.7432251 0.6213403z" fill-rule="evenodd"/><path fill="#ffffe1" d="m22.480867 18.589138l1.0276833 -0.77450943l0.96676826 0.7036228l-0.6046524 0.21266174z" fill-rule="evenodd"/><path fill="#ffffe1" d="m25.779757 21.389841l-1.2036381 -0.08381271l-0.46822548 -1.2556362l0.5954933 0.24900055z" fill-rule="evenodd"/><path fill="#ffffe1" d="m24.090464 29.932093l-2.569643 -3.0311184l-1.2355232 -3.6160278l1.311348 1.9131432z" fill-rule="evenodd"/><path fill="#ffffe1" d="m9.6350355 10.198714l0.30820942 -0.5639076l0.28994083 0.5122957l-0.18134022 0.15483475z" fill-rule="evenodd"/><path fill="#ffffe1" d="m12.243959 10.745958l0.30820942 -0.5639076l0.28994083 0.5122957l-0.18134022 0.15483475z" fill-rule="evenodd"/><path fill="#ffffe1" d="m28.131098 10.197402l0.30821037 -0.5639076l0.28993988 0.5122957l-0.18133926 0.15483475z" fill-rule="evenodd"/><path fill="#ffffe1" d="m25.448683 10.478242l0.30821037 -0.5639076l0.28993988 0.5122957l-0.18133926 0.15483475z" fill-rule="evenodd"/><path fill="#ffffe1" d="m22.76627 10.997927l0.30820847 -0.56390667l0.2899418 0.51229477l-0.18134117 0.1548357z" fill-rule="evenodd"/><path fill="#ffffe1" d="m14.893565 10.997927l0.30821037 -0.56390667l0.28993988 0.51229477l-0.18133926 0.1548357z" fill-rule="evenodd"/><path fill="#ffffe1" d="m17.506426 10.997927l0.30821037 -0.56390667l0.28993988 0.51229477l-0.18133926 0.1548357z" fill-rule="evenodd"/><path fill="#ffffe1" d="m20.153408 10.997927l0.30821037 -0.56390667l0.28993988 0.51229477l-0.18133926 0.1548357z" fill-rule="evenodd"/></g></svg>