<svg version="1.1" viewBox="0.0 0.0 38.3989501312336 38.3989501312336" fill="none" stroke="none" stroke-linecap="square" stroke-miterlimit="10" xmlns:xlink="http://www.w3.org/1999/xlink" xmlns="http://www.w3.org/2000/svg"><clipPath id="p.0"><path d="m0 0l38.39895 0l0 38.39895l-38.39895 0l0 -38.39895z" clip-rule="nonzero"/></clipPath><g clip-path="url(#p.0)"><path fill="#000000" fill-opacity="0.0" d="m0 0l38.39895 0l0 38.39895l-38.39895 0z" fill-rule="evenodd"/><path fill="#000000" d="m-20.950167 11.049662l5.984251 -1.5748024l4.4724407 17.700787l-5.984251 1.5748043z" fill-rule="evenodd"/><path fill="#000000" d="m-14.186875 12.570703l0 0c-1.7592545 0.8277464 -3.9847631 0.68852043 -5.6739397 -0.35495758c-1.6891766 -1.043477 -2.5232449 -2.7942858 -2.126461 -4.463689c0.39678383 -1.6694031 1.949543 -2.9423585 3.9587612 -3.2454019l0.9627514 3.6021276l0 0c-0.5764103 -0.031198502 -1.064209 0.08425331 -1.2577744 0.29768753c-0.19356728 0.21343517 -0.059223175 0.48772144 0.3463974 0.70723915c0.40562248 0.21951675 1.0119572 0.34607506 1.5634117 0.32632542z" fill-rule="evenodd"/><path fill="#665628" d="m50.630863 8.214272l2.5196838 0.44094563l-0.50393677 4.2204723l-2.5196838 -0.44094563z" fill-rule="evenodd"/><path fill="#000000" d="m-20.23097 70.39895l0 -5.795273l0 0c0 -3.2006454 3.327898 -5.7952766 7.43307 -5.7952766c4.105171 0 7.4330707 2.5946312 7.4330707 5.7952766l0 5.795273z" fill-rule="evenodd"/><path fill="#000000" d="m-22.086842 39.816185c2.745327 -4.527153 8.114007 -6.770298 12.7967 -5.3467255c4.6826916 1.4235725 7.3615017 6.1132126 6.385167 11.178146c-0.97633433 5.0649376 -5.3330345 9.0797 -10.384559 9.569519l0.016105652 -3.6120415l0 0c3.2898722 -0.49220657 6.1362166 -3.2381172 6.810611 -6.5702934c0.67439413 -3.33218 -1.0092444 -6.331196 -4.0285378 -7.175915c-3.0192938 -0.84471893 -6.5411425 0.6979332 -8.42693 3.6911964z" fill-rule="evenodd"/><path fill="#000000" d="m-18.844015 41.475296l4.8503933 3.1496086l-3.9055119 5.795273l-4.8503933 -3.1496048z" fill-rule="evenodd"/><path fill="#000000" d="m-20.293962 59.93176l0 -3.464569l0 0c0 -1.9134254 3.3561 -3.4645653 7.4960623 -3.4645653c4.1399612 0 7.4960628 1.5511398 7.4960628 3.4645653l0 3.464569z" fill-rule="evenodd"/><path fill="#ffefc1" d="m-11.097305 6.1443567l-0.71740913 0.78754044l-0.7174101 0.19688511l0.5285435 0.62885666l0.45384312 0.7096672l0.26356697 -0.6303258l0.793519 -0.23655558l-0.793519 -0.23655605z" fill-rule="evenodd"/><path fill="#665628" d="m48.955746 11.355735l2.7086601 -0.18897629l0.75590515 5.92126l-2.7086601 0.18897629z" fill-rule="evenodd"/><path fill="#665628" d="m50.062992 14.289911l3.0551186 -0.094488144l0.15748215 1.7007875l-3.0551186 0.094488144z" fill-rule="evenodd"/><path fill="#665628" d="m-32.65442 5.499535c0.79483986 0.36220503 0.68372726 0.77952766 0.1679802 2.3412075c-0.5157471 1.5616794 -2.7047234 5.0349956 -3.2624664 7.028871c-0.5577431 1.9938755 -0.40463638 3.77734 -0.083992004 4.9343834c0.3206482 1.1570435 0.9759407 1.4501305 2.0078735 2.0078735c1.0319366 0.5577431 2.9151382 1.2825909 4.183729 1.338583c1.2685909 0.055994034 2.4938755 -0.5564308 3.427822 -1.0026245c0.9339447 -0.4461937 1.645668 -0.8377075 2.1758518 -1.6745415c0.5301838 -0.83683205 1.019247 -2.3845139 1.005249 -3.3464565c-0.013998032 -0.96194077 -0.57305336 0.4190731 -1.0892391 -2.4251957c-0.51618385 -2.8442698 -0.75328064 -11.893702 -2.0078735 -14.64042c-1.2545929 -2.7467191 -4.571741 -2.1189852 -5.519684 -1.839895c-0.94794655 0.27909017 0.8779526 2.9706912 -0.1679802 3.5144358c-1.0459309 0.54374456 -5.2012234 -0.9072616 -6.1076107 -0.2519685c-0.9063873 0.6552931 -0.20909882 3.5144358 0.66929245 4.1837273c0.87838745 0.669291 3.8062096 -0.5301838 4.6010475 -0.16797924z" fill-rule="evenodd"/><path fill="#665628" d="m-24.984251 29.973854l0 1.3228359l0 0c0 0.7305813 -3.3279 1.3228321 -7.433073 1.3228321c-4.105171 0 -7.433071 -0.5922508 -7.433071 -1.3228321l0 -1.3228359z" fill-rule="evenodd"/><path fill="#665628" d="m-39.850395 30.77952l0 -1.1496067l0 0c0 -0.6349087 3.3279 -1.1496048 7.433071 -1.1496048c4.105173 0 7.433073 0.5146961 7.433073 1.1496048l0 1.1496067z" fill-rule="evenodd"/><path fill="#9e0b00" d="m9.729279 35.815067l0 -1.7007866l0 0c0 -0.9393196 3.9342537 -1.7007866 8.787401 -1.7007866c4.8531475 0 8.787401 0.761467 8.787401 1.7007866l0 1.7007866z" fill-rule="evenodd"/><path fill="#9e0b00" d="m9.729279 39.14698l0 -2.2519684l0 0c0 -1.2437248 3.9342537 -2.2519684 8.787401 -2.2519684c4.8531475 0 8.787401 1.0082436 8.787401 2.2519684l0 2.2519684z" fill-rule="evenodd"/><path fill="#9e0b00" d="m12.243592 32.08096l0 -1.1754951l0 0c0 -0.64920616 2.8060846 -1.1754913 6.2675657 -1.1754913c3.461481 0 6.267565 0.5262852 6.267565 1.1754913l0 1.1754951z" fill-rule="evenodd"/><path fill="#9e0b00" d="m24.778723 31.141287l0 1.0166416l0 0c0 0.56147766 -2.8060837 1.0166435 -6.267565 1.0166435c-3.461481 0 -6.2675657 -0.45516586 -6.2675657 -1.0166435l0 -1.0166416z" fill-rule="evenodd"/><path fill="#530601" d="m20.811598 24.106073l3.2283478 0l0 0c1.7829666 0 3.2283459 1.4242268 3.2283459 3.1811028c0 1.7568741 -1.4453793 3.1811008 -3.2283459 3.1811008l-3.2283478 0z" fill-rule="evenodd"/><path fill="#9e0b00" d="m21.377247 2.1417518l0 0c0 -0.5392494 0.43714905 -0.9763974 0.97639847 -0.9763974l3.9054718 0l0 0c0.2589569 0 0.50730705 0.10287011 0.69041824 0.2859801c0.18310928 0.18311012 0.28598022 0.43146062 0.28598022 0.6904173l0 24.503897c0 0.5392494 -0.43714905 0.97639847 -0.97639847 0.97639847l-3.9054718 0c-0.5392494 0 -0.97639847 -0.43714905 -0.97639847 -0.97639847z" fill-rule="evenodd"/><path fill="#530601" d="m17.445232 12.243435l0 0c0.20015144 -0.3286953 0.63033485 -0.43533897 0.96084213 -0.23819351l2.3936768 1.4278069l0 0c0.1587162 0.0946722 0.27274895 0.24817085 0.3170128 0.42672825c0.044265747 0.17855644 0.015134811 0.36754608 -0.0809803 0.5253916l-6.5822763 10.809687c-0.20015049 0.3286953 -0.63033485 0.43533897 -0.96084213 0.23819351l-2.3936768 -1.4278069c-0.33050823 -0.19714546 -0.43618298 -0.62342453 -0.23603249 -0.9521198z" fill-rule="evenodd"/><path fill="#530601" d="m15.410817 20.160742l0 0c0 -0.8030758 0.651021 -1.4540977 1.4540968 -1.4540977l5.8162155 0l0 0c0.38565063 0 0.7555046 0.15320015 1.028202 0.4258957c0.27269554 0.27269554 0.42589378 0.6425514 0.42589378 1.028202l0 8.776844c0 0.8030758 -0.65102005 1.4540977 -1.4540958 1.4540977l-5.8162155 0c-0.8030758 0 -1.4540968 -0.65102196 -1.4540968 -1.4540977z" fill-rule="evenodd"/><path fill="#9e0b00" d="m18.510262 10.055892l0 0c0 -0.59433365 0.481802 -1.0761366 1.0761356 -1.0761366l4.3044205 0l0 0c0.28540802 0 0.5591278 0.113378525 0.76094246 0.31519318c0.20181465 0.20181465 0.31519318 0.47553444 0.31519318 0.7609434l0 8.209931c0 0.59433365 -0.481802 1.0761375 -1.0761356 1.0761375l-4.3044205 0c-0.59433365 0 -1.0761356 -0.4818039 -1.0761356 -1.0761375z" fill-rule="evenodd"/><path fill="#530601" d="m17.205395 30.49829l-3.7480316 0l0 0c-2.0699806 0 -3.7480307 -1.9248219 -3.7480307 -4.2992115c0 -2.3743896 1.67805 -4.2992134 3.7480307 -4.2992134l3.7480316 0z" fill-rule="evenodd"/><path fill="#530601" d="m21.377247 11.5823765l0 0c0 -0.5392494 0.43714905 -0.9763975 0.97639847 -0.9763975l3.9054718 0l0 0c0.2589569 0 0.50730705 0.10286999 0.69041824 0.28598022c0.18310928 0.18311024 0.28598022 0.43146038 0.28598022 0.6904173l0 15.905474c0 0.5392494 -0.43714905 0.97639656 -0.97639847 0.97639656l-3.9054718 0c-0.5392494 0 -0.97639847 -0.43714714 -0.97639847 -0.97639656z" fill-rule="evenodd"/><path fill="#9e0b00" d="m24.385607 19.843687c1.4850101 2.0698624 0.69301224 4.934965 -1.8155289 6.5677757c-2.508541 1.6328106 -5.883354 1.4798889 -7.736203 -0.3505478c-1.852849 -1.8304367 -1.5557127 -4.7179623 0.6811371 -6.619179l1.3128061 1.1007347c-1.6805134 1.2226315 -1.9956827 3.12574 -0.7158718 4.3226967c1.27981 1.1969566 3.7030067 1.2654037 5.504015 0.15546799c1.8010101 -1.1099339 2.344328 -3.0065994 1.2340851 -4.308058z" fill-rule="evenodd"/><path fill="#9e0b00" d="m18.655256 12.282199c-0.6255245 0.7628269 -1.5304947 3.1653748 -2.2717228 4.674733c-0.7412281 1.5093575 -1.7474394 3.3751774 -2.1756468 4.3814144c-0.42820835 1.0062389 -0.55837536 0.77963257 -0.39360046 1.6560173c0.1647749 0.87638474 0.7071371 2.872057 1.3822489 3.602293c0.6751118 0.73023605 1.6802902 0.68185997 2.6684227 0.7791233c0.9881325 0.09726143 2.2231674 0.12883377 3.2603722 -0.1955452c1.0372028 -0.32437897 2.0408306 -0.64723206 2.9628468 -1.7507324c0.92201614 -1.1035023 2.0919685 -1.1534061 2.5692463 -4.8702774c0.47727966 -3.7168713 0.41012955 -14.639347 0.29442596 -17.430946c-0.11570358 -2.7915993 -0.6430874 -0.48682404 -0.98864937 0.68135c-0.34556198 1.1681738 -0.26188278 5.2078958 -1.0847244 6.3276935c-0.82283974 1.1197968 -3.0620213 0.017313004 -3.8523216 0.3910885c-0.79029846 0.37377453 -0.49432373 1.5592623 -0.88947296 1.8515606c-0.39514923 0.29229832 -0.8558998 -0.86059856 -1.4814243 -0.0977726z" fill-rule="evenodd"/><path fill="#530601" d="m11.145725 35.893494l0.88954926 0.5222168l7.8044777 0.17498398l3.459015 0.0874939l2.7647305 -0.5222168z" fill-rule="evenodd"/><path fill="#530601" d="m14.01271 32.929825l2.3710985 0.87218475l1.8751831 -0.17498398l3.1614647 0.17498398l1.9774647 -1.0444336z" fill-rule="evenodd"/><path fill="#9e0b00" d="m42.392387 -0.619422l5.7952766 -0.0944882l0 25.574804l-5.7952766 0.094488144z" fill-rule="evenodd"/><path fill="#530601" d="m42.866142 30.821522l7.4199486 3.36483l1.2099724 1.5538063l-8.456692 0z" fill-rule="evenodd"/><path fill="#9e0b00" d="m11.183175 5.652903l0 0c0 -0.6552167 0.53115845 -1.1863751 1.1863756 -1.1863751l12.871344 0c0.31464577 0 0.6164055 0.12499285 0.8388939 0.34748125c0.2224884 0.2224884 0.34748077 0.52424765 0.34748077 0.8388939l0 4.74536c0 0.6552172 -0.53115845 1.1863747 -1.1863747 1.1863747l-12.871344 0c-0.6552172 0 -1.1863756 -0.5311575 -1.1863756 -1.1863747z" fill-rule="evenodd"/><path fill="#fffbee" d="m20.13102 7.8129168l0 0c0 -0.8436475 0.7191639 -1.5275588 1.6062984 -1.5275588l0 0c0.42601776 0 0.8345871 0.16093874 1.1358261 0.44741154c0.301239 0.2864728 0.47047424 0.67501354 0.47047424 1.0801473l0 0c0 0.84364796 -0.7191658 1.5275593 -1.6063004 1.5275593l0 0c-0.88713455 0 -1.6062984 -0.6839113 -1.6062984 -1.5275593z" fill-rule="evenodd"/></g></svg>