<svg version="1.1" viewBox="0.0 0.0 38.3989501312336 38.3989501312336" fill="none" stroke="none" stroke-linecap="square" stroke-miterlimit="10" xmlns:xlink="http://www.w3.org/1999/xlink" xmlns="http://www.w3.org/2000/svg"><clipPath id="p.0"><path d="m0 0l38.39895 0l0 38.39895l-38.39895 0l0 -38.39895z" clip-rule="nonzero"/></clipPath><g clip-path="url(#p.0)"><path fill="#000000" fill-opacity="0.0" d="m0 0l38.39895 0l0 38.39895l-38.39895 0z" fill-rule="evenodd"/><path fill="#000000" d="m-20.950167 11.049662l5.984251 -1.5748024l4.4724407 17.700787l-5.984251 1.5748043z" fill-rule="evenodd"/><path fill="#000000" d="m-14.186875 12.570703l0 0c-1.7592545 0.8277464 -3.9847631 0.68852043 -5.6739397 -0.35495758c-1.6891766 -1.043477 -2.5232449 -2.7942858 -2.126461 -4.463689c0.39678383 -1.6694031 1.949543 -2.9423585 3.9587612 -3.2454019l0.9627514 3.6021276l0 0c-0.5764103 -0.031198502 -1.064209 0.08425331 -1.2577744 0.29768753c-0.19356728 0.21343517 -0.059223175 0.48772144 0.3463974 0.70723915c0.40562248 0.21951675 1.0119572 0.34607506 1.5634117 0.32632542z" fill-rule="evenodd"/><path fill="#665628" d="m50.630863 8.214272l2.5196838 0.44094563l-0.50393677 4.2204723l-2.5196838 -0.44094563z" fill-rule="evenodd"/><path fill="#000000" d="m-20.23097 70.39895l0 -5.795273l0 0c0 -3.2006454 3.327898 -5.7952766 7.43307 -5.7952766c4.105171 0 7.4330707 2.5946312 7.4330707 5.7952766l0 5.795273z" fill-rule="evenodd"/><path fill="#000000" d="m-22.086842 39.816185c2.745327 -4.527153 8.114007 -6.770298 12.7967 -5.3467255c4.6826916 1.4235725 7.3615017 6.1132126 6.385167 11.178146c-0.97633433 5.0649376 -5.3330345 9.0797 -10.384559 9.569519l0.016105652 -3.6120415l0 0c3.2898722 -0.49220657 6.1362166 -3.2381172 6.810611 -6.5702934c0.67439413 -3.33218 -1.0092444 -6.331196 -4.0285378 -7.175915c-3.0192938 -0.84471893 -6.5411425 0.6979332 -8.42693 3.6911964z" fill-rule="evenodd"/><path fill="#000000" d="m-18.844015 41.475296l4.8503933 3.1496086l-3.9055119 5.795273l-4.8503933 -3.1496048z" fill-rule="evenodd"/><path fill="#000000" d="m-20.293962 59.93176l0 -3.464569l0 0c0 -1.9134254 3.3561 -3.4645653 7.4960623 -3.4645653c4.1399612 0 7.4960628 1.5511398 7.4960628 3.4645653l0 3.464569z" fill-rule="evenodd"/><path fill="#ffefc1" d="m-11.097305 6.1443567l-0.71740913 0.78754044l-0.7174101 0.19688511l0.5285435 0.62885666l0.45384312 0.7096672l0.26356697 -0.6303258l0.793519 -0.23655558l-0.793519 -0.23655605z" fill-rule="evenodd"/><path fill="#665628" d="m48.955746 11.355735l2.7086601 -0.18897629l0.75590515 5.92126l-2.7086601 0.18897629z" fill-rule="evenodd"/><path fill="#665628" d="m50.062992 14.289911l3.0551186 -0.094488144l0.15748215 1.7007875l-3.0551186 0.094488144z" fill-rule="evenodd"/><path fill="#665628" d="m-32.65442 5.499535c0.79483986 0.36220503 0.68372726 0.77952766 0.1679802 2.3412075c-0.5157471 1.5616794 -2.7047234 5.0349956 -3.2624664 7.028871c-0.5577431 1.9938755 -0.40463638 3.77734 -0.083992004 4.9343834c0.3206482 1.1570435 0.9759407 1.4501305 2.0078735 2.0078735c1.0319366 0.5577431 2.9151382 1.2825909 4.183729 1.338583c1.2685909 0.055994034 2.4938755 -0.5564308 3.427822 -1.0026245c0.9339447 -0.4461937 1.645668 -0.8377075 2.1758518 -1.6745415c0.5301838 -0.83683205 1.019247 -2.3845139 1.005249 -3.3464565c-0.013998032 -0.96194077 -0.57305336 0.4190731 -1.0892391 -2.4251957c-0.51618385 -2.8442698 -0.75328064 -11.893702 -2.0078735 -14.64042c-1.2545929 -2.7467191 -4.571741 -2.1189852 -5.519684 -1.839895c-0.94794655 0.27909017 0.8779526 2.9706912 -0.1679802 3.5144358c-1.0459309 0.54374456 -5.2012234 -0.9072616 -6.1076107 -0.2519685c-0.9063873 0.6552931 -0.20909882 3.5144358 0.66929245 4.1837273c0.87838745 0.669291 3.8062096 -0.5301838 4.6010475 -0.16797924z" fill-rule="evenodd"/><path fill="#665628" d="m-24.984251 29.973854l0 1.3228359l0 0c0 0.7305813 -3.3279 1.3228321 -7.433073 1.3228321c-4.105171 0 -7.433071 -0.5922508 -7.433071 -1.3228321l0 -1.3228359z" fill-rule="evenodd"/><path fill="#665628" d="m-39.850395 30.77952l0 -1.1496067l0 0c0 -0.6349087 3.3279 -1.1496048 7.433071 -1.1496048c4.105173 0 7.433073 0.5146961 7.433073 1.1496048l0 1.1496067z" fill-rule="evenodd"/><path fill="#9e0b00" d="m9.728609 35.982l0 -1.6220474l0 0c0 -0.89583206 3.9342537 -1.6220474 8.787401 -1.6220474c4.8531475 0 8.787401 0.72621536 8.787401 1.6220474l0 1.6220474z" fill-rule="evenodd"/><path fill="#9e0b00" d="m9.728609 39.14698l0 -2.1417313l0 0c0 -1.1828461 3.9342537 -2.1417313 8.787401 -2.1417313c4.8531475 0 8.787401 0.9588852 8.787401 2.1417313l0 2.1417313z" fill-rule="evenodd"/><path fill="#9e0b00" d="m12.243574 32.435608l0 -1.116642l0 0c0 -0.61670494 2.8064175 -1.116642 6.2683086 -1.116642c3.4618912 0 6.2683086 0.49993706 6.2683086 1.116642l0 1.116642z" fill-rule="evenodd"/><path fill="#9e0b00" d="m24.780191 31.54298l0 0.965744l0 0c0 0.53336716 -2.8064175 0.96574783 -6.2683086 0.96574783c-3.4618912 0 -6.2683086 -0.43238068 -6.2683086 -0.96574783l0 -0.965744z" fill-rule="evenodd"/><path fill="#530601" d="m20.81159 24.859625l3.2283478 0l0 0c1.7829666 0 3.2283459 1.3537216 3.2283459 3.0236225c0 1.6699009 -1.4453793 3.0236225 -3.2283459 3.0236225l-3.2283478 0z" fill-rule="evenodd"/><path fill="#9e0b00" d="m21.377953 3.9370275l0 0c0 -0.5392494 0.43714905 -0.9763975 0.97639847 -0.9763975l3.9054718 0l0 0c0.2589569 0 0.50730705 0.102870226 0.69041824 0.28598022c0.18310928 0.18311 0.28598022 0.43146062 0.28598022 0.6904173l0 23.275553c0 0.5392494 -0.43714905 0.97639656 -0.97639847 0.97639656l-3.9054718 0c-0.5392494 0 -0.97639847 -0.43714714 -0.97639847 -0.97639656z" fill-rule="evenodd"/><path fill="#530601" d="m17.435745 13.605959l0 0c0.20528793 -0.32031918 0.6396351 -0.4272232 0.97014236 -0.2387762l2.3936768 1.3648167l0 0c0.1587162 0.09049511 0.27176857 0.23838997 0.3142891 0.41114998c0.042520523 0.17275906 0.011024475 0.35623074 -0.08755684 0.51005363l-6.563675 10.241595c-0.20528793 0.32032013 -0.63963604 0.4272232 -0.9701433 0.23877525l-2.3936768 -1.3648148c-0.33050823 -0.18844795 -0.43201828 -0.6008854 -0.2267313 -0.9212055z" fill-rule="evenodd"/><path fill="#530601" d="m15.410486 21.184807l0 0c0 -0.8030758 0.65102196 -1.4540977 1.4540977 -1.4540977l5.8162155 0l0 0c0.38565063 0 0.7555046 0.15320015 1.028202 0.4258957c0.27269554 0.27269554 0.42589378 0.6425514 0.42589378 1.028202l0 8.178419c0 0.8030758 -0.65102005 1.4540977 -1.4540958 1.4540977l-5.8162155 0c-0.8030758 0 -1.4540977 -0.65102196 -1.4540977 -1.4540977z" fill-rule="evenodd"/><path fill="#9e0b00" d="m18.510117 11.567276l0 0c0 -0.59433365 0.481802 -1.0761366 1.0761356 -1.0761366l4.3044205 0l0 0c0.28540802 0 0.5591278 0.113378525 0.76094246 0.31519318c0.20181465 0.20181465 0.31519318 0.47553444 0.31519318 0.7609434l0 7.7059937c0 0.59433365 -0.481802 1.0761375 -1.0761356 1.0761375l-4.3044205 0c-0.59433365 0 -1.0761356 -0.4818039 -1.0761356 -1.0761375z" fill-rule="evenodd"/><path fill="#530601" d="m17.205172 30.931591l-3.7480307 0l0 0c-2.0699806 0 -3.7480316 -1.8261147 -3.7480316 -4.078739c0 -2.2526264 1.678051 -4.078741 3.7480316 -4.078741l3.7480307 0z" fill-rule="evenodd"/><path fill="#530601" d="m21.377274 13.012286l0 0c0 -0.5392494 0.43714714 -0.9763975 0.97639656 -0.9763975l3.9054737 0l0 0c0.2589569 0 0.50730705 0.10286999 0.69041634 0.28598022c0.18311119 0.18311024 0.28598022 0.43146038 0.28598022 0.6904173l0 15.023583c0 0.5392494 -0.43714714 0.97639656 -0.97639656 0.97639656l-3.9054737 0c-0.5392494 0 -0.97639656 -0.43714714 -0.97639656 -0.97639656z" fill-rule="evenodd"/><path fill="#9e0b00" d="m24.335201 20.74395c1.546135 1.9592915 0.78136826 4.719139 -1.7449226 6.2969723c-2.526289 1.5778351 -5.9399548 1.4276924 -7.788748 -0.34256935c-1.848793 -1.7702599 -1.4929943 -4.5480957 0.8118038 -6.3380127l1.2710476 1.0638962c-1.7823839 1.1525497 -2.1677694 2.9942303 -0.8694782 4.155054c1.2982922 1.1608238 3.8087616 1.2192173 5.663927 0.13174248c1.8551674 -1.0874748 2.3812904 -2.9258785 1.1870003 -4.147669z" fill-rule="evenodd"/><path fill="#9e0b00" d="m18.655243 13.628325c-0.625576 0.7246227 -1.5306244 3.0068464 -2.2719154 4.4406137c-0.7412901 1.4337673 -1.7475863 3.2061424 -2.1758308 4.1619873c-0.42824364 0.9558449 -0.5584221 0.74058723 -0.3936329 1.5730801c0.16478825 0.83249474 0.70719624 2.728222 1.3823652 3.4218864c0.675169 0.69366455 1.6804323 0.6477089 2.6686487 0.74010086c0.9882164 0.09239197 2.2233562 0.12238312 3.2606468 -0.18575096c1.0372925 -0.30813408 2.0410042 -0.61481667 2.9630985 -1.6630535c0.92209435 -1.0482368 2.092146 -1.0956421 2.5694656 -4.6263657c0.4773178 -3.5307236 0.41016388 -13.906184 0.29444885 -16.557976c-0.11571312 -2.6517916 -0.6431408 -0.46244287 -0.9887314 0.6472268c-0.3455925 1.1096697 -0.26190567 4.9470763 -1.084816 6.0107923c-0.8229122 1.0637159 -3.0622826 0.016447067 -3.8526478 0.37150192c-0.7903671 0.3550558 -0.4943676 1.4811726 -0.88954926 1.758832c-0.39518356 0.27765942 -0.8559723 -0.81749916 -1.4815502 -0.09287548z" fill-rule="evenodd"/><path fill="#530601" d="m11.14514 36.056496l0.88962555 0.49604797l7.8051395 0.16621399l3.4593067 0.08311081l2.764965 -0.4960518z" fill-rule="evenodd"/><path fill="#530601" d="m14.012297 33.241302l2.3712997 0.82847977l1.8753395 -0.16621399l3.1617336 0.16621399l1.9776325 -0.99209595z" fill-rule="evenodd"/><path fill="#9e0b00" d="m42.392387 -0.619422l5.7952766 -0.0944882l0 25.574804l-5.7952766 0.094488144z" fill-rule="evenodd"/><path fill="#530601" d="m42.866142 30.821522l7.4199486 3.36483l1.2099724 1.5538063l-8.456692 0z" fill-rule="evenodd"/><path fill="#9e0b00" d="m11.183727 6.8897877l0 0c0 -0.67841053 0.54996014 -1.2283711 1.2283707 -1.2283711l12.7873535 0c0.32578278 0 0.63822365 0.12941742 0.8685894 0.35978174c0.23036385 0.23036385 0.35978127 0.5428052 0.35978127 0.8685894l0 4.9133368c0 0.67841053 -0.5499611 1.2283707 -1.2283707 1.2283707l-12.7873535 0c-0.67841053 0 -1.2283707 -0.54996014 -1.2283707 -1.2283707z" fill-rule="evenodd"/><path fill="#c9deff" d="m19.146982 8.771653l0 0c0 -0.7305813 0.5569992 -1.3228345 1.2440948 -1.3228345l0 0c0.32995415 0 0.6463928 0.13936996 0.87970734 0.38744974c0.2333126 0.2480793 0.3643856 0.584548 0.3643856 0.93538475l0 0c0 0.73058224 -0.5569992 1.322835 -1.244093 1.322835l0 0c-0.68709564 0 -1.2440948 -0.59225273 -1.2440948 -1.322835z" fill-rule="evenodd"/></g></svg>