<svg version="1.1" viewBox="0.0 0.0 38.3989501312336 38.3989501312336" fill="none" stroke="none" stroke-linecap="square" stroke-miterlimit="10" xmlns:xlink="http://www.w3.org/1999/xlink" xmlns="http://www.w3.org/2000/svg"><clipPath id="p.0"><path d="m0 0l38.39895 0l0 38.39895l-38.39895 0l0 -38.39895z" clip-rule="nonzero"/></clipPath><g clip-path="url(#p.0)"><path fill="#000000" fill-opacity="0.0" d="m0 0l38.39895 0l0 38.39895l-38.39895 0z" fill-rule="evenodd"/><path fill="#e35353" d="m-11.060315 11.009847l0 0c-0.39927578 -3.2950792 0.4786482 -6.6295223 2.3759232 -9.023994c1.8972754 -2.3944716 4.598491 -3.5771112 7.3102927 -3.2005744l-0.60299027 6.468246l0 0c-0.7105938 -0.22379017 -1.4373056 0.17464972 -1.965067 1.0774031c-0.5277617 0.90275335 -0.7961261 2.2064228 -0.725672 3.5251932z" fill-rule="evenodd"/><path fill="#000000" d="m-20.950167 11.049662l5.984251 -1.5748024l4.4724407 17.700787l-5.984251 1.5748043z" fill-rule="evenodd"/><path fill="#000000" d="m-14.186875 12.570703l0 0c-1.7592545 0.8277464 -3.9847631 0.68852043 -5.6739397 -0.35495758c-1.6891766 -1.043477 -2.5232449 -2.7942858 -2.126461 -4.463689c0.39678383 -1.6694031 1.949543 -2.9423585 3.9587612 -3.2454019l0.9627514 3.6021276l0 0c-0.5764103 -0.031198502 -1.064209 0.08425331 -1.2577744 0.29768753c-0.19356728 0.21343517 -0.059223175 0.48772144 0.3463974 0.70723915c0.40562248 0.21951675 1.0119572 0.34607506 1.5634117 0.32632542z" fill-rule="evenodd"/><path fill="#665628" d="m49.64878 10.886794l0 0c1.5573196 -3.4636006 4.8216705 -5.7147293 8.084633 -5.5752463c3.2629662 0.13948345 5.781727 2.637825 6.2380753 6.1875043c0.45635223 3.5496798 -1.2535973 7.3426094 -4.234932 9.39374l-0.9949379 -2.1085777c2.0168266 -1.5822124 3.1622086 -4.3544636 2.843647 -6.8827c-0.31855774 -2.5282364 -2.029602 -4.2453594 -4.248024 -4.26312c-2.2184258 -0.017760277 -4.4466248 1.6678252 -5.531975 4.1848226z" fill-rule="evenodd"/><path fill="#665628" d="m50.630863 8.214272l2.5196838 0.44094563l-0.50393677 4.2204723l-2.5196838 -0.44094563z" fill-rule="evenodd"/><path fill="#000000" d="m43.769028 70.39895l0 -5.795273l0 0c0 -3.2006454 3.3279 -5.7952766 7.433071 -5.7952766c4.105171 0 7.433071 2.5946312 7.433071 5.7952766l0 5.795273z" fill-rule="evenodd"/><path fill="#000000" d="m40.759476 38.307823l0 0c2.69796 -4.9908295 8.716713 -7.2067413 14.205917 -5.2301636c5.4892006 1.9765778 8.82589 7.561241 7.8755074 13.181347c-0.95038605 5.6201057 -5.906849 9.613987 -11.69862 9.426662l0.020843506 -4.141819l0 0c3.7557716 0.17958069 6.9664993 -2.3606796 7.5688705 -5.988331c0.60237503 -3.6276512 -1.5827904 -7.2636147 -5.1512413 -8.571308c-3.568447 -1.3076935 -7.4587097 0.101867676 -9.170784 3.322857z" fill-rule="evenodd"/><path fill="#000000" d="m46.63149 38.755486l3.6535416 5.0393715l-8.818897 6.1102333l-3.6535416 -5.0393677z" fill-rule="evenodd"/><path fill="#000000" d="m43.706036 59.93176l0 -3.464569l0 0c0 -1.9134254 3.356102 -3.4645653 7.496063 -3.4645653c4.1399612 0 7.496063 1.5511398 7.496063 3.4645653l0 3.464569z" fill-rule="evenodd"/><path fill="#000000" d="m-20.23097 70.39895l0 -5.795273l0 0c0 -3.2006454 3.327898 -5.7952766 7.43307 -5.7952766c4.105171 0 7.4330707 2.5946312 7.4330707 5.7952766l0 5.795273z" fill-rule="evenodd"/><path fill="#000000" d="m-22.086842 39.816185c2.745327 -4.527153 8.114007 -6.770298 12.7967 -5.3467255c4.6826916 1.4235725 7.3615017 6.1132126 6.385167 11.178146c-0.97633433 5.0649376 -5.3330345 9.0797 -10.384559 9.569519l0.016105652 -3.6120415l0 0c3.2898722 -0.49220657 6.1362166 -3.2381172 6.810611 -6.5702934c0.67439413 -3.33218 -1.0092444 -6.331196 -4.0285378 -7.175915c-3.0192938 -0.84471893 -6.5411425 0.6979332 -8.42693 3.6911964z" fill-rule="evenodd"/><path fill="#000000" d="m-18.844015 41.475296l4.8503933 3.1496086l-3.9055119 5.795273l-4.8503933 -3.1496048z" fill-rule="evenodd"/><path fill="#000000" d="m-20.293962 59.93176l0 -3.464569l0 0c0 -1.9134254 3.3561 -3.4645653 7.4960623 -3.4645653c4.1399612 0 7.4960628 1.5511398 7.4960628 3.4645653l0 3.464569z" fill-rule="evenodd"/><path fill="#665628" d="m51.639282 14.54119l0 0c-0.14946747 -3.277954 1.9551697 -6.436741 4.7751465 -7.1668825c2.8199806 -0.7301421 5.355488 1.227232 5.752739 4.4410305c0.39725113 3.2137995 -1.4845924 6.5445747 -4.2696686 7.557106l-0.2600174 -1.585949l0 0c1.9640427 -0.88789177 3.3014755 -3.3951273 3.0589447 -5.734481c-0.24252701 -2.3393536 -1.9819946 -3.7099447 -3.9784546 -3.134781c-1.9964638 0.57516384 -3.566433 2.8991756 -3.5907936 5.3154182z" fill-rule="evenodd"/><path fill="#665628" d="m46.63778 11.966215l0 0c0.59342957 -5.079205 4.894718 -9.193394 10.071587 -9.633488c5.1768646 -0.44009364 9.638283 2.9291644 10.446526 7.8892107c0.8082504 4.960047 -2.2850723 9.986489 -7.243103 11.769553l-1.0531731 -3.3590374l0 0c3.1727333 -1.2059078 5.153263 -4.4880104 4.645298 -7.6981163c-0.5079613 -3.210106 -3.3495636 -5.369596 -6.6649284 -5.0650454c-3.315361 0.30455017 -6.0937767 2.9802961 -6.5167236 6.275916z" fill-rule="evenodd"/><path fill="#ffefc1" d="m-11.097305 6.1443567l-0.71740913 0.78754044l-0.7174101 0.19688511l0.5285435 0.62885666l0.45384312 0.7096672l0.26356697 -0.6303258l0.793519 -0.23655558l-0.793519 -0.23655605z" fill-rule="evenodd"/><path fill="#665628" d="m48.955746 11.355735l2.7086601 -0.18897629l0.75590515 5.92126l-2.7086601 0.18897629z" fill-rule="evenodd"/><path fill="#665628" d="m61.748577 33.448784l0 0c-3.3655891 -1.7505951 -5.8400993 -4.677969 -6.6040993 -7.8127193c-0.7639961 -3.1347485 0.2822075 -6.067848 2.7921638 -7.827997l3.557293 3.5238647l0 0c-1.3396072 0.61463165 -1.838089 1.9291649 -1.3230286 3.4889145c0.5150604 1.5597496 1.9729385 3.150526 3.8693619 4.22209z" fill-rule="evenodd"/><path fill="#665628" d="m50.062992 14.289911l3.0551186 -0.094488144l0.15748215 1.7007875l-3.0551186 0.094488144z" fill-rule="evenodd"/><path fill="#ff8e8e" d="m10.12231 36.33108l0 -1.5905533l0 0c0 -0.87843704 3.9342537 -1.5905495 8.787402 -1.5905495c4.8531475 0 8.787401 0.7121124 8.787401 1.5905495l0 1.5905533z" fill-rule="evenodd"/><path fill="#ff8e8e" d="m10.12231 39.45669l0 -2.1102333l0 0c0 -1.1654549 3.9342537 -2.1102371 8.787402 -2.1102371c4.8531475 0 8.787401 0.94478226 8.787401 2.1102371l0 2.1102333z" fill-rule="evenodd"/><path fill="#665628" d="m-32.65442 5.499535c0.79483986 0.36220503 0.68372726 0.77952766 0.1679802 2.3412075c-0.5157471 1.5616794 -2.7047234 5.0349956 -3.2624664 7.028871c-0.5577431 1.9938755 -0.40463638 3.77734 -0.083992004 4.9343834c0.3206482 1.1570435 0.9759407 1.4501305 2.0078735 2.0078735c1.0319366 0.5577431 2.9151382 1.2825909 4.183729 1.338583c1.2685909 0.055994034 2.4938755 -0.5564308 3.427822 -1.0026245c0.9339447 -0.4461937 1.645668 -0.8377075 2.1758518 -1.6745415c0.5301838 -0.83683205 1.019247 -2.3845139 1.005249 -3.3464565c-0.013998032 -0.96194077 -0.57305336 0.4190731 -1.0892391 -2.4251957c-0.51618385 -2.8442698 -0.75328064 -11.893702 -2.0078735 -14.64042c-1.2545929 -2.7467191 -4.571741 -2.1189852 -5.519684 -1.839895c-0.94794655 0.27909017 0.8779526 2.9706912 -0.1679802 3.5144358c-1.0459309 0.54374456 -5.2012234 -0.9072616 -6.1076107 -0.2519685c-0.9063873 0.6552931 -0.20909882 3.5144358 0.66929245 4.1837273c0.87838745 0.669291 3.8062096 -0.5301838 4.6010475 -0.16797924z" fill-rule="evenodd"/><path fill="#ff8e8e" d="m12.637275 32.827385l0 -1.1026573l0 0c0 -0.6089802 2.8064175 -1.1026573 6.2683096 -1.1026573c3.4618912 0 6.2683086 0.49367714 6.2683086 1.1026573l0 1.1026573z" fill-rule="evenodd"/><path fill="#ff8e8e" d="m25.173893 31.945938l0 0.9536514l0 0c0 0.5266876 -2.8064175 0.9536514 -6.2683086 0.9536514c-3.4618921 0 -6.2683096 -0.4269638 -6.2683096 -0.9536514l0 -0.9536514z" fill-rule="evenodd"/><path fill="#665628" d="m-24.984251 29.973854l0 1.3228359l0 0c0 0.7305813 -3.3279 1.3228321 -7.433073 1.3228321c-4.105171 0 -7.433071 -0.5922508 -7.433071 -1.3228321l0 -1.3228359z" fill-rule="evenodd"/><path fill="#665628" d="m-39.850395 30.77952l0 -1.1496067l0 0c0 -0.6349087 3.3279 -1.1496048 7.433071 -1.1496048c4.105173 0 7.433073 0.5146961 7.433073 1.1496048l0 1.1496067z" fill-rule="evenodd"/><path fill="#e35353" d="m21.205292 25.34707l3.2283459 0l0 0c1.7829666 0 3.2283478 1.332571 3.2283478 2.9763775c0 1.6438084 -1.4453812 2.9763794 -3.2283478 2.9763794l-3.2283459 0z" fill-rule="evenodd"/><path fill="#ff8e8e" d="m21.771654 3.9527755l0 0c0 -0.5392494 0.43714714 -0.9763975 0.97639656 -0.9763975l3.9054737 0l0 0c0.2589569 0 0.50730705 0.102870226 0.69041634 0.28598022c0.18311119 0.18311 0.28598022 0.43146062 0.28598022 0.6904173l0 23.716496c0 0.5392494 -0.43714714 0.97639847 -0.97639656 0.97639847l-3.9054737 0c-0.5392494 0 -0.97639656 -0.43714905 -0.97639656 -0.97639847z" fill-rule="evenodd"/><path fill="#e35353" d="m17.827187 14.236081l0 0c0.20653534 -0.31781578 0.6418953 -0.4250393 0.9724026 -0.23949146l2.3936768 1.3438187l0 0c0.1587143 0.0891037 0.27153015 0.23518562 0.31362724 0.4061098c0.04209709 0.17092514 0.010026932 0.3526907 -0.0891552 0.505311l-6.5591564 10.0931835c-0.20653534 0.31781387 -0.64189434 0.4250393 -0.9724026 0.23949051l-2.3936768 -1.3438187c-0.33050728 -0.18554878 -0.4310074 -0.59360504 -0.22447205 -0.9114208z" fill-rule="evenodd"/><path fill="#e35353" d="m15.804188 21.736057l0 0c0 -0.8030758 0.65102196 -1.4540977 1.4540977 -1.4540977l5.8162136 0l0 0c0.38565063 0 0.7555065 0.15319824 1.028202 0.4258957c0.27269745 0.27269554 0.4258957 0.6425514 0.4258957 1.028202l0 8.052435c0 0.8030758 -0.65102196 1.4540958 -1.4540977 1.4540958l-5.8162136 0c-0.8030758 0 -1.4540977 -0.65102005 -1.4540977 -1.4540958z" fill-rule="evenodd"/><path fill="#e35353" d="m18.903816 12.233466l0 0c0 -0.5943346 0.4818039 -1.0761375 1.0761375 -1.0761375l4.3044186 0l0 0c0.28540993 0 0.5591297 0.113378525 0.76094437 0.31519318c0.20181465 0.2018156 0.31519318 0.47553444 0.31519318 0.76094437l0 7.5800085c0 0.59433556 -0.4818039 1.0761375 -1.0761375 1.0761375l-4.3044186 0c-0.59433365 0 -1.0761375 -0.481802 -1.0761375 -1.0761375z" fill-rule="evenodd"/><path fill="#e35353" d="m17.598873 31.343502l-3.7480316 0l0 0c-2.0699806 0 -3.7480316 -1.8049622 -3.7480316 -4.031496c0 -2.226534 1.678051 -4.031496 3.7480316 -4.031496l3.7480316 0z" fill-rule="evenodd"/><path fill="#e35353" d="m21.770973 13.659259l0 0c0 -0.5392494 0.43714905 -0.9763975 0.97639847 -0.9763975l3.9054718 0l0 0c0.2589569 0 0.50730896 0.10287094 0.69041824 0.28598022c0.18310928 0.18311024 0.28598022 0.43146133 0.28598022 0.6904173l0 14.803111c0 0.5392494 -0.43714905 0.97639656 -0.97639847 0.97639656l-3.9054718 0c-0.5392494 0 -0.97639847 -0.43714714 -0.97639847 -0.97639656z" fill-rule="evenodd"/><path fill="#e35353" d="m24.714458 21.274183l0 0c1.5632248 1.9302101 0.80638695 4.6610126 -1.7246017 6.2226677c-2.5309906 1.561655 -5.955408 1.4107456 -7.8032064 -0.3438797c-1.8477974 -1.7546234 -1.4759846 -4.5023937 0.84724903 -6.2613297l1.2601833 1.054657l0 0c-1.8098669 1.1329002 -2.2144442 2.9573936 -0.9111023 4.108721c1.3033428 1.1513271 3.8375912 1.208107 5.7070713 0.12786674c1.8694782 -1.0802402 2.3899708 -2.9021378 1.1721363 -4.1028748z" fill-rule="evenodd"/><path fill="#ff8e8e" d="m19.04851 14.301027c-0.6256294 0.7133522 -1.5307541 2.9600773 -2.272108 4.371544c-0.741354 1.4114647 -1.747735 3.156273 -2.176015 4.09725c-0.42828083 0.9409771 -0.5584698 0.72906685 -0.39366722 1.5486126c0.16480255 0.81954575 0.7072573 2.6857853 1.3824835 3.36866c0.6752262 0.6828747 1.6805744 0.6376343 2.6688728 0.72859c0.9883003 0.09095383 2.223545 0.120479584 3.2609253 -0.18286133c1.0373783 -0.30334282 2.0411758 -0.6052551 2.9633484 -1.637186c0.92217255 -1.0319328 2.0923233 -1.0785999 2.569683 -4.554405c0.47735977 -3.4758053 0.4101982 -13.689883 0.29447556 -16.300428c-0.11572456 -2.6105447 -0.6431961 -0.4552498 -0.9888172 0.6371598c-0.3456211 1.0924096 -0.26192856 4.870128 -1.0849075 5.917298c-0.8229809 1.0471706 -3.062542 0.016191483 -3.852974 0.3657236c-0.7904339 0.34953308 -0.49440765 1.4581337 -0.88962555 1.7314749c-0.395216 0.27334023 -0.85604286 -0.8047838 -1.4816742 -0.09143162z" fill-rule="evenodd"/><path fill="#e35353" d="m11.538841 36.40465l0.8896246 0.48988342l7.8051386 0.16415024l3.4593067 0.08207321l2.764967 -0.48988342z" fill-rule="evenodd"/><path fill="#e35353" d="m14.405997 33.62448l2.3712988 0.8181801l1.8753414 -0.16414642l3.1617317 0.16414642l1.9776325 -0.97976303z" fill-rule="evenodd"/><path fill="#e35353" d="m56.76936 11.014063l0 0c0.72053146 3.853116 -1.3696022 7.9666405 -5.088421 10.014362c-3.7188225 2.0477219 -8.131313 1.5147839 -10.742195 -1.2974358c-2.6108856 -2.8122177 -2.76371 -7.196645 -0.37205124 -10.673873c2.391655 -3.4772282 6.7264633 -5.1729827 10.553074 -4.128309l-1.7780151 4.6893954c-1.6290092 -0.24268055 -3.4872475 0.6614218 -4.564728 2.220913c-1.0774803 1.5594902 -1.1167908 3.4017954 -0.09656143 4.52559c1.0202293 1.1237965 2.8562584 1.2605991 4.51017 0.33605576c1.6539116 -0.9245434 2.7305794 -2.6895542 2.6448174 -4.335719z" fill-rule="evenodd"/><path fill="#9e0b00" d="m42.392387 -0.619422l5.7952766 -0.0944882l0 25.574804l-5.7952766 0.094488144z" fill-rule="evenodd"/><path fill="#ff8e8e" d="m11.577428 7.3885274l0 0c0 -0.68710804 0.5570116 -1.2441192 1.2441196 -1.2441192l12.755855 0c0.32996178 0 0.6464081 0.13107634 0.8797264 0.3643942c0.23331642 0.23331738 0.36439323 0.54976416 0.36439323 0.879725l0 4.9763284c0 0.68710804 -0.55701065 1.2441196 -1.2441196 1.2441196l-12.755855 0c-0.68710804 0 -1.2441196 -0.5570116 -1.2441196 -1.2441196z" fill-rule="evenodd"/><path fill="#890a00" d="m19.871391 9.441013l0 0c0 -0.89583206 0.7191639 -1.6220474 1.6062984 -1.6220474l0 0c0.42601776 0 0.8345852 0.17089367 1.1358261 0.4750862c0.301239 0.3041935 0.47047424 0.7167673 0.47047424 1.1469612l0 0c0 0.89583206 -0.7191658 1.6220474 -1.6063004 1.6220474l0 0c-0.88713455 0 -1.6062984 -0.72621536 -1.6062984 -1.6220474z" fill-rule="evenodd"/><path fill="#fffbee" d="m21.824146 9.454956l0 0c0 -0.269619 0.112810135 -0.48818874 0.25196838 -0.48818874l0 0c0.06682587 0 0.13091469 0.051433563 0.17816925 0.14298725c0.047252655 0.091552734 0.07379913 0.2157259 0.07379913 0.3452015l0 0c0 0.269619 -0.112810135 0.48818874 -0.25196838 0.48818874l0 0c-0.13915825 0 -0.25196838 -0.21856976 -0.25196838 -0.48818874z" fill-rule="evenodd"/></g></svg>