<svg version="1.1" viewBox="0.0 0.0 38.3989501312336 38.3989501312336" fill="none" stroke="none" stroke-linecap="square" stroke-miterlimit="10" xmlns:xlink="http://www.w3.org/1999/xlink" xmlns="http://www.w3.org/2000/svg"><clipPath id="p.0"><path d="m0 0l38.39895 0l0 38.39895l-38.39895 0l0 -38.39895z" clip-rule="nonzero"/></clipPath><g clip-path="url(#p.0)"><path fill="#000000" fill-opacity="0.0" d="m0 0l38.39895 0l0 38.39895l-38.39895 0z" fill-rule="evenodd"/><path fill="#000000" d="m-6.485166 17.565039l0 0c2.335505 -3.0845652 2.7957728 -7.408658 1.1718893 -11.009589c-1.6238832 -3.6009305 -5.022613 -5.79282 -8.653517 -5.5807776c-3.6309032 0.21204239 -6.802395 2.7876287 -8.074944 6.557709l7.2290564 2.989644l0 0c0.12425518 -0.88392544 0.5356159 -1.5645494 1.0550966 -1.7457275c0.51947975 -0.18117905 1.0531425 0.16985035 1.3687868 0.9003525c0.31564426 0.7305021 0.3561926 1.7083807 0.104002 2.508153z" fill-rule="evenodd"/><path fill="#000000" d="m7.882108 85.89764l0 -5.795273l0 0c0 -3.2006454 5.069406 -5.7952805 11.322834 -5.7952805c6.2534294 0 11.322836 2.594635 11.322836 5.7952805l0 5.795273z" fill-rule="evenodd"/><path fill="#000000" d="m-20.950167 11.049662l5.984251 -1.5748024l4.4724407 17.700787l-5.984251 1.5748043z" fill-rule="evenodd"/><path fill="#000000" d="m-14.186875 12.570703l0 0c-1.7592545 0.8277464 -3.9847631 0.68852043 -5.6739397 -0.35495758c-1.6891766 -1.043477 -2.5232449 -2.7942858 -2.126461 -4.463689c0.39678383 -1.6694031 1.949543 -2.9423585 3.9587612 -3.2454019l0.9627514 3.6021276l0 0c-0.5764103 -0.031198502 -1.064209 0.08425331 -1.2577744 0.29768753c-0.19356728 0.21343517 -0.059223175 0.48772144 0.3463974 0.70723915c0.40562248 0.21951675 1.0119572 0.34607506 1.5634117 0.32632542z" fill-rule="evenodd"/><path fill="#000000" d="m42.9856 55.436497l0 0c3.0786018 -4.1538467 8.3999405 -5.8908157 12.822193 -4.1853676c4.4222565 1.705452 6.769394 6.399784 5.6556206 11.311371c-1.1137733 4.9115906 -5.392269 8.734268 -10.309376 9.21106l0.016105652 -3.6120453l0 0c3.2060165 -0.47966003 6.002922 -3.103897 6.7611847 -6.3437843c0.75826263 -3.2398872 -0.72029114 -6.248657 -3.574234 -7.273346c-2.853939 -1.0246887 -6.337372 0.20251083 -8.420784 2.96661z" fill-rule="evenodd"/><path fill="#000000" d="m29.56615 51.82677l0.12598419 8.09449l-20.88189 0l-0.12598419 -8.09449z" fill-rule="evenodd"/><path fill="#000000" d="m8.086634 77.59318l0 -3.464569l0 0c0 -1.9134293 4.9706964 -3.464569 11.102362 -3.464569c6.131666 0 11.102362 1.5511398 11.102362 3.464569l0 3.464569z" fill-rule="evenodd"/><path fill="#000000" d="m43.769028 70.39895l0 -5.795273l0 0c0 -3.2006454 3.3279 -5.7952766 7.433071 -5.7952766c4.105171 0 7.433071 2.5946312 7.433071 5.7952766l0 5.795273z" fill-rule="evenodd"/><path fill="#000000" d="m88.759476 38.307823l0 0c2.69796 -4.9908295 8.716713 -7.2067413 14.205917 -5.2301636c5.489197 1.9765778 8.82589 7.561241 7.8755035 13.181347c-0.9503784 5.6201057 -5.906845 9.613987 -11.698616 9.426662l0.020843506 -4.141819l0 0c3.7557678 0.17958069 6.9664993 -2.3606796 7.5688705 -5.988331c0.6023712 -3.6276512 -1.5827942 -7.2636147 -5.1512375 -8.571308c-3.568451 -1.3076935 -7.4587097 0.101867676 -9.170784 3.322857z" fill-rule="evenodd"/><path fill="#000000" d="m46.63149 38.755486l3.6535416 5.0393715l-8.818897 6.1102333l-3.6535416 -5.0393677z" fill-rule="evenodd"/><path fill="#000000" d="m43.706036 59.93176l0 -3.464569l0 0c0 -1.9134254 3.356102 -3.4645653 7.496063 -3.4645653c4.1399612 0 7.496063 1.5511398 7.496063 3.4645653l0 3.464569z" fill-rule="evenodd"/><path fill="#000000" d="m-20.23097 70.39895l0 -5.795273l0 0c0 -3.2006454 3.327898 -5.7952766 7.43307 -5.7952766c4.105171 0 7.4330707 2.5946312 7.4330707 5.7952766l0 5.795273z" fill-rule="evenodd"/><path fill="#ff8e8e" d="m27.155186 12.565245l0 0c0.7205334 3.853115 -1.3696003 7.9666405 -5.088421 10.014362c-3.7188206 2.04772 -8.131312 1.5147839 -10.742195 -1.2974358c-2.6108837 -2.8122177 -2.763708 -7.1966457 -0.37205124 -10.673874c2.391656 -3.4772282 6.7264633 -5.172982 10.553074 -4.1283083l-1.7780151 4.689395c-1.6290092 -0.24268055 -3.4872456 0.6614227 -4.564727 2.220913c-1.0774813 1.5594902 -1.1167898 3.4017944 -0.09656048 4.525591c1.0202293 1.1237965 2.8562565 1.2605991 4.510168 0.33605576c1.6539135 -0.9245434 2.7305813 -2.6895552 2.6448154 -4.335719z" fill-rule="evenodd"/><path fill="#000000" d="m-18.844015 41.475296l4.8503933 3.1496086l-3.9055119 5.795273l-4.8503933 -3.1496048z" fill-rule="evenodd"/><path fill="#000000" d="m-20.293962 59.93176l0 -3.464569l0 0c0 -1.9134254 3.3561 -3.4645653 7.4960623 -3.4645653c4.1399612 0 7.4960628 1.5511398 7.4960628 3.4645653l0 3.464569z" fill-rule="evenodd"/><path fill="#000000" d="m44.967457 8.2651005c2.3372345 -2.969057 6.2498055 -4.1172733 9.491241 -2.7853813c3.241436 1.331892 4.980526 4.80235 4.2187424 8.418754c-0.7617836 3.6164045 -3.829094 6.4513845 -7.4407806 6.8771925l-0.0897522 -2.7198505l0 0c2.345089 -0.38108635 4.34074 -2.309472 4.852566 -4.689005c0.51182175 -2.3795319 -0.5897293 -4.607915 -2.6785011 -5.4184694c-2.0887756 -0.8105545 -4.6360703 0.0018830299 -6.193928 1.9754992z" fill-rule="evenodd"/><path fill="#000000" d="m16.291338 46.879265l5.7952766 -0.09448624l0 25.574802l-5.7952766 0.09449005z" fill-rule="evenodd"/><path fill="#000000" d="m12.049869 66.17585l0 -1.7795258l0 0c0 -0.98280334 3.2503424 -1.7795258 7.259843 -1.7795258c4.0095005 0 7.259842 0.7967224 7.259842 1.7795258l0 1.7795258z" fill-rule="evenodd"/><path fill="#000000" d="m13.918635 62.90814l0 -1.2913399l0 0c0 -0.7131882 2.4113169 -1.2913399 5.385827 -1.2913399c2.9745102 0 5.385826 0.5781517 5.385826 1.2913399l0 1.2913399z" fill-rule="evenodd"/><path fill="#ff8e8e" d="m16.140602 4.1233597l0 0c0 -1.3046098 1.1069508 -2.3622048 2.4724407 -2.3622048l0 0c0.6557331 0 1.2846069 0.24887443 1.7482796 0.6918738c0.46367264 0.44299912 0.72416306 1.0438352 0.72416306 1.670331l0 0c0 1.3046098 -1.1069508 2.3622046 -2.4724426 2.3622046l0 0c-1.36549 0 -2.4724407 -1.0575948 -2.4724407 -2.3622046z" fill-rule="evenodd"/><path fill="#ff8e8e" d="m7.2506385 39.129955l10.503937 -18.173227l10.503937 18.173227z" fill-rule="evenodd"/><path fill="#000000" d="m-13.511675 33.63742l6.755905 -5.7952747l6.7559056 5.7952747z" fill-rule="evenodd"/><path fill="#000000" d="m59.984253 11.771653l-10.062992 11.590552l-10.062992 -11.590552z" fill-rule="evenodd"/><path fill="#000000" d="m-12.967316 28.888086l-4.3464565 6.3622074l-4.3464565 -6.3622074z" fill-rule="evenodd"/><path fill="#000000" d="m79.125984 21.480314l0 0c0 -1.9134274 1.6287003 -3.4645653 3.6377945 -3.4645653l0 0c0.9648056 0 1.890091 0.36501503 2.5723114 1.0147476c0.68222046 0.6497326 1.0654831 1.5309582 1.0654831 2.4498177l0 0c0 1.9134274 -1.6286926 3.4645672 -3.6377945 3.4645672l0 0c-2.0090942 0 -3.6377945 -1.5511398 -3.6377945 -3.4645672z" fill-rule="evenodd"/><path fill="#000000" d="m71.0 54.39895l11.763779 -14.110233l11.763779 14.110233z" fill-rule="evenodd"/><path fill="#000000" d="m72.58924 47.85302l10.173225 -11.590553l10.173225 11.590553z" fill-rule="evenodd"/><path fill="#000000" d="m92.937004 24.944881l-10.173225 11.590553l-10.173225 -11.590553z" fill-rule="evenodd"/><path fill="#000000" d="m88.874016 23.942257l-6.110237 4.9448814l-6.110237 -4.9448814z" fill-rule="evenodd"/><path fill="#000000" d="m56.9147 11.015748l10.173229 -11.590551l10.173225 11.590551z" fill-rule="evenodd"/><path fill="#000000" d="m67.391075 27.164042l-10.173229 11.590551l-10.173225 -11.590551z" fill-rule="evenodd"/><path fill="#000000" d="m31.125984 93.480316l0 0c0 -1.9134293 1.6286964 -3.464569 3.6377945 -3.464569l0 0c0.9648056 0 1.890091 0.36501312 2.5723114 1.0147476c0.68221664 0.6497345 1.0654831 1.5309601 1.0654831 2.4498215l0 0c0 1.9134293 -1.6286964 3.464569 -3.6377945 3.464569l0 0c-2.009098 0 -3.6377945 -1.5511398 -3.6377945 -3.464569z" fill-rule="evenodd"/><path fill="#000000" d="m23.0 126.39895l11.763779 -14.110237l11.763779 14.110237z" fill-rule="evenodd"/><path fill="#000000" d="m24.58924 119.85302l10.173227 -11.590553l10.173229 11.590553z" fill-rule="evenodd"/><path fill="#000000" d="m44.937008 96.944885l-10.173229 11.590546l-10.173227 -11.590546z" fill-rule="evenodd"/><path fill="#000000" d="m40.874016 95.94226l-6.110237 4.9448776l-6.110235 -4.9448776z" fill-rule="evenodd"/><path fill="#000000" d="m24.316273 105.42519l10.173229 -11.590546l10.173229 11.590546z" fill-rule="evenodd"/><path fill="#ff8e8e" d="m7.5275593 35.238846l10.220472 -14.771654l10.220472 14.771654z" fill-rule="evenodd"/><path fill="#ff8e8e" d="m25.275938 10.482942l1.9212589 2.0787401l-9.133858 8.251968l-1.9212608 -2.078741z" fill-rule="evenodd"/><path fill="#ff8e8e" d="m21.512352 6.4855485l2.047243 2.2362208l-9.070866 8.251968l-2.047244 -2.2362204z" fill-rule="evenodd"/><path fill="#ff8e8e" d="m13.300883 15.32788l4.4409456 4.755906l-1.4488201 1.322834l-4.4409447 -4.755905z" fill-rule="evenodd"/><path fill="#ff8e8e" d="m8.422572 25.002625l9.133859 -6.9291344l9.133858 6.9291344z" fill-rule="evenodd"/><path fill="#ff8e8e" d="m7.5275593 35.217846l0 -2.2204704l0 0c0 -1.2263336 4.5688105 -2.2204723 10.204723 -2.2204723c5.635914 0 10.204725 0.9941387 10.204725 2.2204723l0 2.2204704z" fill-rule="evenodd"/><path fill="#9e0b00" d="m17.167978 24.984251l-6.8293953 6.275591l4.2467184 -6.0918636z" fill-rule="evenodd"/><path fill="#9e0b00" d="m7.616798 33.24672l9.601049 2.307087l-9.968504 -0.37007904z" fill-rule="evenodd"/><path fill="#9e0b00" d="m16.89239 2.6456692l-0.09186363 1.847769l1.291338 1.1994753l1.661417 0.4619422l-1.661417 0.27559042l-0.92388535 -0.37007856l-0.9212589 -0.82939625l-0.18635178 -1.2913387z" fill-rule="evenodd"/><path fill="#9e0b00" d="m10.874016 11.104987l0.82939625 6.7375326l2.7690287 3.2309704l5.8162727 1.8477688l-1.9396324 0.36745453l-2.3989496 -0.18372726l-3.047244 -0.73753166l-1.3832026 -0.7401581l-2.031496 -3.322834l-0.18372726 -3.1391077l0.46194267 -2.4908142z" fill-rule="evenodd"/><path fill="#f4f2ec" d="m19.763039 2.7007873l-0.42050934 0.8052759l0.8395958 0.11074257l0.2679863 -0.5140641z" fill-rule="evenodd"/><path fill="#f4f2ec" d="m20.77671 7.383202l-0.71740913 0.78753996l-0.71740913 0.19688511l0.5285435 0.62885666l0.45384216 0.70966816l0.26356697 -0.6303263l0.79352 -0.23655605l-0.79352 -0.23655605z" fill-rule="evenodd"/><path fill="#f4f2ec" d="m21.862572 24.213396l-0.8219185 -1.3645401l1.926548 1.3967304z" fill-rule="evenodd"/><path fill="#f4f2ec" d="m18.720472 25.238846l1.1259842 2.952755l-0.28083992 3.5170612l4.0078735 0.13910675l-2.5328083 -3.0944881l-0.84251976 -3.656168z" fill-rule="evenodd"/><path fill="#f4f2ec" d="m21.202099 33.2769l2.391077 -0.77427673l2.2493439 0.7034111l-1.4068241 0.21260071z" fill-rule="evenodd"/><path fill="#f4f2ec" d="m20.3084 35.0853l2.4619427 1.6167984l1.5459309 -1.6167984l-1.968504 0.28084183z" fill-rule="evenodd"/><path fill="#9e0b00" d="m12.923884 35.4147l-4.8005247 2.5853004l1.4776897 -2.677166z" fill-rule="evenodd"/><path fill="#9e0b00" d="m14.215223 35.50656l2.2152233 1.0157471l3.5065613 -1.3858261z" fill-rule="evenodd"/></g></svg>