<svg version="1.1" viewBox="0.0 0.0 38.3989501312336 38.3989501312336" fill="none" stroke="none" stroke-linecap="square" stroke-miterlimit="10" xmlns:xlink="http://www.w3.org/1999/xlink" xmlns="http://www.w3.org/2000/svg"><clipPath id="p.0"><path d="m0 0l38.39895 0l0 38.39895l-38.39895 0l0 -38.39895z" clip-rule="nonzero"/></clipPath><g clip-path="url(#p.0)"><path fill="#000000" fill-opacity="0.0" d="m0 0l38.39895 0l0 38.39895l-38.39895 0z" fill-rule="evenodd"/><path fill="#000000" d="m-6.485166 17.565039l0 0c2.335505 -3.0845652 2.7957728 -7.408658 1.1718893 -11.009589c-1.6238832 -3.6009305 -5.022613 -5.79282 -8.653517 -5.5807776c-3.6309032 0.21204239 -6.802395 2.7876287 -8.074944 6.557709l7.2290564 2.989644l0 0c0.12425518 -0.88392544 0.5356159 -1.5645494 1.0550966 -1.7457275c0.51947975 -0.18117905 1.0531425 0.16985035 1.3687868 0.9003525c0.31564426 0.7305021 0.3561926 1.7083807 0.104002 2.508153z" fill-rule="evenodd"/><path fill="#000000" d="m7.882108 85.89764l0 -5.795273l0 0c0 -3.2006454 5.069406 -5.7952805 11.322834 -5.7952805c6.2534294 0 11.322836 2.594635 11.322836 5.7952805l0 5.795273z" fill-rule="evenodd"/><path fill="#000000" d="m-20.950167 11.049662l5.984251 -1.5748024l4.4724407 17.700787l-5.984251 1.5748043z" fill-rule="evenodd"/><path fill="#000000" d="m-14.186875 12.570703l0 0c-1.7592545 0.8277464 -3.9847631 0.68852043 -5.6739397 -0.35495758c-1.6891766 -1.043477 -2.5232449 -2.7942858 -2.126461 -4.463689c0.39678383 -1.6694031 1.949543 -2.9423585 3.9587612 -3.2454019l0.9627514 3.6021276l0 0c-0.5764103 -0.031198502 -1.064209 0.08425331 -1.2577744 0.29768753c-0.19356728 0.21343517 -0.059223175 0.48772144 0.3463974 0.70723915c0.40562248 0.21951675 1.0119572 0.34607506 1.5634117 0.32632542z" fill-rule="evenodd"/><path fill="#000000" d="m42.9856 55.436497l0 0c3.0786018 -4.1538467 8.3999405 -5.8908157 12.822193 -4.1853676c4.4222565 1.705452 6.769394 6.399784 5.6556206 11.311371c-1.1137733 4.9115906 -5.392269 8.734268 -10.309376 9.21106l0.016105652 -3.6120453l0 0c3.2060165 -0.47966003 6.002922 -3.103897 6.7611847 -6.3437843c0.75826263 -3.2398872 -0.72029114 -6.248657 -3.574234 -7.273346c-2.853939 -1.0246887 -6.337372 0.20251083 -8.420784 2.96661z" fill-rule="evenodd"/><path fill="#000000" d="m29.56615 51.82677l0.12598419 8.09449l-20.88189 0l-0.12598419 -8.09449z" fill-rule="evenodd"/><path fill="#000000" d="m8.086634 77.59318l0 -3.464569l0 0c0 -1.9134293 4.9706964 -3.464569 11.102362 -3.464569c6.131666 0 11.102362 1.5511398 11.102362 3.464569l0 3.464569z" fill-rule="evenodd"/><path fill="#000000" d="m43.769028 70.39895l0 -5.795273l0 0c0 -3.2006454 3.3279 -5.7952766 7.433071 -5.7952766c4.105171 0 7.433071 2.5946312 7.433071 5.7952766l0 5.795273z" fill-rule="evenodd"/><path fill="#000000" d="m88.759476 38.307823l0 0c2.69796 -4.9908295 8.716713 -7.2067413 14.205917 -5.2301636c5.489197 1.9765778 8.82589 7.561241 7.8755035 13.181347c-0.9503784 5.6201057 -5.906845 9.613987 -11.698616 9.426662l0.020843506 -4.141819l0 0c3.7557678 0.17958069 6.9664993 -2.3606796 7.5688705 -5.988331c0.6023712 -3.6276512 -1.5827942 -7.2636147 -5.1512375 -8.571308c-3.568451 -1.3076935 -7.4587097 0.101867676 -9.170784 3.322857z" fill-rule="evenodd"/><path fill="#000000" d="m10.885069 40.288715l0.12598419 5.7007866l-9.228347 0l-0.12598431 -5.7007866z" fill-rule="evenodd"/><path fill="#000000" d="m43.706036 59.93176l0 -3.464569l0 0c0 -1.9134254 3.356102 -3.4645653 7.496063 -3.4645653c4.1399612 0 7.496063 1.5511398 7.496063 3.4645653l0 3.464569z" fill-rule="evenodd"/><path fill="#000000" d="m-20.23097 70.39895l0 -5.795273l0 0c0 -3.2006454 3.327898 -5.7952766 7.43307 -5.7952766c4.105171 0 7.4330707 2.5946312 7.4330707 5.7952766l0 5.795273z" fill-rule="evenodd"/><path fill="#000000" d="m-22.086842 39.816185c2.745327 -4.527153 8.114007 -6.770298 12.7967 -5.3467255c4.6826916 1.4235725 7.3615017 6.1132126 6.385167 11.178146c-0.97633433 5.0649376 -5.3330345 9.0797 -10.384559 9.569519l0.016105652 -3.6120415l0 0c3.2898722 -0.49220657 6.1362166 -3.2381172 6.810611 -6.5702934c0.67439413 -3.33218 -1.0092444 -6.331196 -4.0285378 -7.175915c-3.0192938 -0.84471893 -6.5411425 0.6979332 -8.42693 3.6911964z" fill-rule="evenodd"/><path fill="#000000" d="m-18.844015 41.475296l4.8503933 3.1496086l-3.9055119 5.795273l-4.8503933 -3.1496048z" fill-rule="evenodd"/><path fill="#000000" d="m-20.293962 59.93176l0 -3.464569l0 0c0 -1.9134254 3.3561 -3.4645653 7.4960623 -3.4645653c4.1399612 0 7.4960628 1.5511398 7.4960628 3.4645653l0 3.464569z" fill-rule="evenodd"/><path fill="#000000" d="m44.967457 8.2651005c2.3372345 -2.969057 6.2498055 -4.1172733 9.491241 -2.7853813c3.241436 1.331892 4.980526 4.80235 4.2187424 8.418754c-0.7617836 3.6164045 -3.829094 6.4513845 -7.4407806 6.8771925l-0.0897522 -2.7198505l0 0c2.345089 -0.38108635 4.34074 -2.309472 4.852566 -4.689005c0.51182175 -2.3795319 -0.5897293 -4.607915 -2.6785011 -5.4184694c-2.0887756 -0.8105545 -4.6360703 0.0018830299 -6.193928 1.9754992z" fill-rule="evenodd"/><path fill="#000000" d="m16.291338 46.879265l5.7952766 -0.09448624l0 25.574802l-5.7952766 0.09449005z" fill-rule="evenodd"/><path fill="#000000" d="m12.049869 66.17585l0 -1.7795258l0 0c0 -0.98280334 3.2503424 -1.7795258 7.259843 -1.7795258c4.0095005 0 7.259842 0.7967224 7.259842 1.7795258l0 1.7795258z" fill-rule="evenodd"/><path fill="#000000" d="m13.918635 62.90814l0 -1.2913399l0 0c0 -0.7131882 2.4113169 -1.2913399 5.385827 -1.2913399c2.9745102 0 5.385826 0.5781517 5.385826 1.2913399l0 1.2913399z" fill-rule="evenodd"/><path fill="#ff8e8e" d="m14.759843 17.566929l0 0c0 -2.2091389 1.7556067 -4.0 3.9212599 -4.0l0 0c1.0399818 0 2.0373707 0.42142773 2.772749 1.1715727c0.73537827 0.7501459 1.14851 1.7675619 1.14851 2.8284273l0 0c0 2.2091389 -1.7556076 4.0 -3.921259 4.0l0 0c-2.1656532 0 -3.9212599 -1.7908611 -3.9212599 -4.0z" fill-rule="evenodd"/><path fill="#000000" d="m59.984253 11.771653l-10.062992 11.590552l-10.062992 -11.590552z" fill-rule="evenodd"/><path fill="#000000" d="m79.125984 21.480314l0 0c0 -1.9134274 1.6287003 -3.4645653 3.6377945 -3.4645653l0 0c0.9648056 0 1.890091 0.36501503 2.5723114 1.0147476c0.68222046 0.6497326 1.0654831 1.5309582 1.0654831 2.4498177l0 0c0 1.9134274 -1.6286926 3.4645672 -3.6377945 3.4645672l0 0c-2.0090942 0 -3.6377945 -1.5511398 -3.6377945 -3.4645672z" fill-rule="evenodd"/><path fill="#000000" d="m71.0 54.39895l11.763779 -14.110233l11.763779 14.110233z" fill-rule="evenodd"/><path fill="#000000" d="m72.58924 47.85302l10.173225 -11.590553l10.173225 11.590553z" fill-rule="evenodd"/><path fill="#000000" d="m92.937004 24.944881l-10.173225 11.590553l-10.173225 -11.590553z" fill-rule="evenodd"/><path fill="#000000" d="m88.874016 23.942257l-6.110237 4.9448814l-6.110237 -4.9448814z" fill-rule="evenodd"/><path fill="#000000" d="m56.9147 11.015748l10.173229 -11.590551l10.173225 11.590551z" fill-rule="evenodd"/><path fill="#000000" d="m67.391075 27.164042l-10.173229 11.590551l-10.173225 -11.590551z" fill-rule="evenodd"/><path fill="#000000" d="m31.125984 93.480316l0 0c0 -1.9134293 1.6286964 -3.464569 3.6377945 -3.464569l0 0c0.9648056 0 1.890091 0.36501312 2.5723114 1.0147476c0.68221664 0.6497345 1.0654831 1.5309601 1.0654831 2.4498215l0 0c0 1.9134293 -1.6286964 3.464569 -3.6377945 3.464569l0 0c-2.009098 0 -3.6377945 -1.5511398 -3.6377945 -3.464569z" fill-rule="evenodd"/><path fill="#000000" d="m23.0 126.39895l11.763779 -14.110237l11.763779 14.110237z" fill-rule="evenodd"/><path fill="#000000" d="m24.58924 119.85302l10.173227 -11.590553l10.173229 11.590553z" fill-rule="evenodd"/><path fill="#000000" d="m44.937008 96.944885l-10.173229 11.590546l-10.173227 -11.590546z" fill-rule="evenodd"/><path fill="#000000" d="m40.874016 95.94226l-6.110237 4.9448776l-6.110235 -4.9448776z" fill-rule="evenodd"/><path fill="#000000" d="m24.316273 105.42519l10.173229 -11.590546l10.173229 11.590546z" fill-rule="evenodd"/><path fill="#000000" d="m-57.44882 -0.42519686l0 0c0 -2.2091389 1.7556076 -3.9999998 3.9212608 -3.9999998l0 0c1.0399818 0 2.0373688 0.42142725 2.772747 1.1715727c0.73537827 0.75014544 1.14851 1.7675612 1.14851 2.828427l0 0c0 2.2091389 -1.7556076 4.0 -3.921257 4.0l0 0c-2.1656532 0 -3.9212608 -1.790861 -3.9212608 -4.0z" fill-rule="evenodd"/><path fill="#000000" d="m-65.291336 22.703413l11.763779 -8.944882l11.763779 8.944882z" fill-rule="evenodd"/><path fill="#000000" d="m-61.46459 16.653543l7.937008 -6.9291344l7.937008 6.9291344z" fill-rule="evenodd"/><path fill="#000000" d="m-48.425198 3.574803l-5.10236 7.5905514l-5.1023636 -7.5905514z" fill-rule="evenodd"/><path fill="#000000" d="m-13.994758 29.469816l5.385827 -8.0l5.3858266 8.0z" fill-rule="evenodd"/><path fill="#ff8e8e" d="m13.296581 31.942257l5.385826 -8.0l5.385828 8.0z" fill-rule="evenodd"/><path fill="#ff8e8e" d="m11.87664 35.519684l0 -2.8031502l0 0c0 -1.5481358 3.0458736 -2.8031483 6.80315 -2.8031483c3.7572746 0 6.8031483 1.2550125 6.8031483 2.8031483l0 2.8031502z" fill-rule="evenodd"/><path fill="#ff8e8e" d="m15.262467 23.637794l0 -1.2283459l0 0c0 -0.6783962 1.5299883 -1.2283459 3.417323 -1.2283459c1.8873348 0 3.4173222 0.54994965 3.4173222 1.2283459l0 1.2283459z" fill-rule="evenodd"/><path fill="#ff8e8e" d="m15.262467 23.45407l0 0.9133854l0 0c0 0.50444794 1.5299883 0.9133854 3.417323 0.9133854c1.8873348 0 3.4173222 -0.40893745 3.4173222 -0.9133854l0 -0.9133854z" fill-rule="evenodd"/><path fill="#ff8e8e" d="m11.879265 42.0l0 -4.2677155l0 0c0 -2.3569946 3.0458736 -4.2677193 6.80315 -4.2677193c3.7572746 0 6.80315 1.9107246 6.80315 4.2677193l0 4.2677155z" fill-rule="evenodd"/><path fill="#9e0b00" d="m16.737534 21.380577l-0.56167984 1.1233597l-0.07086754 1.0551186l1.3359585 1.3359585l2.0393696 0.14173126l-1.5459309 0.20997429l-1.687664 -0.20997429l-0.63517094 -0.35170555l-0.41994762 -0.6325455l0.06824207 -1.3359585l0.49343777 -0.9160099z" fill-rule="evenodd"/><path fill="#9e0b00" d="m15.682415 28.692913l-0.070866585 0.9160099l2.2519693 0.7716541l-1.8293972 0.35170555l-1.8267717 -0.20997238z" fill-rule="evenodd"/><path fill="#9e0b00" d="m12.6587925 35.514435l2.5328083 0.35170746l3.4461937 0.07086563l2.7427826 -0.4225731l1.7585297 -0.06824112l-5.979002 1.265091l-2.7427816 0.28084183z" fill-rule="evenodd"/><path fill="#9e0b00" d="m12.167979 32.209972l0.49081326 1.4776917l3.1653547 1.265091l1.8293962 0.77428055l-5.8372707 -0.35170746z" fill-rule="evenodd"/><path fill="#9e0b00" d="m16.24672 14.769029l-1.0551186 2.4619417l1.1233597 2.3202114l2.8136482 1.3359566l1.968504 -0.56167984l1.4068241 -1.7585297l-0.13910675 1.1259842l-1.8293972 1.3359585l-1.968504 0.56167984l-1.968504 -0.56167984l-1.2677164 -1.4068241l-0.56167984 -1.5485573l0.3517065 -2.0393696z" fill-rule="evenodd"/><path fill="#ffecec" d="m20.183727 15.026247l-0.35170555 1.265091l0.84251976 -0.28083992z" fill-rule="evenodd"/><path fill="#ffecec" d="m20.677166 32.351707l2.1102352 0.7716522l0.6325455 -1.6167984l-1.1968498 0.8451462z" fill-rule="evenodd"/><path fill="#ffecec" d="m19.202099 26.383202l0.9133873 2.391077l0.28083992 -0.84251976z" fill-rule="evenodd"/><path fill="#ffecec" d="m19.692913 22.92651l1.1233597 0.56167984l0.9160099 -0.7716541z" fill-rule="evenodd"/><path fill="#ffecec" d="m24.800323 37.51l-0.8974209 -1.5012627l-1.1373882 0.16456223l1.256321 1.2443008z" fill-rule="evenodd"/><path fill="#9e0b00" d="m17.653543 25.66929l-1.5485573 3.0236225l-0.07086563 0.9160099l-1.1942253 0.13910866z" fill-rule="evenodd"/><path fill="#ffecec" d="m17.653543 14.458284l0.8133278 0.44722366l0.38083458 -0.6503687l-0.8690338 -0.12128067z" fill-rule="evenodd"/><path fill="#ffecec" d="m13.295637 32.36574l2.5459242 -0.26342773l-0.74110794 -0.4893093z" fill-rule="evenodd"/><path fill="#9e0b00" d="m23.052494 30.664042l-1.3359585 0.35170746l-1.687664 0l2.603674 0.4908123l1.2650928 -0.56167984z" fill-rule="evenodd"/></g></svg>