<svg version="1.1" viewBox="0.0 0.0 38.3989501312336 38.3989501312336" fill="none" stroke="none" stroke-linecap="square" stroke-miterlimit="10" xmlns:xlink="http://www.w3.org/1999/xlink" xmlns="http://www.w3.org/2000/svg"><clipPath id="p.0"><path d="m0 0l38.39895 0l0 38.39895l-38.39895 0l0 -38.39895z" clip-rule="nonzero"/></clipPath><g clip-path="url(#p.0)"><path fill="#000000" fill-opacity="0.0" d="m0 0l38.39895 0l0 38.39895l-38.39895 0z" fill-rule="evenodd"/><path fill="#000000" d="m-6.485166 17.565039l0 0c2.335505 -3.0845652 2.7957728 -7.408658 1.1718893 -11.009589c-1.6238832 -3.6009305 -5.022613 -5.79282 -8.653517 -5.5807776c-3.6309032 0.21204239 -6.802395 2.7876287 -8.074944 6.557709l7.2290564 2.989644l0 0c0.12425518 -0.88392544 0.5356159 -1.5645494 1.0550966 -1.7457275c0.51947975 -0.18117905 1.0531425 0.16985035 1.3687868 0.9003525c0.31564426 0.7305021 0.3561926 1.7083807 0.104002 2.508153z" fill-rule="evenodd"/><path fill="#000000" d="m-20.950167 11.049662l5.984251 -1.5748024l4.4724407 17.700787l-5.984251 1.5748043z" fill-rule="evenodd"/><path fill="#000000" d="m-14.186875 12.570703l0 0c-1.7592545 0.8277464 -3.9847631 0.68852043 -5.6739397 -0.35495758c-1.6891766 -1.043477 -2.5232449 -2.7942858 -2.126461 -4.463689c0.39678383 -1.6694031 1.949543 -2.9423585 3.9587612 -3.2454019l0.9627514 3.6021276l0 0c-0.5764103 -0.031198502 -1.064209 0.08425331 -1.2577744 0.29768753c-0.19356728 0.21343517 -0.059223175 0.48772144 0.3463974 0.70723915c0.40562248 0.21951675 1.0119572 0.34607506 1.5634117 0.32632542z" fill-rule="evenodd"/><path fill="#000000" d="m43.769028 70.39895l0 -5.795273l0 0c0 -3.2006454 3.3279 -5.7952766 7.433071 -5.7952766c4.105171 0 7.433071 2.5946312 7.433071 5.7952766l0 5.795273z" fill-rule="evenodd"/><path fill="#000000" d="m40.759476 38.307823l0 0c2.69796 -4.9908295 8.716713 -7.2067413 14.205917 -5.2301636c5.4892006 1.9765778 8.82589 7.561241 7.8755074 13.181347c-0.95038605 5.6201057 -5.906849 9.613987 -11.69862 9.426662l0.020843506 -4.141819l0 0c3.7557716 0.17958069 6.9664993 -2.3606796 7.5688705 -5.988331c0.60237503 -3.6276512 -1.5827904 -7.2636147 -5.1512413 -8.571308c-3.568447 -1.3076935 -7.4587097 0.101867676 -9.170784 3.322857z" fill-rule="evenodd"/><path fill="#000000" d="m46.63149 38.755486l3.6535416 5.0393715l-8.818897 6.1102333l-3.6535416 -5.0393677z" fill-rule="evenodd"/><path fill="#000000" d="m43.706036 59.93176l0 -3.464569l0 0c0 -1.9134254 3.356102 -3.4645653 7.496063 -3.4645653c4.1399612 0 7.496063 1.5511398 7.496063 3.4645653l0 3.464569z" fill-rule="evenodd"/><path fill="#000000" d="m-20.23097 70.39895l0 -5.795273l0 0c0 -3.2006454 3.327898 -5.7952766 7.43307 -5.7952766c4.105171 0 7.4330707 2.5946312 7.4330707 5.7952766l0 5.795273z" fill-rule="evenodd"/><path fill="#000000" d="m-22.086842 39.816185c2.745327 -4.527153 8.114007 -6.770298 12.7967 -5.3467255c4.6826916 1.4235725 7.3615017 6.1132126 6.385167 11.178146c-0.97633433 5.0649376 -5.3330345 9.0797 -10.384559 9.569519l0.016105652 -3.6120415l0 0c3.2898722 -0.49220657 6.1362166 -3.2381172 6.810611 -6.5702934c0.67439413 -3.33218 -1.0092444 -6.331196 -4.0285378 -7.175915c-3.0192938 -0.84471893 -6.5411425 0.6979332 -8.42693 3.6911964z" fill-rule="evenodd"/><path fill="#000000" d="m-18.844015 41.475296l4.8503933 3.1496086l-3.9055119 5.795273l-4.8503933 -3.1496048z" fill-rule="evenodd"/><path fill="#000000" d="m-20.293962 59.93176l0 -3.464569l0 0c0 -1.9134254 3.3561 -3.4645653 7.4960623 -3.4645653c4.1399612 0 7.4960628 1.5511398 7.4960628 3.4645653l0 3.464569z" fill-rule="evenodd"/><path fill="#ff8e8e" d="m44.967457 8.2651005c2.3372345 -2.969057 6.2498055 -4.1172733 9.491241 -2.7853813c3.241436 1.331892 4.980526 4.80235 4.2187424 8.418754c-0.7617836 3.6164045 -3.829094 6.4513845 -7.4407806 6.8771925l-0.0897522 -2.7198505l0 0c2.345089 -0.38108635 4.34074 -2.309472 4.852566 -4.689005c0.51182175 -2.3795319 -0.5897293 -4.607915 -2.6785011 -5.4184694c-2.0887756 -0.8105545 -4.6360703 0.0018830299 -6.193928 1.9754992z" fill-rule="evenodd"/><path fill="#ff8e8e" d="m-35.036747 28.110237l28.472443 0l0 10.299213l-28.472443 0z" fill-rule="evenodd"/><path fill="#ff8e8e" d="m-35.034122 2.199475l28.472443 0l0 7.27559l-28.472443 0z" fill-rule="evenodd"/><path fill="#ff8e8e" d="m-33.380577 9.160105l25.165354 0l0 19.905512l-25.165354 0z" fill-rule="evenodd"/><path fill="#ff8e8e" d="m-35.034122 0l8.346458 0l0 4.031496l-8.346458 0z" fill-rule="evenodd"/><path fill="#ff8e8e" d="m-14.908136 0l8.346457 0l0 4.031496l-8.346457 0z" fill-rule="evenodd"/><path fill="#ff8e8e" d="m-24.971128 0l8.346457 0l0 4.031496l-8.346457 0z" fill-rule="evenodd"/><path fill="#9e0b00" d="m-26.495998 2.4147499l0 7.695609l-6.8924522 -0.85506725l5.970886 -0.25524426z" fill-rule="evenodd"/><path fill="#9e0b00" d="m-16.82321 2.199475l-0.12861633 6.5793943l-7.402504 0.6963701l9.4460535 -0.3091774z" fill-rule="evenodd"/><path fill="#9e0b00" d="m-26.257792 12.168463l1.3385391 4.5743732l-6.779356 0.4057846l9.173622 1.049118l-3.965107 -7.772331z" fill-rule="evenodd"/><path fill="#9e0b00" d="m-11.727035 11.729659l1.1942263 6.120734l-7.031496 -0.07086563l5.83727 -1.0551186z" fill-rule="evenodd"/><path fill="#9e0b00" d="m-19.884514 27.51181l5.4146976 0.13910866l-1.1259842 -6.469816l-0.28083992 5.2047234z" fill-rule="evenodd"/><path fill="#9e0b00" d="m-9.902887 22.278215l0.28083992 1.8293953l-2.671916 0.13910866l4.010499 0.49343872z" fill-rule="evenodd"/><path fill="#9e0b00" d="m-33.317585 27.469803l8.260862 0.72990227l0.085819244 10.419874l-1.1919289 -8.499615z" fill-rule="evenodd"/><path fill="#9e0b00" d="m-22.981627 27.52931l6.7532806 0.9735508l-0.8451443 9.848625l2.603674 -11.149387z" fill-rule="evenodd"/><path fill="#9e0b00" d="m-8.283497 28.257217l-4.8512926 0.28083992l2.3034592 6.259844l-3.6384697 -6.963255z" fill-rule="evenodd"/><path fill="#9e0b00" d="m-13.697782 8.073491l0.36823463 1.3359575l5.1143703 0l-6.396372 0.6325464z" fill-rule="evenodd"/><path fill="#9e0b00" d="m-14.908136 10.92126l-2.8136482 0.28083992l1.3359585 6.259843l-2.1102371 -6.963255z" fill-rule="evenodd"/><path fill="#9e0b00" d="m-30.92651 25.215223l5.4146996 0.13910675l-1.1259842 -6.469816l-0.28083992 5.2047253z" fill-rule="evenodd"/><path fill="#9e0b00" d="m-25.020998 0.028871391l0.07086754 4.782152l0.42257118 -4.010499l3.2335968 0z" fill-rule="evenodd"/><path fill="#ff8e8e" d="m9.0215 3.8421874l20.188976 0l0 2.3307085l-20.188976 0z" fill-rule="evenodd"/><path fill="#ff8e8e" d="m9.020513 1.7611549l5.92126 0l0 3.8425195l-5.92126 0z" fill-rule="evenodd"/><path fill="#ff8e8e" d="m23.292168 1.7611549l5.921261 0l0 3.8425195l-5.921261 0z" fill-rule="evenodd"/><path fill="#ff8e8e" d="m16.15634 1.7611549l5.921261 0l0 3.8425195l-5.921261 0z" fill-rule="evenodd"/><path fill="#ff8e8e" d="m6.624672 38.385826l0 -1.7480316l0 0c0 -0.96541214 5.633456 -1.7480316 12.582678 -1.7480316c6.9492207 0 12.582676 0.7826195 12.582676 1.7480316l0 1.7480316z" fill-rule="evenodd"/><path fill="#ff8e8e" d="m8.901962 33.90702l3.0019531 -26.173227l14.279558 0l3.0019531 26.173227z" fill-rule="evenodd"/><path fill="#ff8e8e" d="m29.284872 5.893169l0 1.2283463l0 0c0 0.6783972 -4.5406075 1.2283468 -10.141731 1.2283468c-5.601125 0 -10.141733 -0.54994965 -10.141733 -1.2283468l0 -1.2283463z" fill-rule="evenodd"/><path fill="#ff8e8e" d="m7.063333 35.88116l0 -1.3858261l0 0c0 -0.76537323 5.3937354 -1.3858261 12.047243 -1.3858261c6.653509 0 12.047245 0.6204529 12.047245 1.3858261l0 1.3858261z" fill-rule="evenodd"/><path fill="#5b0e08" d="m21.31289 7.835041l2.1693077 0.03658724l2.2770176 0.10517597l0.97610474 -0.069339275l-4.013811 0.27950096z" fill-rule="evenodd"/><path fill="#5b0e08" d="m9.622943 30.87758l0.2521248 2.6938534l2.8032703 0.096214294l-3.5591984 0.11475372z" fill-rule="evenodd"/><path fill="#5b0e08" d="m11.564574 13.127936l0.2656746 -5.403328l3.7926903 -0.05613327l-3.0937424 0.7796259z" fill-rule="evenodd"/><path fill="#5b0e08" d="m30.869034 36.01633l-6.9538326 0.061626434l-7.299097 0.17927551l-3.1289558 -0.11951828l12.86648 0.4818039z" fill-rule="evenodd"/><path fill="#fffaea" d="m14.103644 29.380236l1.0829115 -14.769769l-0.44462585 10.409957z" fill-rule="evenodd"/><path fill="#5b0e08" d="m14.104565 36.20469l-2.5598993 -0.12302399l-2.6936026 -0.050266266l-1.1433702 -0.15670013l4.7021728 0.6377144z" fill-rule="evenodd"/></g></svg>