<svg version="1.1" viewBox="0.0 0.0 38.3989501312336 38.3989501312336" fill="none" stroke="none" stroke-linecap="square" stroke-miterlimit="10" xmlns:xlink="http://www.w3.org/1999/xlink" xmlns="http://www.w3.org/2000/svg"><clipPath id="p.0"><path d="m0 0l38.39895 0l0 38.39895l-38.39895 0l0 -38.39895z" clip-rule="nonzero"/></clipPath><g clip-path="url(#p.0)"><path fill="#000000" fill-opacity="0.0" d="m0 0l38.39895 0l0 38.39895l-38.39895 0z" fill-rule="evenodd"/><path fill="#000000" d="m-6.485166 17.565039l0 0c2.335505 -3.0845652 2.7957728 -7.408658 1.1718893 -11.009589c-1.6238832 -3.6009305 -5.022613 -5.79282 -8.653517 -5.5807776c-3.6309032 0.21204239 -6.802395 2.7876287 -8.074944 6.557709l7.2290564 2.989644l0 0c0.12425518 -0.88392544 0.5356159 -1.5645494 1.0550966 -1.7457275c0.51947975 -0.18117905 1.0531425 0.16985035 1.3687868 0.9003525c0.31564426 0.7305021 0.3561926 1.7083807 0.104002 2.508153z" fill-rule="evenodd"/><path fill="#ffefc1" d="m11.769029 39.76509l0 -5.354328l0 0c0 -2.957117 3.327899 -5.354332 7.43307 -5.354332c4.105173 0 7.433071 2.397215 7.433071 5.354332l0 5.354328z" fill-rule="evenodd"/><path fill="#000000" d="m-20.950167 11.049662l5.984251 -1.5748024l4.4724407 17.700787l-5.984251 1.5748043z" fill-rule="evenodd"/><path fill="#000000" d="m-14.186875 12.570703l0 0c-1.7592545 0.8277464 -3.9847631 0.68852043 -5.6739397 -0.35495758c-1.6891766 -1.043477 -2.5232449 -2.7942858 -2.126461 -4.463689c0.39678383 -1.6694031 1.949543 -2.9423585 3.9587612 -3.2454019l0.9627514 3.6021276l0 0c-0.5764103 -0.031198502 -1.064209 0.08425331 -1.2577744 0.29768753c-0.19356728 0.21343517 -0.059223175 0.48772144 0.3463974 0.70723915c0.40562248 0.21951675 1.0119572 0.34607506 1.5634117 0.32632542z" fill-rule="evenodd"/><path fill="#ffefc1" d="m10.546273 10.509584c3.0773993 -4.4285 8.390414 -6.277672 12.808772 -4.4580374c4.418358 1.8196344 6.7703094 6.825507 5.6701508 12.068305c-1.1001587 5.242796 -5.3606606 9.332125 -10.271347 9.858673l0.001033783 -3.8455658l0 0c3.206335 -0.5379753 5.9960136 -3.358984 6.7488117 -6.824608c0.7527981 -3.4656239 -0.7272301 -6.6737957 -3.580494 -7.7612324c-2.8532658 -1.0874376 -6.3370914 0.22890854 -8.428098 3.184514z" fill-rule="evenodd"/><path fill="#ffefc1" d="m13.102669 12.045818l4.503937 3.1181107l-3.9055119 6.1732273l-4.503937 -3.1181087z" fill-rule="evenodd"/><path fill="#000000" d="m43.769028 70.39895l0 -5.795273l0 0c0 -3.2006454 3.3279 -5.7952766 7.433071 -5.7952766c4.105171 0 7.433071 2.5946312 7.433071 5.7952766l0 5.795273z" fill-rule="evenodd"/><path fill="#000000" d="m40.759476 38.307823l0 0c2.69796 -4.9908295 8.716713 -7.2067413 14.205917 -5.2301636c5.4892006 1.9765778 8.82589 7.561241 7.8755074 13.181347c-0.95038605 5.6201057 -5.906849 9.613987 -11.69862 9.426662l0.020843506 -4.141819l0 0c3.7557716 0.17958069 6.9664993 -2.3606796 7.5688705 -5.988331c0.60237503 -3.6276512 -1.5827904 -7.2636147 -5.1512413 -8.571308c-3.568447 -1.3076935 -7.4587097 0.101867676 -9.170784 3.322857z" fill-rule="evenodd"/><path fill="#000000" d="m46.63149 38.755486l3.6535416 5.0393715l-8.818897 6.1102333l-3.6535416 -5.0393677z" fill-rule="evenodd"/><path fill="#000000" d="m43.706036 59.93176l0 -3.464569l0 0c0 -1.9134254 3.356102 -3.4645653 7.496063 -3.4645653c4.1399612 0 7.496063 1.5511398 7.496063 3.4645653l0 3.464569z" fill-rule="evenodd"/><path fill="#000000" d="m-20.23097 70.39895l0 -5.795273l0 0c0 -3.2006454 3.327898 -5.7952766 7.43307 -5.7952766c4.105171 0 7.4330707 2.5946312 7.4330707 5.7952766l0 5.795273z" fill-rule="evenodd"/><path fill="#000000" d="m-22.086842 39.816185c2.745327 -4.527153 8.114007 -6.770298 12.7967 -5.3467255c4.6826916 1.4235725 7.3615017 6.1132126 6.385167 11.178146c-0.97633433 5.0649376 -5.3330345 9.0797 -10.384559 9.569519l0.016105652 -3.6120415l0 0c3.2898722 -0.49220657 6.1362166 -3.2381172 6.810611 -6.5702934c0.67439413 -3.33218 -1.0092444 -6.331196 -4.0285378 -7.175915c-3.0192938 -0.84471893 -6.5411425 0.6979332 -8.42693 3.6911964z" fill-rule="evenodd"/><path fill="#000000" d="m-18.844015 41.475296l4.8503933 3.1496086l-3.9055119 5.795273l-4.8503933 -3.1496048z" fill-rule="evenodd"/><path fill="#000000" d="m-20.293962 59.93176l0 -3.464569l0 0c0 -1.9134254 3.3561 -3.4645653 7.4960623 -3.4645653c4.1399612 0 7.4960628 1.5511398 7.4960628 3.4645653l0 3.464569z" fill-rule="evenodd"/><path fill="#ffefc1" d="m12.524511 11.412809l0 0c2.3329983 -3.1664581 6.2350426 -4.398435 9.47336 -2.9909878c3.2383194 1.4074469 4.9861774 5.095001 4.2434406 8.952623c-0.7427349 3.8576221 -3.7864475 6.9004726 -7.3895054 7.387413l-0.1095047 -2.8836117c2.3449497 -0.44745255 4.3306255 -2.5363045 4.8340855 -5.085268c0.503458 -2.5489635 -0.60188675 -4.9171295 -2.6909409 -5.76525c-2.089054 -0.84811974 -4.636549 0.03705597 -6.2018204 2.1549416z" fill-rule="evenodd"/><path fill="#ffefc1" d="m10.093698 10.324319l0 0c3.5335407 -5.505292 9.917844 -7.9963517 15.327901 -5.9807196c5.410057 2.0156322 8.379278 7.9915466 7.128721 14.347412c-1.2505589 6.3558655 -6.3818836 11.368696 -12.319662 12.03517l-0.0016860962 -4.5943813l0 0c3.8778229 -0.6781502 7.239624 -4.1378403 8.102467 -8.338394c0.86284065 -4.200556 -1.0024433 -8.026323 -4.4956264 -9.220699c-3.493185 -1.194376 -7.686493 0.5598612 -10.106528 4.2279873z" fill-rule="evenodd"/><path fill="#ffefc1" d="m21.065617 29.955381l-3.5118103 0l0 0c-1.9395199 0 -3.5118113 -1.7767601 -3.5118113 -3.968504c0 -2.1917458 1.5722914 -3.968504 3.5118113 -3.968504l3.5118103 0z" fill-rule="evenodd"/><path fill="#ffffe1" d="m23.262276 30.905512l-0.71741104 0.78754044l-0.71740913 0.19688416l0.5285435 0.62885857l0.45384216 0.7096672l0.26356697 -0.6303253l0.79352 -0.236557l-0.79352 -0.236557z" fill-rule="evenodd"/><path fill="#ffffe1" d="m25.94939 5.8372703l-0.42050934 0.8052759l0.8395958 0.11074257l0.2679863 -0.5140643z" fill-rule="evenodd"/></g></svg>