<svg version="1.1" viewBox="0.0 0.0 38.3989501312336 38.3989501312336" fill="none" stroke="none" stroke-linecap="square" stroke-miterlimit="10" xmlns:xlink="http://www.w3.org/1999/xlink" xmlns="http://www.w3.org/2000/svg"><clipPath id="p.0"><path d="m0 0l38.39895 0l0 38.39895l-38.39895 0l0 -38.39895z" clip-rule="nonzero"/></clipPath><g clip-path="url(#p.0)"><path fill="#000000" fill-opacity="0.0" d="m0 0l38.39895 0l0 38.39895l-38.39895 0z" fill-rule="evenodd"/><path fill="#000000" d="m-6.485166 17.565039l0 0c2.335505 -3.0845652 2.7957728 -7.408658 1.1718893 -11.009589c-1.6238832 -3.6009305 -5.022613 -5.79282 -8.653517 -5.5807776c-3.6309032 0.21204239 -6.802395 2.7876287 -8.074944 6.557709l7.2290564 2.989644l0 0c0.12425518 -0.88392544 0.5356159 -1.5645494 1.0550966 -1.7457275c0.51947975 -0.18117905 1.0531425 0.16985035 1.3687868 0.9003525c0.31564426 0.7305021 0.3561926 1.7083807 0.104002 2.508153z" fill-rule="evenodd"/><path fill="#ffefc1" d="m7.657699 38.39895l0 -5.795273l0 0c0 -3.2006435 5.069406 -5.7952766 11.322834 -5.7952766c6.2534294 0 11.322834 2.594633 11.322834 5.7952766l0 5.795273z" fill-rule="evenodd"/><path fill="#000000" d="m-20.950167 11.049662l5.984251 -1.5748024l4.4724407 17.700787l-5.984251 1.5748043z" fill-rule="evenodd"/><path fill="#000000" d="m-14.186875 12.570703l0 0c-1.7592545 0.8277464 -3.9847631 0.68852043 -5.6739397 -0.35495758c-1.6891766 -1.043477 -2.5232449 -2.7942858 -2.126461 -4.463689c0.39678383 -1.6694031 1.949543 -2.9423585 3.9587612 -3.2454019l0.9627514 3.6021276l0 0c-0.5764103 -0.031198502 -1.064209 0.08425331 -1.2577744 0.29768753c-0.19356728 0.21343517 -0.059223175 0.48772144 0.3463974 0.70723915c0.40562248 0.21951675 1.0119572 0.34607506 1.5634117 0.32632542z" fill-rule="evenodd"/><path fill="#000000" d="m42.9856 7.436497l0 0c3.0786018 -4.1538486 8.3999405 -5.8908176 12.822193 -4.185366c4.4222565 1.705451 6.769394 6.399782 5.6556206 11.31137c-1.1137733 4.9115877 -5.392269 8.734267 -10.309376 9.211055l0.016105652 -3.6120415l0 0c3.2060165 -0.47966194 6.002922 -3.103899 6.7611847 -6.3437853c0.75826263 -3.2398863 -0.72029114 -6.248655 -3.574234 -7.2733445c-2.853939 -1.0246897 -6.337372 0.2025094 -8.420784 2.9666085z" fill-rule="evenodd"/><path fill="#ffefc1" d="m29.344366 3.183727l0.12598419 8.094488l-20.88189 0l-0.12598419 -8.094488z" fill-rule="evenodd"/><path fill="#ffefc1" d="m7.862224 30.094488l0 -3.4645672l0 0c0 -1.9134274 4.970697 -3.4645672 11.102362 -3.4645672c6.1316643 0 11.102362 1.5511398 11.102362 3.4645672l0 3.4645672z" fill-rule="evenodd"/><path fill="#000000" d="m43.769028 70.39895l0 -5.795273l0 0c0 -3.2006454 3.3279 -5.7952766 7.433071 -5.7952766c4.105171 0 7.433071 2.5946312 7.433071 5.7952766l0 5.795273z" fill-rule="evenodd"/><path fill="#000000" d="m40.759476 38.307823l0 0c2.69796 -4.9908295 8.716713 -7.2067413 14.205917 -5.2301636c5.4892006 1.9765778 8.82589 7.561241 7.8755074 13.181347c-0.95038605 5.6201057 -5.906849 9.613987 -11.69862 9.426662l0.020843506 -4.141819l0 0c3.7557716 0.17958069 6.9664993 -2.3606796 7.5688705 -5.988331c0.60237503 -3.6276512 -1.5827904 -7.2636147 -5.1512413 -8.571308c-3.568447 -1.3076935 -7.4587097 0.101867676 -9.170784 3.322857z" fill-rule="evenodd"/><path fill="#000000" d="m46.63149 38.755486l3.6535416 5.0393715l-8.818897 6.1102333l-3.6535416 -5.0393677z" fill-rule="evenodd"/><path fill="#000000" d="m43.706036 59.93176l0 -3.464569l0 0c0 -1.9134254 3.356102 -3.4645653 7.496063 -3.4645653c4.1399612 0 7.496063 1.5511398 7.496063 3.4645653l0 3.464569z" fill-rule="evenodd"/><path fill="#000000" d="m-20.23097 70.39895l0 -5.795273l0 0c0 -3.2006454 3.327898 -5.7952766 7.43307 -5.7952766c4.105171 0 7.4330707 2.5946312 7.4330707 5.7952766l0 5.795273z" fill-rule="evenodd"/><path fill="#000000" d="m-22.086842 39.816185c2.745327 -4.527153 8.114007 -6.770298 12.7967 -5.3467255c4.6826916 1.4235725 7.3615017 6.1132126 6.385167 11.178146c-0.97633433 5.0649376 -5.3330345 9.0797 -10.384559 9.569519l0.016105652 -3.6120415l0 0c3.2898722 -0.49220657 6.1362166 -3.2381172 6.810611 -6.5702934c0.67439413 -3.33218 -1.0092444 -6.331196 -4.0285378 -7.175915c-3.0192938 -0.84471893 -6.5411425 0.6979332 -8.42693 3.6911964z" fill-rule="evenodd"/><path fill="#000000" d="m-18.844015 41.475296l4.8503933 3.1496086l-3.9055119 5.795273l-4.8503933 -3.1496048z" fill-rule="evenodd"/><path fill="#000000" d="m-20.293962 59.93176l0 -3.464569l0 0c0 -1.9134254 3.3561 -3.4645653 7.4960623 -3.4645653c4.1399612 0 7.4960628 1.5511398 7.4960628 3.4645653l0 3.464569z" fill-rule="evenodd"/><path fill="#000000" d="m44.967457 8.2651005c2.3372345 -2.969057 6.2498055 -4.1172733 9.491241 -2.7853813c3.241436 1.331892 4.980526 4.80235 4.2187424 8.418754c-0.7617836 3.6164045 -3.829094 6.4513845 -7.4407806 6.8771925l-0.0897522 -2.7198505l0 0c2.345089 -0.38108635 4.34074 -2.309472 4.852566 -4.689005c0.51182175 -2.3795319 -0.5897293 -4.607915 -2.6785011 -5.4184694c-2.0887756 -0.8105545 -4.6360703 0.0018830299 -6.193928 1.9754992z" fill-rule="evenodd"/><path fill="#ffefc1" d="m16.066929 -0.619422l5.7952766 -0.0944882l0 25.574804l-5.7952766 0.094488144z" fill-rule="evenodd"/><path fill="#ffefc1" d="m11.8254595 18.677166l0 -1.7795277l0 0c0 -0.9828062 3.2503424 -1.7795277 7.259843 -1.7795277c4.0095005 0 7.259842 0.79672146 7.259842 1.7795277l0 1.7795277z" fill-rule="evenodd"/><path fill="#ffefc1" d="m13.694225 15.409449l0 -1.291338l0 0c0 -0.7131872 2.4113178 -1.2913389 5.385828 -1.2913389c2.9745083 0 5.385826 0.5781517 5.385826 1.2913389l0 1.291338z" fill-rule="evenodd"/><path fill="#665628" d="m28.821522 30.892412l-2.5905514 0.22146606l-3.6220474 0.22281456l-3.020996 -0.08912659l-4.401575 -0.17825127l-3.4514437 -0.087776184l3.7979002 0.5766182l5.608925 0.31059074l5.5223083 -0.31059074z" fill-rule="evenodd"/><path fill="#ffffe1" d="m24.333334 25.742783l0.69028854 1.2073479l0.86351585 -0.69028854l-0.25984192 -1.1207352z" fill-rule="evenodd"/><path stroke="#fffff7" stroke-width="1.0" stroke-linejoin="round" stroke-linecap="butt" d="m24.333334 25.742783l0.69028854 1.2073479l0.86351585 -0.69028854l-0.25984192 -1.1207352z" fill-rule="evenodd"/><path fill="#fffff7" d="m22.652239 15.828075l-1.2073479 0.43260384l0.69028854 0.5411663l1.1207352 -0.1628437z" fill-rule="evenodd"/><path fill="#fffff7" d="m20.841215 13.065608l-1.2073479 0.43260384l0.69028854 0.5411663l1.1207352 -0.16284275z" fill-rule="evenodd"/><path fill="#665628" d="m14.209973 15.506564l3.0183725 0.15051842l1.7270355 0.14823723l2.6745396 -0.29875565l-2.7611542 0.8985472l-3.1916018 0.07526016l-3.020997 -0.29875565z" fill-rule="evenodd"/><path fill="#665628" d="m16.10761 23.356955l-1.8976374 0.2572193l-2.244094 0.34645653l-1.2073488 0.69028854l1.2939625 0.5170593l2.6745415 -0.17322731l3.1915998 -1.0341206z" fill-rule="evenodd"/><path fill="#665628" d="m16.28084 11.188976l-0.17322922 1.984252l2.5879269 0.25984287l-2.328083 -0.43307114z" fill-rule="evenodd"/><path fill="#665628" d="m7.750421 33.53806l1.3739591 3.020996l0.16676521 1.8976364l-1.5536127 0z" fill-rule="evenodd"/><path fill="#665628" d="m17.162718 18.52231l-1.0551071 1.8109665l0 -1.6747322z" fill-rule="evenodd"/><path fill="#665628" d="m17.918642 3.282275l-1.3279667 -0.42735767l-0.48306465 -1.7630538l0.24061394 2.2440343z" fill-rule="evenodd"/><path fill="#665628" d="m8.254593 26.288713l2.8477697 3.1076126" fill-rule="evenodd"/><path fill="#665628" d="m8.645959 4.976378l0.5067854 5.866142l5.070051 0.17322826l-5.7949743 0.17322826z" fill-rule="evenodd"/><path fill="#fffff7" d="m28.864838 31.395004l-1.2073498 0.43260384l0.69029045 0.5411663l1.1207333 -0.1628418z" fill-rule="evenodd"/></g></svg>