<svg version="1.1" viewBox="0.0 0.0 38.3989501312336 38.3989501312336" fill="none" stroke="none" stroke-linecap="square" stroke-miterlimit="10" xmlns:xlink="http://www.w3.org/1999/xlink" xmlns="http://www.w3.org/2000/svg"><clipPath id="p.0"><path d="m0 0l38.39895 0l0 38.39895l-38.39895 0l0 -38.39895z" clip-rule="nonzero"/></clipPath><g clip-path="url(#p.0)"><path fill="#000000" fill-opacity="0.0" d="m0 0l38.39895 0l0 38.39895l-38.39895 0z" fill-rule="evenodd"/><path fill="#000000" d="m-11.060315 11.009847l0 0c-0.39927578 -3.2950792 0.4786482 -6.6295223 2.3759232 -9.023994c1.8972754 -2.3944716 4.598491 -3.5771112 7.3102927 -3.2005744l-0.60299027 6.468246l0 0c-0.7105938 -0.22379017 -1.4373056 0.17464972 -1.965067 1.0774031c-0.5277617 0.90275335 -0.7961261 2.2064228 -0.725672 3.5251932z" fill-rule="evenodd"/><path fill="#000000" d="m-20.950167 11.049662l5.984251 -1.5748024l4.4724407 17.700787l-5.984251 1.5748043z" fill-rule="evenodd"/><path fill="#000000" d="m-14.186875 12.570703l0 0c-1.7592545 0.8277464 -3.9847631 0.68852043 -5.6739397 -0.35495758c-1.6891766 -1.043477 -2.5232449 -2.7942858 -2.126461 -4.463689c0.39678383 -1.6694031 1.949543 -2.9423585 3.9587612 -3.2454019l0.9627514 3.6021276l0 0c-0.5764103 -0.031198502 -1.064209 0.08425331 -1.2577744 0.29768753c-0.19356728 0.21343517 -0.059223175 0.48772144 0.3463974 0.70723915c0.40562248 0.21951675 1.0119572 0.34607506 1.5634117 0.32632542z" fill-rule="evenodd"/><path fill="#665628" d="m49.64878 10.886794l0 0c1.5573196 -3.4636006 4.8216705 -5.7147293 8.084633 -5.5752463c3.2629662 0.13948345 5.781727 2.637825 6.2380753 6.1875043c0.45635223 3.5496798 -1.2535973 7.3426094 -4.234932 9.39374l-0.9949379 -2.1085777c2.0168266 -1.5822124 3.1622086 -4.3544636 2.843647 -6.8827c-0.31855774 -2.5282364 -2.029602 -4.2453594 -4.248024 -4.26312c-2.2184258 -0.017760277 -4.4466248 1.6678252 -5.531975 4.1848226z" fill-rule="evenodd"/><path fill="#665628" d="m50.630863 8.214272l2.5196838 0.44094563l-0.50393677 4.2204723l-2.5196838 -0.44094563z" fill-rule="evenodd"/><path fill="#000000" d="m43.769028 70.39895l0 -5.795273l0 0c0 -3.2006454 3.3279 -5.7952766 7.433071 -5.7952766c4.105171 0 7.433071 2.5946312 7.433071 5.7952766l0 5.795273z" fill-rule="evenodd"/><path fill="#000000" d="m40.759476 38.307823l0 0c2.69796 -4.9908295 8.716713 -7.2067413 14.205917 -5.2301636c5.4892006 1.9765778 8.82589 7.561241 7.8755074 13.181347c-0.95038605 5.6201057 -5.906849 9.613987 -11.69862 9.426662l0.020843506 -4.141819l0 0c3.7557716 0.17958069 6.9664993 -2.3606796 7.5688705 -5.988331c0.60237503 -3.6276512 -1.5827904 -7.2636147 -5.1512413 -8.571308c-3.568447 -1.3076935 -7.4587097 0.101867676 -9.170784 3.322857z" fill-rule="evenodd"/><path fill="#000000" d="m46.63149 38.755486l3.6535416 5.0393715l-8.818897 6.1102333l-3.6535416 -5.0393677z" fill-rule="evenodd"/><path fill="#000000" d="m43.706036 59.93176l0 -3.464569l0 0c0 -1.9134254 3.356102 -3.4645653 7.496063 -3.4645653c4.1399612 0 7.496063 1.5511398 7.496063 3.4645653l0 3.464569z" fill-rule="evenodd"/><path fill="#000000" d="m-20.23097 70.39895l0 -5.795273l0 0c0 -3.2006454 3.327898 -5.7952766 7.43307 -5.7952766c4.105171 0 7.4330707 2.5946312 7.4330707 5.7952766l0 5.795273z" fill-rule="evenodd"/><path fill="#000000" d="m-22.086842 39.816185c2.745327 -4.527153 8.114007 -6.770298 12.7967 -5.3467255c4.6826916 1.4235725 7.3615017 6.1132126 6.385167 11.178146c-0.97633433 5.0649376 -5.3330345 9.0797 -10.384559 9.569519l0.016105652 -3.6120415l0 0c3.2898722 -0.49220657 6.1362166 -3.2381172 6.810611 -6.5702934c0.67439413 -3.33218 -1.0092444 -6.331196 -4.0285378 -7.175915c-3.0192938 -0.84471893 -6.5411425 0.6979332 -8.42693 3.6911964z" fill-rule="evenodd"/><path fill="#000000" d="m-18.844015 41.475296l4.8503933 3.1496086l-3.9055119 5.795273l-4.8503933 -3.1496048z" fill-rule="evenodd"/><path fill="#000000" d="m-20.293962 59.93176l0 -3.464569l0 0c0 -1.9134254 3.3561 -3.4645653 7.4960623 -3.4645653c4.1399612 0 7.4960628 1.5511398 7.4960628 3.4645653l0 3.464569z" fill-rule="evenodd"/><path fill="#665628" d="m51.639282 14.54119l0 0c-0.14946747 -3.277954 1.9551697 -6.436741 4.7751465 -7.1668825c2.8199806 -0.7301421 5.355488 1.227232 5.752739 4.4410305c0.39725113 3.2137995 -1.4845924 6.5445747 -4.2696686 7.557106l-0.2600174 -1.585949l0 0c1.9640427 -0.88789177 3.3014755 -3.3951273 3.0589447 -5.734481c-0.24252701 -2.3393536 -1.9819946 -3.7099447 -3.9784546 -3.134781c-1.9964638 0.57516384 -3.566433 2.8991756 -3.5907936 5.3154182z" fill-rule="evenodd"/><path fill="#665628" d="m46.63778 11.966215l0 0c0.59342957 -5.079205 4.894718 -9.193394 10.071587 -9.633488c5.1768646 -0.44009364 9.638283 2.9291644 10.446526 7.8892107c0.8082504 4.960047 -2.2850723 9.986489 -7.243103 11.769553l-1.0531731 -3.3590374l0 0c3.1727333 -1.2059078 5.153263 -4.4880104 4.645298 -7.6981163c-0.5079613 -3.210106 -3.3495636 -5.369596 -6.6649284 -5.0650454c-3.315361 0.30455017 -6.0937767 2.9802961 -6.5167236 6.275916z" fill-rule="evenodd"/><path fill="#ffefc1" d="m-11.097305 6.1443567l-0.71740913 0.78754044l-0.7174101 0.19688511l0.5285435 0.62885666l0.45384312 0.7096672l0.26356697 -0.6303258l0.793519 -0.23655558l-0.793519 -0.23655605z" fill-rule="evenodd"/><path fill="#665628" d="m48.955746 11.355735l2.7086601 -0.18897629l0.75590515 5.92126l-2.7086601 0.18897629z" fill-rule="evenodd"/><path fill="#665628" d="m61.748577 33.448784l0 0c-3.3655891 -1.7505951 -5.8400993 -4.677969 -6.6040993 -7.8127193c-0.7639961 -3.1347485 0.2822075 -6.067848 2.7921638 -7.827997l3.557293 3.5238647l0 0c-1.3396072 0.61463165 -1.838089 1.9291649 -1.3230286 3.4889145c0.5150604 1.5597496 1.9729385 3.150526 3.8693619 4.22209z" fill-rule="evenodd"/><path fill="#665628" d="m50.062992 14.289911l3.0551186 -0.094488144l0.15748215 1.7007875l-3.0551186 0.094488144z" fill-rule="evenodd"/><path fill="#665628" d="m10.122979 36.12478l0 -1.7007866l0 0c0 -0.9393196 3.9342537 -1.7007866 8.787402 -1.7007866c4.8531475 0 8.787401 0.761467 8.787401 1.7007866l0 1.7007866z" fill-rule="evenodd"/><path fill="#665628" d="m10.122979 39.45669l0 -2.2519684l0 0c0 -1.2437286 3.9342537 -2.2519684 8.787402 -2.2519684c4.8531475 0 8.787401 1.0082397 8.787401 2.2519684l0 2.2519684z" fill-rule="evenodd"/><path fill="#665628" d="m-32.65442 5.499535c0.79483986 0.36220503 0.68372726 0.77952766 0.1679802 2.3412075c-0.5157471 1.5616794 -2.7047234 5.0349956 -3.2624664 7.028871c-0.5577431 1.9938755 -0.40463638 3.77734 -0.083992004 4.9343834c0.3206482 1.1570435 0.9759407 1.4501305 2.0078735 2.0078735c1.0319366 0.5577431 2.9151382 1.2825909 4.183729 1.338583c1.2685909 0.055994034 2.4938755 -0.5564308 3.427822 -1.0026245c0.9339447 -0.4461937 1.645668 -0.8377075 2.1758518 -1.6745415c0.5301838 -0.83683205 1.019247 -2.3845139 1.005249 -3.3464565c-0.013998032 -0.96194077 -0.57305336 0.4190731 -1.0892391 -2.4251957c-0.51618385 -2.8442698 -0.75328064 -11.893702 -2.0078735 -14.64042c-1.2545929 -2.7467191 -4.571741 -2.1189852 -5.519684 -1.839895c-0.94794655 0.27909017 0.8779526 2.9706912 -0.1679802 3.5144358c-1.0459309 0.54374456 -5.2012234 -0.9072616 -6.1076107 -0.2519685c-0.9063873 0.6552931 -0.20909882 3.5144358 0.66929245 4.1837273c0.87838745 0.669291 3.8062096 -0.5301838 4.6010475 -0.16797924z" fill-rule="evenodd"/><path fill="#665628" d="m12.637293 32.39067l0 -1.1754951l0 0c0 -0.64920616 2.8060846 -1.1754913 6.267565 -1.1754913c3.461481 0 6.2675667 0.5262852 6.2675667 1.1754913l0 1.1754951z" fill-rule="evenodd"/><path fill="#665628" d="m25.172424 31.450998l0 1.0166416l0 0c0 0.56147766 -2.8060856 1.0166435 -6.2675667 1.0166435c-3.4614801 0 -6.267565 -0.45516586 -6.267565 -1.0166435l0 -1.0166416z" fill-rule="evenodd"/><path fill="#665628" d="m-24.984251 29.973854l0 1.3228359l0 0c0 0.7305813 -3.3279 1.3228321 -7.433073 1.3228321c-4.105171 0 -7.433071 -0.5922508 -7.433071 -1.3228321l0 -1.3228359z" fill-rule="evenodd"/><path fill="#665628" d="m-39.850395 30.77952l0 -1.1496067l0 0c0 -0.6349087 3.3279 -1.1496048 7.433071 -1.1496048c4.105173 0 7.433073 0.5146961 7.433073 1.1496048l0 1.1496067z" fill-rule="evenodd"/><path fill="#504525" d="m21.2053 24.415785l3.2283459 0l0 0c1.7829666 0 3.2283478 1.4242268 3.2283478 3.1811008c0 1.756876 -1.4453812 3.1811028 -3.2283478 3.1811028l-3.2283459 0z" fill-rule="evenodd"/><path fill="#665628" d="m21.770948 2.451463l0 0c0 -0.5392493 0.43714714 -0.9763974 0.97639656 -0.9763974l3.9054737 0l0 0c0.2589569 0 0.50730705 0.102870226 0.69041634 0.28598022c0.18311119 0.18311 0.28598022 0.4314605 0.28598022 0.6904172l0 24.503897c0 0.5392494 -0.43714714 0.97639847 -0.97639656 0.97639847l-3.9054737 0c-0.5392494 0 -0.97639656 -0.43714905 -0.97639656 -0.97639847z" fill-rule="evenodd"/><path fill="#665628" d="m11.576876 5.9626145l0 0c0 -0.6552172 0.53115845 -1.1863756 1.1863756 -1.1863756l12.871345 0c0.31464577 0 0.6164055 0.12499285 0.8388939 0.34748173c0.2224884 0.2224884 0.34748077 0.52424765 0.34748077 0.8388939l0 4.745359c0 0.6552172 -0.53115845 1.1863756 -1.1863747 1.1863756l-12.871345 0c-0.6552172 0 -1.1863756 -0.53115845 -1.1863756 -1.1863756z" fill-rule="evenodd"/><path fill="#504525" d="m17.838934 12.553146l0 0c0.20014954 -0.32869625 0.63033485 -0.43533897 0.96084213 -0.23819447l2.3936768 1.4278078l0 0c0.1587143 0.0946722 0.27274895 0.24817085 0.3170128 0.42672825c0.04426384 0.17855644 0.015134811 0.36754513 -0.0809803 0.5253906l-6.5822773 10.809686c-0.20015049 0.3286972 -0.6303339 0.43534088 -0.96084213 0.23819542l-2.3936768 -1.4278069c-0.33050728 -0.19714546 -0.43618298 -0.62342453 -0.23603153 -0.9521198z" fill-rule="evenodd"/><path fill="#504525" d="m15.804518 20.470453l0 0c0 -0.8030758 0.65102196 -1.4540977 1.4540977 -1.4540977l5.8162136 0l0 0c0.38565063 0 0.7555065 0.15320015 1.028202 0.4258957c0.27269745 0.27269554 0.4258957 0.6425514 0.4258957 1.028202l0 8.776844c0 0.8030758 -0.65102196 1.4540977 -1.4540977 1.4540977l-5.8162136 0c-0.8030758 0 -1.4540977 -0.65102196 -1.4540977 -1.4540977z" fill-rule="evenodd"/><path fill="#665628" d="m18.903961 10.365603l0 0c0 -0.59433365 0.4818039 -1.0761366 1.0761375 -1.0761366l4.3044186 0l0 0c0.28540993 0 0.5591297 0.113378525 0.76094437 0.31519318c0.20181465 0.20181465 0.31519318 0.47553444 0.31519318 0.7609434l0 8.209931c0 0.59433365 -0.4818039 1.0761356 -1.0761375 1.0761356l-4.3044186 0c-0.59433365 0 -1.0761375 -0.481802 -1.0761375 -1.0761356z" fill-rule="evenodd"/><path fill="#fffbee" d="m20.540468 7.7473l0 0c0 -0.84364796 0.7191658 -1.5275593 1.6063004 -1.5275593l0 0c0.42601585 0 0.8345852 0.16093874 1.1358242 0.44741154c0.301239 0.28647327 0.47047424 0.67501354 0.47047424 1.0801477l0 0c0 0.843647 -0.7191639 1.5275593 -1.6062984 1.5275593l0 0c-0.88713455 0 -1.6063004 -0.6839123 -1.6063004 -1.5275593z" fill-rule="evenodd"/><path fill="#504525" d="m17.599096 30.808l-3.7480316 0l0 0c-2.0699806 0 -3.7480316 -1.9248219 -3.7480316 -4.2992115c0 -2.3743896 1.678051 -4.2992134 3.7480316 -4.2992134l3.7480316 0z" fill-rule="evenodd"/><path fill="#504525" d="m21.770948 11.892088l0 0c0 -0.5392494 0.43714714 -0.9763975 0.97639656 -0.9763975l3.9054737 0l0 0c0.2589569 0 0.50730705 0.10286999 0.69041634 0.28598022c0.18311119 0.18311024 0.28598022 0.43146038 0.28598022 0.6904173l0 15.905472c0 0.5392494 -0.43714714 0.97639847 -0.97639656 0.97639847l-3.9054737 0c-0.5392494 0 -0.97639656 -0.43714905 -0.97639656 -0.97639847z" fill-rule="evenodd"/><path fill="#665628" d="m24.779306 20.153399c1.485012 2.0698624 0.69301224 4.934965 -1.815527 6.5677757c-2.508541 1.6328106 -5.883354 1.4798889 -7.736204 -0.3505478c-1.852849 -1.8304367 -1.5557127 -4.7179623 0.6811371 -6.619179l1.3128052 1.1007347c-1.6805124 1.2226315 -1.9956818 3.12574 -0.7158718 4.3226967c1.2798119 1.1969566 3.7030067 1.2654037 5.504017 0.15546799c1.8010082 -1.1099358 2.344326 -3.0065994 1.2340832 -4.308058z" fill-rule="evenodd"/><path fill="#665628" d="m19.048523 12.640196c-0.6255779 0.7604017 -1.5306244 3.1553135 -2.2719154 4.659874c-0.74129105 1.5045605 -1.7475872 3.3644485 -2.1758318 4.367489c-0.42824364 1.0030422 -0.5584221 0.7771549 -0.3936329 1.650753c0.16478825 0.8736 0.7071972 2.8629303 1.3823662 3.590845c0.67516804 0.7279148 1.6804323 0.6796913 2.6686468 0.77664566c0.9882164 0.096954346 2.2233582 0.1284256 3.2606487 -0.1949234c1.0372906 -0.323349 2.0410042 -0.645174 2.9630985 -1.7451687c0.92209244 -1.0999947 2.092146 -1.1497402 2.5694637 -4.8547974c0.47731972 -3.7050552 0.41016388 -14.592815 0.29445076 -17.375542c-0.11571312 -2.7827265 -0.6431408 -0.4852767 -0.9887333 0.6791842c-0.3455906 1.1644611 -0.26190567 5.191344 -1.084816 6.3075814c-0.8229103 1.1162376 -3.0622807 0.017258644 -3.8526478 0.38984585c-0.7903652 0.37258625 -0.4943657 1.554306 -0.88954926 1.8456755c-0.39518166 0.29136848 -0.8559704 -0.8578634 -1.4815483 -0.0974617z" fill-rule="evenodd"/><path fill="#554823" d="m11.539426 36.203205l0.88954926 0.5222168l7.8044786 0.17498398l3.459013 0.0874939l2.7647324 -0.5222168z" fill-rule="evenodd"/><path fill="#504525" d="m14.406411 33.239536l2.3710985 0.87218475l1.8751812 -0.17498398l3.1614647 0.17498398l1.9774666 -1.0444336z" fill-rule="evenodd"/></g></svg>