<svg version="1.1" viewBox="0.0 0.0 38.3989501312336 38.3989501312336" fill="none" stroke="none" stroke-linecap="square" stroke-miterlimit="10" xmlns:xlink="http://www.w3.org/1999/xlink" xmlns="http://www.w3.org/2000/svg"><clipPath id="p.0"><path d="m0 0l38.39895 0l0 38.39895l-38.39895 0l0 -38.39895z" clip-rule="nonzero"/></clipPath><g clip-path="url(#p.0)"><path fill="#000000" fill-opacity="0.0" d="m0 0l38.39895 0l0 38.39895l-38.39895 0z" fill-rule="evenodd"/><path fill="#a28c4d" d="m-11.060315 11.009847l0 0c-0.39927578 -3.2950792 0.4786482 -6.6295223 2.3759232 -9.023994c1.8972754 -2.3944716 4.598491 -3.5771112 7.3102927 -3.2005744l-0.60299027 6.468246l0 0c-0.7105938 -0.22379017 -1.4373056 0.17464972 -1.965067 1.0774031c-0.5277617 0.90275335 -0.7961261 2.2064228 -0.725672 3.5251932z" fill-rule="evenodd"/><path fill="#000000" d="m-20.950167 11.049662l5.984251 -1.5748024l4.4724407 17.700787l-5.984251 1.5748043z" fill-rule="evenodd"/><path fill="#000000" d="m-14.186875 12.570703l0 0c-1.7592545 0.8277464 -3.9847631 0.68852043 -5.6739397 -0.35495758c-1.6891766 -1.043477 -2.5232449 -2.7942858 -2.126461 -4.463689c0.39678383 -1.6694031 1.949543 -2.9423585 3.9587612 -3.2454019l0.9627514 3.6021276l0 0c-0.5764103 -0.031198502 -1.064209 0.08425331 -1.2577744 0.29768753c-0.19356728 0.21343517 -0.059223175 0.48772144 0.3463974 0.70723915c0.40562248 0.21951675 1.0119572 0.34607506 1.5634117 0.32632542z" fill-rule="evenodd"/><path fill="#665628" d="m49.64878 10.886794l0 0c1.5573196 -3.4636006 4.8216705 -5.7147293 8.084633 -5.5752463c3.2629662 0.13948345 5.781727 2.637825 6.2380753 6.1875043c0.45635223 3.5496798 -1.2535973 7.3426094 -4.234932 9.39374l-0.9949379 -2.1085777c2.0168266 -1.5822124 3.1622086 -4.3544636 2.843647 -6.8827c-0.31855774 -2.5282364 -2.029602 -4.2453594 -4.248024 -4.26312c-2.2184258 -0.017760277 -4.4466248 1.6678252 -5.531975 4.1848226z" fill-rule="evenodd"/><path fill="#665628" d="m50.630863 8.214272l2.5196838 0.44094563l-0.50393677 4.2204723l-2.5196838 -0.44094563z" fill-rule="evenodd"/><path fill="#000000" d="m43.769028 70.39895l0 -5.795273l0 0c0 -3.2006454 3.3279 -5.7952766 7.433071 -5.7952766c4.105171 0 7.433071 2.5946312 7.433071 5.7952766l0 5.795273z" fill-rule="evenodd"/><path fill="#000000" d="m40.759476 38.307823l0 0c2.69796 -4.9908295 8.716713 -7.2067413 14.205917 -5.2301636c5.4892006 1.9765778 8.82589 7.561241 7.8755074 13.181347c-0.95038605 5.6201057 -5.906849 9.613987 -11.69862 9.426662l0.020843506 -4.141819l0 0c3.7557716 0.17958069 6.9664993 -2.3606796 7.5688705 -5.988331c0.60237503 -3.6276512 -1.5827904 -7.2636147 -5.1512413 -8.571308c-3.568447 -1.3076935 -7.4587097 0.101867676 -9.170784 3.322857z" fill-rule="evenodd"/><path fill="#000000" d="m46.63149 38.755486l3.6535416 5.0393715l-8.818897 6.1102333l-3.6535416 -5.0393677z" fill-rule="evenodd"/><path fill="#000000" d="m43.706036 59.93176l0 -3.464569l0 0c0 -1.9134254 3.356102 -3.4645653 7.496063 -3.4645653c4.1399612 0 7.496063 1.5511398 7.496063 3.4645653l0 3.464569z" fill-rule="evenodd"/><path fill="#000000" d="m-20.23097 70.39895l0 -5.795273l0 0c0 -3.2006454 3.327898 -5.7952766 7.43307 -5.7952766c4.105171 0 7.4330707 2.5946312 7.4330707 5.7952766l0 5.795273z" fill-rule="evenodd"/><path fill="#000000" d="m-22.086842 39.816185c2.745327 -4.527153 8.114007 -6.770298 12.7967 -5.3467255c4.6826916 1.4235725 7.3615017 6.1132126 6.385167 11.178146c-0.97633433 5.0649376 -5.3330345 9.0797 -10.384559 9.569519l0.016105652 -3.6120415l0 0c3.2898722 -0.49220657 6.1362166 -3.2381172 6.810611 -6.5702934c0.67439413 -3.33218 -1.0092444 -6.331196 -4.0285378 -7.175915c-3.0192938 -0.84471893 -6.5411425 0.6979332 -8.42693 3.6911964z" fill-rule="evenodd"/><path fill="#000000" d="m-18.844015 41.475296l4.8503933 3.1496086l-3.9055119 5.795273l-4.8503933 -3.1496048z" fill-rule="evenodd"/><path fill="#000000" d="m-20.293962 59.93176l0 -3.464569l0 0c0 -1.9134254 3.3561 -3.4645653 7.4960623 -3.4645653c4.1399612 0 7.4960628 1.5511398 7.4960628 3.4645653l0 3.464569z" fill-rule="evenodd"/><path fill="#665628" d="m51.639282 14.54119l0 0c-0.14946747 -3.277954 1.9551697 -6.436741 4.7751465 -7.1668825c2.8199806 -0.7301421 5.355488 1.227232 5.752739 4.4410305c0.39725113 3.2137995 -1.4845924 6.5445747 -4.2696686 7.557106l-0.2600174 -1.585949l0 0c1.9640427 -0.88789177 3.3014755 -3.3951273 3.0589447 -5.734481c-0.24252701 -2.3393536 -1.9819946 -3.7099447 -3.9784546 -3.134781c-1.9964638 0.57516384 -3.566433 2.8991756 -3.5907936 5.3154182z" fill-rule="evenodd"/><path fill="#665628" d="m46.63778 11.966215l0 0c0.59342957 -5.079205 4.894718 -9.193394 10.071587 -9.633488c5.1768646 -0.44009364 9.638283 2.9291644 10.446526 7.8892107c0.8082504 4.960047 -2.2850723 9.986489 -7.243103 11.769553l-1.0531731 -3.3590374l0 0c3.1727333 -1.2059078 5.153263 -4.4880104 4.645298 -7.6981163c-0.5079613 -3.210106 -3.3495636 -5.369596 -6.6649284 -5.0650454c-3.315361 0.30455017 -6.0937767 2.9802961 -6.5167236 6.275916z" fill-rule="evenodd"/><path fill="#ffefc1" d="m-11.097305 6.1443567l-0.71740913 0.78754044l-0.7174101 0.19688511l0.5285435 0.62885666l0.45384312 0.7096672l0.26356697 -0.6303258l0.793519 -0.23655558l-0.793519 -0.23655605z" fill-rule="evenodd"/><path fill="#665628" d="m48.955746 11.355735l2.7086601 -0.18897629l0.75590515 5.92126l-2.7086601 0.18897629z" fill-rule="evenodd"/><path fill="#665628" d="m61.748577 33.448784l0 0c-3.3655891 -1.7505951 -5.8400993 -4.677969 -6.6040993 -7.8127193c-0.7639961 -3.1347485 0.2822075 -6.067848 2.7921638 -7.827997l3.557293 3.5238647l0 0c-1.3396072 0.61463165 -1.838089 1.9291649 -1.3230286 3.4889145c0.5150604 1.5597496 1.9729385 3.150526 3.8693619 4.22209z" fill-rule="evenodd"/><path fill="#665628" d="m50.062992 14.289911l3.0551186 -0.094488144l0.15748215 1.7007875l-3.0551186 0.094488144z" fill-rule="evenodd"/><path fill="#ffefc1" d="m10.121863 36.323483l0 -1.5905495l0 0c0 -0.87843704 3.9342537 -1.5905533 8.787402 -1.5905533c4.8531475 0 8.787401 0.71211624 8.787401 1.5905533l0 1.5905495z" fill-rule="evenodd"/><path fill="#ffefc1" d="m10.121863 39.45669l0 -2.1259842l0 0c0 -1.1741486 3.9342537 -2.1259842 8.787402 -2.1259842c4.8531475 0 8.787401 0.95183563 8.787401 2.1259842l0 2.1259842z" fill-rule="evenodd"/><path fill="#665628" d="m-32.65442 5.499535c0.79483986 0.36220503 0.68372726 0.77952766 0.1679802 2.3412075c-0.5157471 1.5616794 -2.7047234 5.0349956 -3.2624664 7.028871c-0.5577431 1.9938755 -0.40463638 3.77734 -0.083992004 4.9343834c0.3206482 1.1570435 0.9759407 1.4501305 2.0078735 2.0078735c1.0319366 0.5577431 2.9151382 1.2825909 4.183729 1.338583c1.2685909 0.055994034 2.4938755 -0.5564308 3.427822 -1.0026245c0.9339447 -0.4461937 1.645668 -0.8377075 2.1758518 -1.6745415c0.5301838 -0.83683205 1.019247 -2.3845139 1.005249 -3.3464565c-0.013998032 -0.96194077 -0.57305336 0.4190731 -1.0892391 -2.4251957c-0.51618385 -2.8442698 -0.75328064 -11.893702 -2.0078735 -14.64042c-1.2545929 -2.7467191 -4.571741 -2.1189852 -5.519684 -1.839895c-0.94794655 0.27909017 0.8779526 2.9706912 -0.1679802 3.5144358c-1.0459309 0.54374456 -5.2012234 -0.9072616 -6.1076107 -0.2519685c-0.9063873 0.6552931 -0.20909882 3.5144358 0.66929245 4.1837273c0.87838745 0.669291 3.8062096 -0.5301838 4.6010475 -0.16797924z" fill-rule="evenodd"/><path fill="#ffefc1" d="m12.637328 32.813046l0 -1.1054554l0 0c0 -0.61052513 2.8067503 -1.1054554 6.2690516 -1.1054554c3.4623013 0 6.2690525 0.49493027 6.2690525 1.1054554l0 1.1054554z" fill-rule="evenodd"/><path fill="#ffefc1" d="m25.175432 31.929361l0 0.95606804l0 0c0 0.52802277 -2.8067513 0.95606995 -6.2690525 0.95606995c-3.4623013 0 -6.2690516 -0.42804718 -6.2690516 -0.95606995l0 -0.95606804z" fill-rule="evenodd"/><path fill="#665628" d="m-24.984251 29.973854l0 1.3228359l0 0c0 0.7305813 -3.3279 1.3228321 -7.433073 1.3228321c-4.105171 0 -7.433071 -0.5922508 -7.433071 -1.3228321l0 -1.3228359z" fill-rule="evenodd"/><path fill="#665628" d="m-39.850395 30.77952l0 -1.1496067l0 0c0 -0.6349087 3.3279 -1.1496048 7.433071 -1.1496048c4.105173 0 7.433073 0.5146961 7.433073 1.1496048l0 1.1496067z" fill-rule="evenodd"/><path fill="#a28c4d" d="m21.20579 25.31277l3.2283459 0l0 0c1.7829666 0 3.2283459 1.3396206 3.2283459 2.9921265c0 1.6525059 -1.4453793 2.9921265 -3.2283459 2.9921265l-3.2283459 0z" fill-rule="evenodd"/><path fill="#ffefc1" d="m22.144358 3.6456876l0 0c0 -0.50445914 0.40894508 -0.9134042 0.91340256 -0.9134042l3.6535072 0l0 0c0.24225044 0 0.47457886 0.09623337 0.645874 0.26752996c0.17129707 0.1712966 0.26753044 0.4036243 0.26753044 0.64587426l0 24.062956c0 0.5044594 -0.40894508 0.91340446 -0.91340446 0.91340446l-3.6535072 0c-0.5044575 0 -0.91340256 -0.40894508 -0.91340256 -0.91340446z" fill-rule="evenodd"/><path fill="#a28c4d" d="m17.828896 14.174324l0 0c0.20572472 -0.31834126 0.64042664 -0.42599106 0.9709339 -0.24044323l2.3936768 1.3438187l0 0c0.1587162 0.0891037 0.27168655 0.23528576 0.3140583 0.40638924c0.04237175 0.17110252 0.01067543 0.3531103 -0.0881176 0.5059824l-6.562092 10.154272c-0.20572472 0.3183422 -0.64042664 0.42599106 -0.97093487 0.24044418l-2.3936768 -1.3438187c-0.33050728 -0.18554878 -0.43166447 -0.5940323 -0.22593975 -0.9123726z" fill-rule="evenodd"/><path fill="#a28c4d" d="m15.804225 21.689444l0 0c0 -0.8030758 0.651021 -1.4540977 1.4540968 -1.4540977l5.8162155 0l0 0c0.38565063 0 0.7555065 0.15320015 1.028202 0.4258957c0.27269554 0.27269554 0.4258957 0.6425514 0.4258957 1.028202l0 8.083931c0 0.8030758 -0.65102196 1.4540977 -1.4540977 1.4540977l-5.8162155 0c-0.8030758 0 -1.4540968 -0.65102196 -1.4540968 -1.4540977z" fill-rule="evenodd"/><path fill="#ffefc1" d="m18.904118 12.164672l0 0c0 -0.59433365 0.4818039 -1.0761366 1.0761375 -1.0761366l4.3044186 0l0 0c0.28540993 0 0.5591297 0.11337757 0.76094437 0.31519318c0.20181465 0.20181465 0.31519318 0.47553444 0.31519318 0.7609434l0 7.5800104c0 0.59433365 -0.4818039 1.0761356 -1.0761375 1.0761356l-4.3044186 0c-0.59433365 0 -1.0761375 -0.481802 -1.0761375 -1.0761356z" fill-rule="evenodd"/><path fill="#a28c4d" d="m17.599064 31.323778l-3.7480326 0l0 0c-2.0699806 0 -3.7480307 -1.8049622 -3.7480307 -4.031496c0 -2.226534 1.67805 -4.031496 3.7480307 -4.031496l3.7480326 0z" fill-rule="evenodd"/><path fill="#a28c4d" d="m21.771519 13.594173l0 0c0 -0.5392494 0.43714905 -0.9763975 0.97639847 -0.9763975l3.9054718 0l0 0c0.2589569 0 0.50730705 0.10286999 0.69041824 0.28598022c0.18310928 0.18311024 0.28598022 0.43146038 0.28598022 0.6904173l0 14.834606c0 0.5392494 -0.43714905 0.97639847 -0.97639847 0.97639847l-3.9054718 0c-0.5392494 0 -0.97639847 -0.43714905 -0.97639847 -0.97639847z" fill-rule="evenodd"/><path fill="#a28c4d" d="m24.719162 21.227497l0 0c1.5587597 1.9383545 0.799839 4.6755524 -1.7299347 6.239338c-2.5297718 1.5637875 -5.9513855 1.410799 -7.7994375 -0.3487301c-1.848052 -1.7595291 -1.4804068 -4.514223 0.8380327 -6.2792187l1.262991 1.0576572c-1.8027277 1.1365166 -2.2023106 2.9647903 -0.9002819 4.1192055c1.3020267 1.1544132 3.8300877 1.2133064 5.695862 0.13268852c1.8657722 -1.080616 2.3877697 -2.9060402 1.1760864 -4.1127796z" fill-rule="evenodd"/><path fill="#ffefc1" d="m19.04882 14.239458c-0.62568283 0.71505547 -1.5308819 2.9671478 -2.2722988 4.3819847c-0.74141693 1.4148369 -1.7478838 3.1638107 -2.1762009 4.1070366c-0.42831612 0.94322395 -0.5585165 0.73080635 -0.39369965 1.552309c0.16481686 0.8215027 0.7073164 2.6921997 1.3825998 3.376707c0.6752844 0.68450546 1.6807165 0.63915825 2.6691008 0.7303295c0.98838234 0.09117317 2.223732 0.12076759 3.2612 -0.18329811c1.037466 -0.3040657 2.0413494 -0.606699 2.9636002 -1.6410961c0.92224884 -1.0343971 2.0924988 -1.0811768 2.5698986 -4.565283c0.47740173 -3.484108 0.41023445 -13.72258 0.29450035 -16.33936c-0.11573219 -2.6167798 -0.6432495 -0.45633745 -0.98889923 0.6386814c-0.34564972 1.0950189 -0.26194954 4.881759 -1.085001 5.9314313c-0.82304955 1.0496712 -3.0627995 0.01622963 -3.8533 0.36659718c-0.79049873 0.35036755 -0.49444962 1.4616156 -0.88969994 1.735609c-0.3952484 0.2739935 -0.85611534 -0.8067045 -1.4818001 -0.091649055z" fill-rule="evenodd"/><path fill="#a28c4d" d="m11.538515 36.397232l0.88969994 0.49108505l7.8058014 0.1645546l3.4595985 0.08227539l2.7651997 -0.49108505z" fill-rule="evenodd"/><path fill="#a28c4d" d="m14.405915 33.61031l2.371501 0.8201904l1.8754997 -0.1645546l3.1619987 0.1645546l1.9778004 -0.9821739z" fill-rule="evenodd"/><path fill="#ffefc1" d="m11.574803 7.299241l0 0c0 -0.63782215 0.51705647 -1.1548791 1.1548786 -1.1548791l12.934337 0c0.3062935 0 0.60004044 0.12167454 0.8166237 0.33825636c0.21658134 0.21658182 0.33825493 0.5103297 0.33825493 0.81662273l0 4.619376c0 0.63782215 -0.5170555 1.1548786 -1.1548786 1.1548786l-12.934337 0c-0.63782215 0 -1.1548786 -0.51705647 -1.1548786 -1.1548786z" fill-rule="evenodd"/><path fill="#504525" d="m19.64567 9.44096l0 0c0 -0.87843704 0.7191639 -1.5905509 1.6062984 -1.5905509l0 0c0.42601776 0 0.8345852 0.16757536 1.1358261 0.4658618c0.301239 0.29828548 0.47047234 0.70284843 0.47047234 1.1246891l0 0c0 0.87843704 -0.7191639 1.5905514 -1.6062984 1.5905514l0 0c-0.88713455 0 -1.6062984 -0.71211433 -1.6062984 -1.5905514z" fill-rule="evenodd"/><path fill="#ffefc1" d="m60.315495 3.738845l0.12598419 8.094488l-20.88189 0l-0.12598419 -8.094488z" fill-rule="evenodd"/><path fill="#ffffe1" d="m55.288715 26.228346l0.69028854 1.2073498l0.86351395 -0.69028854l-0.25984192 -1.1207352z" fill-rule="evenodd"/><path stroke="#fffff7" stroke-width="1.0" stroke-linejoin="round" stroke-linecap="butt" d="m55.288715 26.228346l0.69028854 1.2073498l0.86351395 -0.69028854l-0.25984192 -1.1207352z" fill-rule="evenodd"/></g></svg>