<svg version="1.1" viewBox="0.0 0.0 38.3989501312336 38.3989501312336" fill="none" stroke="none" stroke-linecap="square" stroke-miterlimit="10" xmlns:xlink="http://www.w3.org/1999/xlink" xmlns="http://www.w3.org/2000/svg"><clipPath id="p.0"><path d="m0 0l38.39895 0l0 38.39895l-38.39895 0l0 -38.39895z" clip-rule="nonzero"/></clipPath><g clip-path="url(#p.0)"><path fill="#000000" fill-opacity="0.0" d="m0 0l38.39895 0l0 38.39895l-38.39895 0z" fill-rule="evenodd"/><path fill="#000000" d="m-20.950167 11.049662l5.984251 -1.5748024l4.4724407 17.700787l-5.984251 1.5748043z" fill-rule="evenodd"/><path fill="#000000" d="m-14.186875 12.570703l0 0c-1.7592545 0.8277464 -3.9847631 0.68852043 -5.6739397 -0.35495758c-1.6891766 -1.043477 -2.5232449 -2.7942858 -2.126461 -4.463689c0.39678383 -1.6694031 1.949543 -2.9423585 3.9587612 -3.2454019l0.9627514 3.6021276l0 0c-0.5764103 -0.031198502 -1.064209 0.08425331 -1.2577744 0.29768753c-0.19356728 0.21343517 -0.059223175 0.48772144 0.3463974 0.70723915c0.40562248 0.21951675 1.0119572 0.34607506 1.5634117 0.32632542z" fill-rule="evenodd"/><path fill="#665628" d="m49.64878 10.886794l0 0c1.5573196 -3.4636006 4.8216705 -5.7147293 8.084633 -5.5752463c3.2629662 0.13948345 5.781727 2.637825 6.2380753 6.1875043c0.45635223 3.5496798 -1.2535973 7.3426094 -4.234932 9.39374l-0.9949379 -2.1085777c2.0168266 -1.5822124 3.1622086 -4.3544636 2.843647 -6.8827c-0.31855774 -2.5282364 -2.029602 -4.2453594 -4.248024 -4.26312c-2.2184258 -0.017760277 -4.4466248 1.6678252 -5.531975 4.1848226z" fill-rule="evenodd"/><path fill="#665628" d="m50.630863 8.214272l2.5196838 0.44094563l-0.50393677 4.2204723l-2.5196838 -0.44094563z" fill-rule="evenodd"/><path fill="#000000" d="m43.769028 70.39895l0 -5.795273l0 0c0 -3.2006454 3.3279 -5.7952766 7.433071 -5.7952766c4.105171 0 7.433071 2.5946312 7.433071 5.7952766l0 5.795273z" fill-rule="evenodd"/><path fill="#000000" d="m40.759476 38.307823l0 0c2.69796 -4.9908295 8.716713 -7.2067413 14.205917 -5.2301636c5.4892006 1.9765778 8.82589 7.561241 7.8755074 13.181347c-0.95038605 5.6201057 -5.906849 9.613987 -11.69862 9.426662l0.020843506 -4.141819l0 0c3.7557716 0.17958069 6.9664993 -2.3606796 7.5688705 -5.988331c0.60237503 -3.6276512 -1.5827904 -7.2636147 -5.1512413 -8.571308c-3.568447 -1.3076935 -7.4587097 0.101867676 -9.170784 3.322857z" fill-rule="evenodd"/><path fill="#000000" d="m46.63149 38.755486l3.6535416 5.0393715l-8.818897 6.1102333l-3.6535416 -5.0393677z" fill-rule="evenodd"/><path fill="#000000" d="m43.706036 59.93176l0 -3.464569l0 0c0 -1.9134254 3.356102 -3.4645653 7.496063 -3.4645653c4.1399612 0 7.496063 1.5511398 7.496063 3.4645653l0 3.464569z" fill-rule="evenodd"/><path fill="#000000" d="m-20.23097 70.39895l0 -5.795273l0 0c0 -3.2006454 3.327898 -5.7952766 7.43307 -5.7952766c4.105171 0 7.4330707 2.5946312 7.4330707 5.7952766l0 5.795273z" fill-rule="evenodd"/><path fill="#000000" d="m-22.086842 39.816185c2.745327 -4.527153 8.114007 -6.770298 12.7967 -5.3467255c4.6826916 1.4235725 7.3615017 6.1132126 6.385167 11.178146c-0.97633433 5.0649376 -5.3330345 9.0797 -10.384559 9.569519l0.016105652 -3.6120415l0 0c3.2898722 -0.49220657 6.1362166 -3.2381172 6.810611 -6.5702934c0.67439413 -3.33218 -1.0092444 -6.331196 -4.0285378 -7.175915c-3.0192938 -0.84471893 -6.5411425 0.6979332 -8.42693 3.6911964z" fill-rule="evenodd"/><path fill="#000000" d="m-18.844015 41.475296l4.8503933 3.1496086l-3.9055119 5.795273l-4.8503933 -3.1496048z" fill-rule="evenodd"/><path fill="#000000" d="m-20.293962 59.93176l0 -3.464569l0 0c0 -1.9134254 3.3561 -3.4645653 7.4960623 -3.4645653c4.1399612 0 7.4960628 1.5511398 7.4960628 3.4645653l0 3.464569z" fill-rule="evenodd"/><path fill="#665628" d="m51.639282 14.54119l0 0c-0.14946747 -3.277954 1.9551697 -6.436741 4.7751465 -7.1668825c2.8199806 -0.7301421 5.355488 1.227232 5.752739 4.4410305c0.39725113 3.2137995 -1.4845924 6.5445747 -4.2696686 7.557106l-0.2600174 -1.585949l0 0c1.9640427 -0.88789177 3.3014755 -3.3951273 3.0589447 -5.734481c-0.24252701 -2.3393536 -1.9819946 -3.7099447 -3.9784546 -3.134781c-1.9964638 0.57516384 -3.566433 2.8991756 -3.5907936 5.3154182z" fill-rule="evenodd"/><path fill="#665628" d="m46.63778 11.966215l0 0c0.59342957 -5.079205 4.894718 -9.193394 10.071587 -9.633488c5.1768646 -0.44009364 9.638283 2.9291644 10.446526 7.8892107c0.8082504 4.960047 -2.2850723 9.986489 -7.243103 11.769553l-1.0531731 -3.3590374l0 0c3.1727333 -1.2059078 5.153263 -4.4880104 4.645298 -7.6981163c-0.5079613 -3.210106 -3.3495636 -5.369596 -6.6649284 -5.0650454c-3.315361 0.30455017 -6.0937767 2.9802961 -6.5167236 6.275916z" fill-rule="evenodd"/><path fill="#ffefc1" d="m-11.097305 6.1443567l-0.71740913 0.78754044l-0.7174101 0.19688511l0.5285435 0.62885666l0.45384312 0.7096672l0.26356697 -0.6303258l0.793519 -0.23655558l-0.793519 -0.23655605z" fill-rule="evenodd"/><path fill="#665628" d="m48.955746 11.355735l2.7086601 -0.18897629l0.75590515 5.92126l-2.7086601 0.18897629z" fill-rule="evenodd"/><path fill="#665628" d="m61.748577 33.448784l0 0c-3.3655891 -1.7505951 -5.8400993 -4.677969 -6.6040993 -7.8127193c-0.7639961 -3.1347485 0.2822075 -6.067848 2.7921638 -7.827997l3.557293 3.5238647l0 0c-1.3396072 0.61463165 -1.838089 1.9291649 -1.3230286 3.4889145c0.5150604 1.5597496 1.9729385 3.150526 3.8693619 4.22209z" fill-rule="evenodd"/><path fill="#665628" d="m50.062992 14.289911l3.0551186 -0.094488144l0.15748215 1.7007875l-3.0551186 0.094488144z" fill-rule="evenodd"/><path fill="#665628" d="m10.12231 36.06769l0 -1.6220474l0 0c0 -0.89583206 3.9342537 -1.6220474 8.787402 -1.6220474c4.8531475 0 8.787401 0.72621536 8.787401 1.6220474l0 1.6220474z" fill-rule="evenodd"/><path fill="#665628" d="m10.12231 39.233597l0 -2.141735l0 0c0 -1.1828461 3.9342537 -2.1417313 8.787402 -2.1417313c4.8531475 0 8.787401 0.9588852 8.787401 2.1417313l0 2.141735z" fill-rule="evenodd"/><path fill="#665628" d="m-32.65442 5.499535c0.79483986 0.36220503 0.68372726 0.77952766 0.1679802 2.3412075c-0.5157471 1.5616794 -2.7047234 5.0349956 -3.2624664 7.028871c-0.5577431 1.9938755 -0.40463638 3.77734 -0.083992004 4.9343834c0.3206482 1.1570435 0.9759407 1.4501305 2.0078735 2.0078735c1.0319366 0.5577431 2.9151382 1.2825909 4.183729 1.338583c1.2685909 0.055994034 2.4938755 -0.5564308 3.427822 -1.0026245c0.9339447 -0.4461937 1.645668 -0.8377075 2.1758518 -1.6745415c0.5301838 -0.83683205 1.019247 -2.3845139 1.005249 -3.3464565c-0.013998032 -0.96194077 -0.57305336 0.4190731 -1.0892391 -2.4251957c-0.51618385 -2.8442698 -0.75328064 -11.893702 -2.0078735 -14.64042c-1.2545929 -2.7467191 -4.571741 -2.1189852 -5.519684 -1.839895c-0.94794655 0.27909017 0.8779526 2.9706912 -0.1679802 3.5144358c-1.0459309 0.54374456 -5.2012234 -0.9072616 -6.1076107 -0.2519685c-0.9063873 0.6552931 -0.20909882 3.5144358 0.66929245 4.1837273c0.87838745 0.669291 3.8062096 -0.5301838 4.6010475 -0.16797924z" fill-rule="evenodd"/><path fill="#665628" d="m12.637275 32.518867l0 -1.1168747l0 0c0 -0.61683273 2.8064175 -1.1168747 6.2683096 -1.1168747c3.4618912 0 6.2683086 0.50004196 6.2683086 1.1168747l0 1.1168747z" fill-rule="evenodd"/><path fill="#665628" d="m25.173893 31.626055l0 0.9659481l0 0c0 0.5334778 -2.8064175 0.9659462 -6.2683086 0.9659462c-3.4618921 0 -6.2683096 -0.4324684 -6.2683096 -0.9659462l0 -0.9659481z" fill-rule="evenodd"/><path fill="#665628" d="m-24.984251 29.973854l0 1.3228359l0 0c0 0.7305813 -3.3279 1.3228321 -7.433073 1.3228321c-4.105171 0 -7.433071 -0.5922508 -7.433071 -1.3228321l0 -1.3228359z" fill-rule="evenodd"/><path fill="#665628" d="m-39.850395 30.77952l0 -1.1496067l0 0c0 -0.6349087 3.3279 -1.1496048 7.433071 -1.1496048c4.105173 0 7.433073 0.5146961 7.433073 1.1496048l0 1.1496067z" fill-rule="evenodd"/><path fill="#504525" d="m21.205292 24.942081l3.2283459 0l0 0c1.7829666 0 3.2283478 1.3537216 3.2283478 3.0236225c0 1.6699009 -1.4453812 3.0236225 -3.2283478 3.0236225l-3.2283459 0z" fill-rule="evenodd"/><path fill="#665628" d="m21.771654 3.451463l0 0c0 -0.5392494 0.43714714 -0.9763973 0.97639656 -0.9763973l3.9054737 0l0 0c0.2589569 0 0.50730705 0.10286999 0.69041634 0.28598022c0.18311119 0.18311 0.28598022 0.43146038 0.28598022 0.69041705l0 23.84248c0 0.5392494 -0.43714714 0.97639847 -0.97639656 0.97639847l-3.9054737 0c-0.5392494 0 -0.97639656 -0.43714905 -0.97639656 -0.97639847z" fill-rule="evenodd"/><path fill="#504525" d="m17.829445 13.684972l0 0c0.20528793 -0.32031918 0.639637 -0.4272232 0.9701443 -0.23877525l2.3936768 1.3648157l0 0c0.1587143 0.09049511 0.27176857 0.23839092 0.3142891 0.41114998c0.042520523 0.17275906 0.011024475 0.35623074 -0.08755875 0.51005363l-6.563674 10.241594c-0.20528698 0.32032013 -0.6396351 0.4272232 -0.9701433 0.23877716l-2.3936768 -1.3648167c-0.33050728 -0.18844604 -0.43201828 -0.6008835 -0.22673035 -0.9212036z" fill-rule="evenodd"/><path fill="#504525" d="m15.804188 21.265772l0 0c0 -0.8030758 0.65102196 -1.4540977 1.4540977 -1.4540977l5.8162136 0l0 0c0.38565063 0 0.7555065 0.15319824 1.028202 0.4258957c0.27269745 0.27269554 0.4258957 0.6425514 0.4258957 1.028202l0 8.209915c0 0.8030758 -0.65102196 1.4540977 -1.4540977 1.4540977l-5.8162136 0c-0.8030758 0 -1.4540977 -0.65102196 -1.4540977 -1.4540977z" fill-rule="evenodd"/><path fill="#665628" d="m18.903816 11.645552l0 0c0 -0.59433365 0.4818039 -1.0761366 1.0761375 -1.0761366l4.3044186 0l0 0c0.28540993 0 0.5591297 0.113378525 0.76094437 0.31519318c0.20181465 0.20181465 0.31519318 0.47553444 0.31519318 0.7609434l0 7.7059937c0 0.59433365 -0.4818039 1.0761375 -1.0761375 1.0761375l-4.3044186 0c-0.59433365 0 -1.0761375 -0.4818039 -1.0761375 -1.0761375z" fill-rule="evenodd"/><path fill="#504525" d="m17.598873 31.015814l-3.7480316 0l0 0c-2.0699806 0 -3.7480316 -1.8261127 -3.7480316 -4.078739c0 -2.2526264 1.678051 -4.078741 3.7480316 -4.078741l3.7480316 0z" fill-rule="evenodd"/><path fill="#504525" d="m21.770973 13.091011l0 0c0 -0.5392494 0.43714905 -0.9763975 0.97639847 -0.9763975l3.9054718 0l0 0c0.2589569 0 0.50730896 0.10287094 0.69041824 0.28598022c0.18310928 0.18311024 0.28598022 0.43146133 0.28598022 0.6904173l0 15.023582c0 0.5392494 -0.43714905 0.97639847 -0.97639847 0.97639847l-3.9054718 0c-0.5392494 0 -0.97639847 -0.43714905 -0.97639847 -0.97639847z" fill-rule="evenodd"/><path fill="#665628" d="m24.7289 20.827023c1.546135 1.9592896 0.78136826 4.719139 -1.7449207 6.2969723c-2.526289 1.5778332 -5.9399548 1.4276905 -7.7887487 -0.34256935c-1.848793 -1.7702618 -1.4929943 -4.5480976 0.81180286 -6.3380127l1.2710476 1.0638943c-1.782383 1.1525517 -2.1677685 2.9942303 -0.8694763 4.155054c1.2982922 1.1608257 3.8087616 1.2192192 5.663927 0.13174438c1.8551655 -1.0874748 2.3812904 -2.9258804 1.1870003 -4.147669z" fill-rule="evenodd"/><path fill="#665628" d="m19.04851 13.753338c-0.6256294 0.72252655 -1.5307541 2.998146 -2.272108 4.427765c-0.741354 1.4296169 -1.747735 3.1968632 -2.176015 4.1499424c-0.42828083 0.9530792 -0.5584698 0.7384434 -0.39366722 1.5685272c0.16480255 0.83008575 0.7072573 2.7203255 1.3824835 3.4119835c0.6752262 0.691658 1.6805744 0.6458359 2.6688728 0.7379608c0.9883003 0.09212494 2.223545 0.12202835 3.2609253 -0.18521309c1.0373783 -0.30724335 2.0411758 -0.613039 2.9633484 -1.6582413c0.92217255 -1.0452042 2.0923233 -1.0924721 2.569683 -4.612978c0.47735977 -3.520506 0.4101982 -13.865942 0.29447556 -16.51006c-0.11572456 -2.6441176 -0.6431961 -0.46110487 -0.9888172 0.6453538c-0.3456211 1.1064587 -0.26192856 4.9327607 -1.0849075 5.993398c-0.8229809 1.0606375 -3.062542 0.016399384 -3.852974 0.37042713c-0.7904339 0.35402775 -0.49440765 1.4768858 -0.88962555 1.7537422c-0.395216 0.27685547 -0.85604286 -0.8151331 -1.4816742 -0.0926075z" fill-rule="evenodd"/><path fill="#554823" d="m11.538841 36.142212l0.8896246 0.49619675l7.8051386 0.1662674l3.4593067 0.0831337l2.764967 -0.49620056z" fill-rule="evenodd"/><path fill="#504525" d="m14.405997 33.326202l2.3712988 0.8287277l1.8753414 -0.16626358l3.1617317 0.16626358l1.9776325 -0.9923973z" fill-rule="evenodd"/><path fill="#665628" d="m11.577428 6.960653l0 0c0 -0.6726122 0.5452595 -1.2178721 1.2178717 -1.2178721l12.8083515 0c0.32299805 0 0.63276863 0.12831116 0.8611641 0.35670614c0.22839546 0.22839546 0.35670662 0.53816605 0.35670662 0.861166l0 4.871342c0 0.6726122 -0.5452595 1.2178726 -1.2178707 1.2178726l-12.8083515 0c-0.6726122 0 -1.2178717 -0.5452604 -1.2178717 -1.2178726z" fill-rule="evenodd"/><path fill="#ffefc1" d="m19.27295 8.771653l0 0c0 -0.8001604 0.6768608 -1.4488187 1.5118103 -1.4488187l0 0c0.4009571 0 0.78549194 0.1526432 1.0690117 0.4243493c0.28351974 0.27170658 0.44280052 0.64021873 0.44280052 1.0244694l0 0c0 0.80016136 -0.6768608 1.4488192 -1.5118122 1.4488192l0 0c-0.8349495 0 -1.5118103 -0.6486578 -1.5118103 -1.4488192z" fill-rule="evenodd"/></g></svg>