<svg version="1.1" viewBox="0.0 0.0 38.3989501312336 38.3989501312336" fill="none" stroke="none" stroke-linecap="square" stroke-miterlimit="10" xmlns:xlink="http://www.w3.org/1999/xlink" xmlns="http://www.w3.org/2000/svg"><clipPath id="p.0"><path d="m0 0l38.39895 0l0 38.39895l-38.39895 0l0 -38.39895z" clip-rule="nonzero"/></clipPath><g clip-path="url(#p.0)"><path fill="#000000" fill-opacity="0.0" d="m0 0l38.39895 0l0 38.39895l-38.39895 0z" fill-rule="evenodd"/><path fill="#000000" d="m-6.485166 17.565039l0 0c2.335505 -3.0845652 2.7957728 -7.408658 1.1718893 -11.009589c-1.6238832 -3.6009305 -5.022613 -5.79282 -8.653517 -5.5807776c-3.6309032 0.21204239 -6.802395 2.7876287 -8.074944 6.557709l7.2290564 2.989644l0 0c0.12425518 -0.88392544 0.5356159 -1.5645494 1.0550966 -1.7457275c0.51947975 -0.18117905 1.0531425 0.16985035 1.3687868 0.9003525c0.31564426 0.7305021 0.3561926 1.7083807 0.104002 2.508153z" fill-rule="evenodd"/><path fill="#000000" d="m-20.950167 11.049662l5.984251 -1.5748024l4.4724407 17.700787l-5.984251 1.5748043z" fill-rule="evenodd"/><path fill="#000000" d="m-14.186875 12.570703l0 0c-1.7592545 0.8277464 -3.9847631 0.68852043 -5.6739397 -0.35495758c-1.6891766 -1.043477 -2.5232449 -2.7942858 -2.126461 -4.463689c0.39678383 -1.6694031 1.949543 -2.9423585 3.9587612 -3.2454019l0.9627514 3.6021276l0 0c-0.5764103 -0.031198502 -1.064209 0.08425331 -1.2577744 0.29768753c-0.19356728 0.21343517 -0.059223175 0.48772144 0.3463974 0.70723915c0.40562248 0.21951675 1.0119572 0.34607506 1.5634117 0.32632542z" fill-rule="evenodd"/><path fill="#000000" d="m42.9856 7.436497l0 0c3.0786018 -4.1538486 8.3999405 -5.8908176 12.822193 -4.185366c4.4222565 1.705451 6.769394 6.399782 5.6556206 11.31137c-1.1137733 4.9115877 -5.392269 8.734267 -10.309376 9.211055l0.016105652 -3.6120415l0 0c3.2060165 -0.47966194 6.002922 -3.103899 6.7611847 -6.3437853c0.75826263 -3.2398863 -0.72029114 -6.248655 -3.574234 -7.2733445c-2.853939 -1.0246897 -6.337372 0.2025094 -8.420784 2.9666085z" fill-rule="evenodd"/><path fill="#000000" d="m43.769028 70.39895l0 -5.795273l0 0c0 -3.2006454 3.3279 -5.7952766 7.433071 -5.7952766c4.105171 0 7.433071 2.5946312 7.433071 5.7952766l0 5.795273z" fill-rule="evenodd"/><path fill="#000000" d="m40.759476 38.307823l0 0c2.69796 -4.9908295 8.716713 -7.2067413 14.205917 -5.2301636c5.4892006 1.9765778 8.82589 7.561241 7.8755074 13.181347c-0.95038605 5.6201057 -5.906849 9.613987 -11.69862 9.426662l0.020843506 -4.141819l0 0c3.7557716 0.17958069 6.9664993 -2.3606796 7.5688705 -5.988331c0.60237503 -3.6276512 -1.5827904 -7.2636147 -5.1512413 -8.571308c-3.568447 -1.3076935 -7.4587097 0.101867676 -9.170784 3.322857z" fill-rule="evenodd"/><path fill="#000000" d="m46.63149 38.755486l3.6535416 5.0393715l-8.818897 6.1102333l-3.6535416 -5.0393677z" fill-rule="evenodd"/><path fill="#000000" d="m43.706036 59.93176l0 -3.464569l0 0c0 -1.9134254 3.356102 -3.4645653 7.496063 -3.4645653c4.1399612 0 7.496063 1.5511398 7.496063 3.4645653l0 3.464569z" fill-rule="evenodd"/><path fill="#000000" d="m-20.23097 70.39895l0 -5.795273l0 0c0 -3.2006454 3.327898 -5.7952766 7.43307 -5.7952766c4.105171 0 7.4330707 2.5946312 7.4330707 5.7952766l0 5.795273z" fill-rule="evenodd"/><path fill="#000000" d="m-22.086842 39.816185c2.745327 -4.527153 8.114007 -6.770298 12.7967 -5.3467255c4.6826916 1.4235725 7.3615017 6.1132126 6.385167 11.178146c-0.97633433 5.0649376 -5.3330345 9.0797 -10.384559 9.569519l0.016105652 -3.6120415l0 0c3.2898722 -0.49220657 6.1362166 -3.2381172 6.810611 -6.5702934c0.67439413 -3.33218 -1.0092444 -6.331196 -4.0285378 -7.175915c-3.0192938 -0.84471893 -6.5411425 0.6979332 -8.42693 3.6911964z" fill-rule="evenodd"/><path fill="#000000" d="m-18.844015 41.475296l4.8503933 3.1496086l-3.9055119 5.795273l-4.8503933 -3.1496048z" fill-rule="evenodd"/><path fill="#000000" d="m-20.293962 59.93176l0 -3.464569l0 0c0 -1.9134254 3.3561 -3.4645653 7.4960623 -3.4645653c4.1399612 0 7.4960628 1.5511398 7.4960628 3.4645653l0 3.464569z" fill-rule="evenodd"/><path fill="#000000" d="m44.967457 8.2651005c2.3372345 -2.969057 6.2498055 -4.1172733 9.491241 -2.7853813c3.241436 1.331892 4.980526 4.80235 4.2187424 8.418754c-0.7617836 3.6164045 -3.829094 6.4513845 -7.4407806 6.8771925l-0.0897522 -2.7198505l0 0c2.345089 -0.38108635 4.34074 -2.309472 4.852566 -4.689005c0.51182175 -2.3795319 -0.5897293 -4.607915 -2.6785011 -5.4184694c-2.0887756 -0.8105545 -4.6360703 0.0018830299 -6.193928 1.9754992z" fill-rule="evenodd"/><path fill="#665628" d="m4.9632545 43.349083l28.47244 0l0 3.0551147l-28.47244 0z" fill-rule="evenodd"/><path fill="#665628" d="m9.593938 3.8421876l18.929134 0l0 2.3622048l-18.929134 0z" fill-rule="evenodd"/><path fill="#665628" d="m9.59301 1.7611549l5.5748034 0l0 3.8425195l-5.5748034 0z" fill-rule="evenodd"/><path fill="#665628" d="m22.982235 1.7611549l5.5748043 0l0 3.8425195l-5.5748043 0z" fill-rule="evenodd"/><path fill="#665628" d="m16.287622 1.7611549l5.5748024 0l0 3.8425195l-5.5748024 0z" fill-rule="evenodd"/><path fill="#ffefc1" d="m45.3937 2.1811023l0 6.330709l-4.2204704 -0.70341253l3.656166 -0.20997334z" fill-rule="evenodd"/><path fill="#ffefc1" d="m47.081364 8.653543l0.41994858 4.7112856l-3.937008 -0.49343777l5.2047234 2.2519684l-1.687664 -8.228346z" fill-rule="evenodd"/><path fill="#ffefc1" d="m60.16273 10.409449l1.1942253 6.120735l-7.031498 -0.07086563l5.8372726 -1.0551186z" fill-rule="evenodd"/><path fill="#ffefc1" d="m48.417324 22.015749l5.4146957 0.13910675l-1.1259842 -6.469816l-0.280838 5.2047234z" fill-rule="evenodd"/><path fill="#ffefc1" d="m60.582676 20.748032l0.28084183 1.8293953l-2.671917 0.13910866l4.010498 0.49343872z" fill-rule="evenodd"/><path fill="#ffefc1" d="m48.90814 26.094488l6.7532806 0.6325455l-0.8451462 6.3989506l2.6036758 -7.244095z" fill-rule="evenodd"/><path fill="#ffefc1" d="m62.918694 26.937008l-3.7069817 0.28083992l1.7601242 6.259844l-2.7802353 -6.963257z" fill-rule="evenodd"/><path fill="#ffefc1" d="m57.62992 6.2598424l0.14173126 2.082358l1.9685059 0l-2.4619446 0.9859495z" fill-rule="evenodd"/><path fill="#ffefc1" d="m41.173447 23.514435l6.330864 0.13910866l-1.3164978 -6.469816l-0.3283577 5.2047234z" fill-rule="evenodd"/><path fill="#665628" d="m7.3464355 38.385826l0 -1.5433083l0 0c0 -0.8523445 5.280925 -1.5433044 11.795277 -1.5433044c6.514349 0 11.795275 0.69095993 11.795275 1.5433044l0 1.5433083z" fill-rule="evenodd"/><path fill="#665628" d="m9.48068 35.294018l2.8154964 -27.559055l13.39263 0l2.8154964 27.559055z" fill-rule="evenodd"/><path fill="#665628" d="m28.604403 5.8931694l0 1.2283463l0 0c0 0.6783972 -4.258583 1.2283463 -9.51181 1.2283463c-5.253228 0 -9.511811 -0.54994917 -9.511811 -1.2283463l0 -1.2283463z" fill-rule="evenodd"/><path fill="#665628" d="m18.480318 54.39895l0 -3.4645653l0 0c0 -1.9134293 7.4807224 -3.4645653 16.708662 -3.4645653c9.22794 0 16.70866 1.551136 16.70866 3.4645653l0 3.4645653z" fill-rule="evenodd"/><path fill="#665628" d="m7.7579737 36.176853l0 -1.1968498l0 0c0 -0.6610031 5.062355 -1.1968498 11.307086 -1.1968498c6.244732 0 11.307087 0.5358467 11.307087 1.1968498l0 1.1968498z" fill-rule="evenodd"/><path fill="#000000" d="m10.078158 31.91601l0.032492638 2.345728l1.8701019 0.24827576l-2.386366 -0.11022949z" fill-rule="evenodd"/><path fill="#000000" d="m11.894497 13.193047l0.24927425 -5.4033275l3.5585537 -0.05613327l-2.9027548 0.77962637z" fill-rule="evenodd"/><path fill="#000000" d="m-7.801748 19.631243l0.08414364 4.3385086l5.0255365 0.35676003l-4.062981 -0.87726784z" fill-rule="evenodd"/><path fill="#000000" d="m29.440777 36.597244l-3.9184246 0.01077652l-4.112978 0.031345367l-1.7631397 -0.020896912l7.2501507 0.08423996z" fill-rule="evenodd"/><path fill="#000000" d="m25.205908 8.340994l-2.2247944 0.017652512l-2.3352566 0.051350594l-1.00107 -0.034234047l4.1164722 0.13800621z" fill-rule="evenodd"/><path fill="#ffefc1" d="m13.5814085 29.381487l1.0157413 -14.769768l-0.41704655 10.409958z" fill-rule="evenodd"/></g></svg>